G75*
G70*
%OFA0B0*%
%FSLAX24Y24*%
%IPPOS*%
%LPD*%
%AMOC8*
5,1,8,0,0,1.08239X$1,22.5*
%
%ADD10C,0.0000*%
%ADD11C,0.1142*%
%ADD12C,0.0867*%
%ADD13C,0.0160*%
%ADD14C,0.2008*%
%ADD15R,0.0512X0.0512*%
%ADD16C,0.0316*%
%ADD17C,0.2835*%
%ADD18OC8,0.0700*%
%ADD19OC8,0.0640*%
%ADD20C,0.0925*%
%ADD21C,0.0237*%
D10*
X004901Y004920D02*
X004903Y004960D01*
X004909Y005001D01*
X004919Y005040D01*
X004932Y005078D01*
X004950Y005115D01*
X004971Y005149D01*
X004995Y005182D01*
X005022Y005212D01*
X005052Y005239D01*
X005085Y005263D01*
X005119Y005284D01*
X005156Y005302D01*
X005194Y005315D01*
X005233Y005325D01*
X005274Y005331D01*
X005314Y005333D01*
X005354Y005331D01*
X005395Y005325D01*
X005434Y005315D01*
X005472Y005302D01*
X005509Y005284D01*
X005543Y005263D01*
X005576Y005239D01*
X005606Y005212D01*
X005633Y005182D01*
X005657Y005149D01*
X005678Y005115D01*
X005696Y005078D01*
X005709Y005040D01*
X005719Y005001D01*
X005725Y004960D01*
X005727Y004920D01*
X005725Y004880D01*
X005719Y004839D01*
X005709Y004800D01*
X005696Y004762D01*
X005678Y004725D01*
X005657Y004691D01*
X005633Y004658D01*
X005606Y004628D01*
X005576Y004601D01*
X005543Y004577D01*
X005509Y004556D01*
X005472Y004538D01*
X005434Y004525D01*
X005395Y004515D01*
X005354Y004509D01*
X005314Y004507D01*
X005274Y004509D01*
X005233Y004515D01*
X005194Y004525D01*
X005156Y004538D01*
X005119Y004556D01*
X005085Y004577D01*
X005052Y004601D01*
X005022Y004628D01*
X004995Y004658D01*
X004971Y004691D01*
X004950Y004725D01*
X004932Y004762D01*
X004919Y004800D01*
X004909Y004839D01*
X004903Y004880D01*
X004901Y004920D01*
X024940Y014074D02*
X024942Y014121D01*
X024948Y014167D01*
X024958Y014213D01*
X024971Y014258D01*
X024989Y014301D01*
X025010Y014343D01*
X025034Y014383D01*
X025062Y014420D01*
X025093Y014455D01*
X025127Y014488D01*
X025163Y014517D01*
X025202Y014543D01*
X025243Y014566D01*
X025286Y014585D01*
X025330Y014601D01*
X025375Y014613D01*
X025421Y014621D01*
X025468Y014625D01*
X025514Y014625D01*
X025561Y014621D01*
X025607Y014613D01*
X025652Y014601D01*
X025696Y014585D01*
X025739Y014566D01*
X025780Y014543D01*
X025819Y014517D01*
X025855Y014488D01*
X025889Y014455D01*
X025920Y014420D01*
X025948Y014383D01*
X025972Y014343D01*
X025993Y014301D01*
X026011Y014258D01*
X026024Y014213D01*
X026034Y014167D01*
X026040Y014121D01*
X026042Y014074D01*
X026040Y014027D01*
X026034Y013981D01*
X026024Y013935D01*
X026011Y013890D01*
X025993Y013847D01*
X025972Y013805D01*
X025948Y013765D01*
X025920Y013728D01*
X025889Y013693D01*
X025855Y013660D01*
X025819Y013631D01*
X025780Y013605D01*
X025739Y013582D01*
X025696Y013563D01*
X025652Y013547D01*
X025607Y013535D01*
X025561Y013527D01*
X025514Y013523D01*
X025468Y013523D01*
X025421Y013527D01*
X025375Y013535D01*
X025330Y013547D01*
X025286Y013563D01*
X025243Y013582D01*
X025202Y013605D01*
X025163Y013631D01*
X025127Y013660D01*
X025093Y013693D01*
X025062Y013728D01*
X025034Y013765D01*
X025010Y013805D01*
X024989Y013847D01*
X024971Y013890D01*
X024958Y013935D01*
X024948Y013981D01*
X024942Y014027D01*
X024940Y014074D01*
X031436Y012893D02*
X031438Y012940D01*
X031444Y012986D01*
X031454Y013032D01*
X031467Y013077D01*
X031485Y013120D01*
X031506Y013162D01*
X031530Y013202D01*
X031558Y013239D01*
X031589Y013274D01*
X031623Y013307D01*
X031659Y013336D01*
X031698Y013362D01*
X031739Y013385D01*
X031782Y013404D01*
X031826Y013420D01*
X031871Y013432D01*
X031917Y013440D01*
X031964Y013444D01*
X032010Y013444D01*
X032057Y013440D01*
X032103Y013432D01*
X032148Y013420D01*
X032192Y013404D01*
X032235Y013385D01*
X032276Y013362D01*
X032315Y013336D01*
X032351Y013307D01*
X032385Y013274D01*
X032416Y013239D01*
X032444Y013202D01*
X032468Y013162D01*
X032489Y013120D01*
X032507Y013077D01*
X032520Y013032D01*
X032530Y012986D01*
X032536Y012940D01*
X032538Y012893D01*
X032536Y012846D01*
X032530Y012800D01*
X032520Y012754D01*
X032507Y012709D01*
X032489Y012666D01*
X032468Y012624D01*
X032444Y012584D01*
X032416Y012547D01*
X032385Y012512D01*
X032351Y012479D01*
X032315Y012450D01*
X032276Y012424D01*
X032235Y012401D01*
X032192Y012382D01*
X032148Y012366D01*
X032103Y012354D01*
X032057Y012346D01*
X032010Y012342D01*
X031964Y012342D01*
X031917Y012346D01*
X031871Y012354D01*
X031826Y012366D01*
X031782Y012382D01*
X031739Y012401D01*
X031698Y012424D01*
X031659Y012450D01*
X031623Y012479D01*
X031589Y012512D01*
X031558Y012547D01*
X031530Y012584D01*
X031506Y012624D01*
X031485Y012666D01*
X031467Y012709D01*
X031454Y012754D01*
X031444Y012800D01*
X031438Y012846D01*
X031436Y012893D01*
X027696Y007873D02*
X027698Y007920D01*
X027704Y007966D01*
X027714Y008012D01*
X027727Y008057D01*
X027745Y008100D01*
X027766Y008142D01*
X027790Y008182D01*
X027818Y008219D01*
X027849Y008254D01*
X027883Y008287D01*
X027919Y008316D01*
X027958Y008342D01*
X027999Y008365D01*
X028042Y008384D01*
X028086Y008400D01*
X028131Y008412D01*
X028177Y008420D01*
X028224Y008424D01*
X028270Y008424D01*
X028317Y008420D01*
X028363Y008412D01*
X028408Y008400D01*
X028452Y008384D01*
X028495Y008365D01*
X028536Y008342D01*
X028575Y008316D01*
X028611Y008287D01*
X028645Y008254D01*
X028676Y008219D01*
X028704Y008182D01*
X028728Y008142D01*
X028749Y008100D01*
X028767Y008057D01*
X028780Y008012D01*
X028790Y007966D01*
X028796Y007920D01*
X028798Y007873D01*
X028796Y007826D01*
X028790Y007780D01*
X028780Y007734D01*
X028767Y007689D01*
X028749Y007646D01*
X028728Y007604D01*
X028704Y007564D01*
X028676Y007527D01*
X028645Y007492D01*
X028611Y007459D01*
X028575Y007430D01*
X028536Y007404D01*
X028495Y007381D01*
X028452Y007362D01*
X028408Y007346D01*
X028363Y007334D01*
X028317Y007326D01*
X028270Y007322D01*
X028224Y007322D01*
X028177Y007326D01*
X028131Y007334D01*
X028086Y007346D01*
X028042Y007362D01*
X027999Y007381D01*
X027958Y007404D01*
X027919Y007430D01*
X027883Y007459D01*
X027849Y007492D01*
X027818Y007527D01*
X027790Y007564D01*
X027766Y007604D01*
X027745Y007646D01*
X027727Y007689D01*
X027714Y007734D01*
X027704Y007780D01*
X027698Y007826D01*
X027696Y007873D01*
X036594Y003975D02*
X036596Y004015D01*
X036602Y004056D01*
X036612Y004095D01*
X036625Y004133D01*
X036643Y004170D01*
X036664Y004204D01*
X036688Y004237D01*
X036715Y004267D01*
X036745Y004294D01*
X036778Y004318D01*
X036812Y004339D01*
X036849Y004357D01*
X036887Y004370D01*
X036926Y004380D01*
X036967Y004386D01*
X037007Y004388D01*
X037047Y004386D01*
X037088Y004380D01*
X037127Y004370D01*
X037165Y004357D01*
X037202Y004339D01*
X037236Y004318D01*
X037269Y004294D01*
X037299Y004267D01*
X037326Y004237D01*
X037350Y004204D01*
X037371Y004170D01*
X037389Y004133D01*
X037402Y004095D01*
X037412Y004056D01*
X037418Y004015D01*
X037420Y003975D01*
X037418Y003935D01*
X037412Y003894D01*
X037402Y003855D01*
X037389Y003817D01*
X037371Y003780D01*
X037350Y003746D01*
X037326Y003713D01*
X037299Y003683D01*
X037269Y003656D01*
X037236Y003632D01*
X037202Y003611D01*
X037165Y003593D01*
X037127Y003580D01*
X037088Y003570D01*
X037047Y003564D01*
X037007Y003562D01*
X036967Y003564D01*
X036926Y003570D01*
X036887Y003580D01*
X036849Y003593D01*
X036812Y003611D01*
X036778Y003632D01*
X036745Y003656D01*
X036715Y003683D01*
X036688Y003713D01*
X036664Y003746D01*
X036643Y003780D01*
X036625Y003817D01*
X036612Y003855D01*
X036602Y003894D01*
X036596Y003935D01*
X036594Y003975D01*
X014596Y014201D02*
X014598Y014241D01*
X014604Y014282D01*
X014614Y014321D01*
X014627Y014359D01*
X014645Y014396D01*
X014666Y014430D01*
X014690Y014463D01*
X014717Y014493D01*
X014747Y014520D01*
X014780Y014544D01*
X014814Y014565D01*
X014851Y014583D01*
X014889Y014596D01*
X014928Y014606D01*
X014969Y014612D01*
X015009Y014614D01*
X015049Y014612D01*
X015090Y014606D01*
X015129Y014596D01*
X015167Y014583D01*
X015204Y014565D01*
X015238Y014544D01*
X015271Y014520D01*
X015301Y014493D01*
X015328Y014463D01*
X015352Y014430D01*
X015373Y014396D01*
X015391Y014359D01*
X015404Y014321D01*
X015414Y014282D01*
X015420Y014241D01*
X015422Y014201D01*
X015420Y014161D01*
X015414Y014120D01*
X015404Y014081D01*
X015391Y014043D01*
X015373Y014006D01*
X015352Y013972D01*
X015328Y013939D01*
X015301Y013909D01*
X015271Y013882D01*
X015238Y013858D01*
X015204Y013837D01*
X015167Y013819D01*
X015129Y013806D01*
X015090Y013796D01*
X015049Y013790D01*
X015009Y013788D01*
X014969Y013790D01*
X014928Y013796D01*
X014889Y013806D01*
X014851Y013819D01*
X014814Y013837D01*
X014780Y013858D01*
X014747Y013882D01*
X014717Y013909D01*
X014690Y013939D01*
X014666Y013972D01*
X014645Y014006D01*
X014627Y014043D01*
X014614Y014081D01*
X014604Y014120D01*
X014598Y014161D01*
X014596Y014201D01*
X020530Y019826D02*
X020532Y019849D01*
X020538Y019872D01*
X020548Y019893D01*
X020561Y019913D01*
X020577Y019930D01*
X020596Y019944D01*
X020617Y019954D01*
X020639Y019961D01*
X020662Y019964D01*
X020686Y019963D01*
X020708Y019958D01*
X020730Y019949D01*
X020750Y019937D01*
X020768Y019921D01*
X020782Y019903D01*
X020794Y019883D01*
X020802Y019861D01*
X020806Y019838D01*
X020806Y019814D01*
X020802Y019791D01*
X020794Y019769D01*
X020782Y019749D01*
X020768Y019731D01*
X020750Y019715D01*
X020730Y019703D01*
X020708Y019694D01*
X020686Y019689D01*
X020662Y019688D01*
X020639Y019691D01*
X020617Y019698D01*
X020596Y019708D01*
X020577Y019722D01*
X020561Y019739D01*
X020548Y019759D01*
X020538Y019780D01*
X020532Y019803D01*
X020530Y019826D01*
X021652Y019826D02*
X021654Y019849D01*
X021660Y019872D01*
X021670Y019893D01*
X021683Y019913D01*
X021699Y019930D01*
X021718Y019944D01*
X021739Y019954D01*
X021761Y019961D01*
X021784Y019964D01*
X021808Y019963D01*
X021830Y019958D01*
X021852Y019949D01*
X021872Y019937D01*
X021890Y019921D01*
X021904Y019903D01*
X021916Y019883D01*
X021924Y019861D01*
X021928Y019838D01*
X021928Y019814D01*
X021924Y019791D01*
X021916Y019769D01*
X021904Y019749D01*
X021890Y019731D01*
X021872Y019715D01*
X021852Y019703D01*
X021830Y019694D01*
X021808Y019689D01*
X021784Y019688D01*
X021761Y019691D01*
X021739Y019698D01*
X021718Y019708D01*
X021699Y019722D01*
X021683Y019739D01*
X021670Y019759D01*
X021660Y019780D01*
X021654Y019803D01*
X021652Y019826D01*
X030275Y019109D02*
X030277Y019128D01*
X030282Y019147D01*
X030292Y019163D01*
X030304Y019178D01*
X030319Y019190D01*
X030335Y019200D01*
X030354Y019205D01*
X030373Y019207D01*
X030392Y019205D01*
X030411Y019200D01*
X030427Y019190D01*
X030442Y019178D01*
X030454Y019163D01*
X030464Y019147D01*
X030469Y019128D01*
X030471Y019109D01*
X030469Y019090D01*
X030464Y019071D01*
X030454Y019055D01*
X030442Y019040D01*
X030427Y019028D01*
X030411Y019018D01*
X030392Y019013D01*
X030373Y019011D01*
X030354Y019013D01*
X030335Y019018D01*
X030319Y019028D01*
X030304Y019040D01*
X030292Y019055D01*
X030282Y019071D01*
X030277Y019090D01*
X030275Y019109D01*
X031929Y019109D02*
X031931Y019128D01*
X031936Y019147D01*
X031946Y019163D01*
X031958Y019178D01*
X031973Y019190D01*
X031989Y019200D01*
X032008Y019205D01*
X032027Y019207D01*
X032046Y019205D01*
X032065Y019200D01*
X032081Y019190D01*
X032096Y019178D01*
X032108Y019163D01*
X032118Y019147D01*
X032123Y019128D01*
X032125Y019109D01*
X032123Y019090D01*
X032118Y019071D01*
X032108Y019055D01*
X032096Y019040D01*
X032081Y019028D01*
X032065Y019018D01*
X032046Y019013D01*
X032027Y019011D01*
X032008Y019013D01*
X031989Y019018D01*
X031973Y019028D01*
X031958Y019040D01*
X031946Y019055D01*
X031936Y019071D01*
X031931Y019090D01*
X031929Y019109D01*
D11*
X025491Y014074D03*
X031987Y012893D03*
X028247Y007873D03*
D12*
X037007Y003975D03*
X015009Y014201D03*
X005314Y004920D03*
D13*
X003900Y001750D02*
X003710Y001840D01*
X003550Y001920D01*
X003350Y002040D01*
X003110Y002200D01*
X002880Y002380D01*
X002660Y002570D01*
X002550Y002680D01*
X002400Y002840D01*
X002280Y002980D01*
X002180Y003110D01*
X002060Y003270D01*
X001960Y003420D01*
X001830Y003650D01*
X001710Y003870D01*
X001640Y004030D01*
X001520Y004350D01*
X001430Y004660D01*
X001380Y004870D01*
X001350Y005040D01*
X001310Y005290D01*
X001280Y005800D01*
X002120Y005810D01*
X002210Y005810D01*
X002260Y005820D01*
X002350Y005840D01*
X002460Y005880D01*
X002560Y005930D01*
X002660Y006000D01*
X002750Y006100D01*
X002820Y006190D01*
X002870Y006280D01*
X002900Y006340D01*
X002940Y006470D01*
X002950Y006590D01*
X002950Y007100D01*
X002930Y007230D01*
X002920Y007270D01*
X002870Y007410D01*
X002720Y007620D01*
X002620Y007710D01*
X002490Y007790D01*
X002370Y007840D01*
X002190Y007870D01*
X001280Y007870D01*
X001280Y013880D01*
X002490Y014240D01*
X002570Y013850D01*
X002680Y013640D01*
X002830Y013500D01*
X002940Y013430D01*
X003110Y013370D01*
X003260Y013360D01*
X003480Y013400D01*
X003640Y013480D01*
X003760Y013570D01*
X003850Y013700D01*
X003920Y013830D01*
X003960Y014020D01*
X003950Y014160D01*
X003930Y014280D01*
X003840Y014550D01*
X003820Y014660D01*
X006460Y015470D01*
X006600Y015510D01*
X007560Y015790D01*
X012780Y017320D01*
X012980Y016640D01*
X013000Y016570D01*
X013020Y016490D01*
X013050Y016410D01*
X013140Y016230D01*
X013170Y016190D01*
X013220Y016120D01*
X013260Y016070D01*
X013340Y015990D01*
X013400Y015940D01*
X013450Y015900D01*
X013560Y015830D01*
X013610Y015800D01*
X013690Y015770D01*
X013790Y015730D01*
X013860Y015710D01*
X013910Y015700D01*
X013980Y015690D01*
X014020Y015690D01*
X014160Y015680D01*
X014320Y015700D01*
X014410Y015720D01*
X014490Y015740D01*
X014570Y015770D01*
X014720Y015850D01*
X014790Y015890D01*
X014840Y015930D01*
X014960Y016040D01*
X015050Y016150D01*
X015130Y016280D01*
X015180Y016370D01*
X015230Y016520D01*
X015260Y016650D01*
X015270Y016740D01*
X015270Y016950D01*
X015130Y017430D01*
X014960Y018010D01*
X015260Y018110D01*
X017860Y018110D01*
X018060Y018130D01*
X018190Y018170D01*
X018350Y018230D01*
X018510Y018330D01*
X018630Y018430D01*
X018720Y018530D01*
X018810Y018650D01*
X018900Y018820D01*
X018960Y019000D01*
X018990Y019110D01*
X019000Y019160D01*
X019000Y020376D01*
X023320Y020376D01*
X023340Y020282D01*
X023350Y020260D01*
X023400Y020130D01*
X023460Y020040D01*
X023550Y019940D01*
X023630Y019880D01*
X023750Y019820D01*
X023860Y019790D01*
X023940Y019780D01*
X028140Y019780D01*
X028270Y019800D01*
X028390Y019840D01*
X028490Y019890D01*
X028570Y019950D01*
X028670Y020050D01*
X028710Y020100D01*
X028770Y020210D01*
X028800Y020290D01*
X028820Y020350D01*
X028830Y020410D01*
X028840Y020770D01*
X033560Y020770D01*
X033560Y019200D01*
X033600Y018980D01*
X033650Y018850D01*
X033690Y018760D01*
X033750Y018660D01*
X033820Y018560D01*
X033930Y018440D01*
X034020Y018360D01*
X034160Y018270D01*
X034270Y018210D01*
X034370Y018170D01*
X034480Y018140D01*
X034580Y018120D01*
X034750Y018110D01*
X037310Y018110D01*
X037600Y018010D01*
X037290Y017190D01*
X037270Y017060D01*
X037260Y016910D01*
X037270Y016790D01*
X037300Y016630D01*
X037330Y016540D01*
X037340Y016490D01*
X037390Y016390D01*
X037490Y016220D01*
X037610Y016070D01*
X037690Y016000D01*
X037830Y015900D01*
X037980Y015810D01*
X038190Y015750D01*
X038330Y015720D01*
X038400Y015710D01*
X038520Y015710D01*
X038630Y015720D01*
X038750Y015740D01*
X038860Y015770D01*
X038940Y015800D01*
X039030Y015840D01*
X039130Y015900D01*
X039220Y015960D01*
X039300Y016030D01*
X039370Y016090D01*
X039430Y016160D01*
X039470Y016210D01*
X039570Y016370D01*
X039600Y016440D01*
X039880Y017130D01*
X045080Y015560D01*
X046090Y015270D01*
X048980Y014450D01*
X048890Y014030D01*
X048910Y013810D01*
X048980Y013640D01*
X049080Y013490D01*
X049200Y013390D01*
X049320Y013320D01*
X049490Y013270D01*
X049700Y013270D01*
X049920Y013330D01*
X050090Y013450D01*
X050170Y013540D01*
X050280Y013730D01*
X050360Y014050D01*
X051270Y013780D01*
X051270Y012040D01*
X051840Y012040D01*
X051840Y018508D01*
X057352Y018508D01*
X057352Y010240D01*
X051840Y010240D01*
X051840Y010520D01*
X051270Y010520D01*
X051270Y009370D01*
X051840Y009370D01*
X051840Y009648D01*
X057352Y009648D01*
X057352Y001380D01*
X051840Y001380D01*
X051840Y007870D01*
X050430Y007870D01*
X050340Y007860D01*
X050260Y007840D01*
X050170Y007810D01*
X050050Y007740D01*
X049960Y007670D01*
X049880Y007590D01*
X049800Y007460D01*
X049740Y007330D01*
X049710Y007210D01*
X049700Y006550D01*
X049720Y006410D01*
X049800Y006210D01*
X049870Y006100D01*
X050030Y005960D01*
X050120Y005900D01*
X050290Y005830D01*
X050370Y005810D01*
X051200Y005810D01*
X051200Y005080D01*
X051180Y004900D01*
X051140Y004730D01*
X051020Y004340D01*
X050940Y004130D01*
X050880Y003990D01*
X050770Y003770D01*
X050620Y003510D01*
X050470Y003280D01*
X050090Y002810D01*
X049970Y002690D01*
X049770Y002500D01*
X049620Y002370D01*
X049520Y002290D01*
X049340Y002160D01*
X049230Y002090D01*
X049100Y002010D01*
X048980Y001940D01*
X048770Y001830D01*
X048640Y001770D01*
X048460Y001690D01*
X048260Y001620D01*
X048070Y001560D01*
X047810Y001490D01*
X047600Y001450D01*
X047270Y001400D01*
X047120Y001390D01*
X046940Y001380D01*
X027460Y001380D01*
X027460Y002840D01*
X027420Y002990D01*
X027390Y003070D01*
X027340Y003170D01*
X027220Y003320D01*
X027110Y003410D01*
X027000Y003470D01*
X026880Y003510D01*
X026810Y003530D01*
X026740Y003540D01*
X025940Y003540D01*
X025820Y003530D01*
X025730Y003500D01*
X025630Y003460D01*
X025540Y003410D01*
X025460Y003350D01*
X025370Y003250D01*
X025290Y003140D01*
X025260Y003070D01*
X025240Y003020D01*
X025210Y002900D01*
X025190Y002810D01*
X025190Y001380D01*
X005470Y001380D01*
X005240Y001400D01*
X005000Y001430D01*
X004560Y001520D01*
X004320Y001590D01*
X004100Y001670D01*
X003900Y001750D01*
D14*
X009546Y005412D02*
X009548Y005451D01*
X009554Y005490D01*
X009564Y005528D01*
X009577Y005565D01*
X009594Y005600D01*
X009614Y005634D01*
X009638Y005665D01*
X009665Y005694D01*
X009694Y005720D01*
X009726Y005743D01*
X009760Y005763D01*
X009796Y005779D01*
X009833Y005791D01*
X009872Y005800D01*
X009911Y005805D01*
X009950Y005806D01*
X009989Y005803D01*
X010028Y005796D01*
X010065Y005785D01*
X010102Y005771D01*
X010137Y005753D01*
X010170Y005732D01*
X010201Y005707D01*
X010229Y005680D01*
X010254Y005650D01*
X010276Y005617D01*
X010295Y005583D01*
X010310Y005547D01*
X010322Y005509D01*
X010330Y005471D01*
X010334Y005432D01*
X010334Y005392D01*
X010330Y005353D01*
X010322Y005315D01*
X010310Y005277D01*
X010295Y005241D01*
X010276Y005207D01*
X010254Y005174D01*
X010229Y005144D01*
X010201Y005117D01*
X010170Y005092D01*
X010137Y005071D01*
X010102Y005053D01*
X010065Y005039D01*
X010028Y005028D01*
X009989Y005021D01*
X009950Y005018D01*
X009911Y005019D01*
X009872Y005024D01*
X009833Y005033D01*
X009796Y005045D01*
X009760Y005061D01*
X009726Y005081D01*
X009694Y005104D01*
X009665Y005130D01*
X009638Y005159D01*
X009614Y005190D01*
X009594Y005224D01*
X009577Y005259D01*
X009564Y005296D01*
X009554Y005334D01*
X009548Y005373D01*
X009546Y005412D01*
X014959Y009546D02*
X014961Y009585D01*
X014967Y009624D01*
X014977Y009662D01*
X014990Y009699D01*
X015007Y009734D01*
X015027Y009768D01*
X015051Y009799D01*
X015078Y009828D01*
X015107Y009854D01*
X015139Y009877D01*
X015173Y009897D01*
X015209Y009913D01*
X015246Y009925D01*
X015285Y009934D01*
X015324Y009939D01*
X015363Y009940D01*
X015402Y009937D01*
X015441Y009930D01*
X015478Y009919D01*
X015515Y009905D01*
X015550Y009887D01*
X015583Y009866D01*
X015614Y009841D01*
X015642Y009814D01*
X015667Y009784D01*
X015689Y009751D01*
X015708Y009717D01*
X015723Y009681D01*
X015735Y009643D01*
X015743Y009605D01*
X015747Y009566D01*
X015747Y009526D01*
X015743Y009487D01*
X015735Y009449D01*
X015723Y009411D01*
X015708Y009375D01*
X015689Y009341D01*
X015667Y009308D01*
X015642Y009278D01*
X015614Y009251D01*
X015583Y009226D01*
X015550Y009205D01*
X015515Y009187D01*
X015478Y009173D01*
X015441Y009162D01*
X015402Y009155D01*
X015363Y009152D01*
X015324Y009153D01*
X015285Y009158D01*
X015246Y009167D01*
X015209Y009179D01*
X015173Y009195D01*
X015139Y009215D01*
X015107Y009238D01*
X015078Y009264D01*
X015051Y009293D01*
X015027Y009324D01*
X015007Y009358D01*
X014990Y009393D01*
X014977Y009430D01*
X014967Y009468D01*
X014961Y009507D01*
X014959Y009546D01*
X024802Y007971D02*
X024804Y008010D01*
X024810Y008049D01*
X024820Y008087D01*
X024833Y008124D01*
X024850Y008159D01*
X024870Y008193D01*
X024894Y008224D01*
X024921Y008253D01*
X024950Y008279D01*
X024982Y008302D01*
X025016Y008322D01*
X025052Y008338D01*
X025089Y008350D01*
X025128Y008359D01*
X025167Y008364D01*
X025206Y008365D01*
X025245Y008362D01*
X025284Y008355D01*
X025321Y008344D01*
X025358Y008330D01*
X025393Y008312D01*
X025426Y008291D01*
X025457Y008266D01*
X025485Y008239D01*
X025510Y008209D01*
X025532Y008176D01*
X025551Y008142D01*
X025566Y008106D01*
X025578Y008068D01*
X025586Y008030D01*
X025590Y007991D01*
X025590Y007951D01*
X025586Y007912D01*
X025578Y007874D01*
X025566Y007836D01*
X025551Y007800D01*
X025532Y007766D01*
X025510Y007733D01*
X025485Y007703D01*
X025457Y007676D01*
X025426Y007651D01*
X025393Y007630D01*
X025358Y007612D01*
X025321Y007598D01*
X025284Y007587D01*
X025245Y007580D01*
X025206Y007577D01*
X025167Y007578D01*
X025128Y007583D01*
X025089Y007592D01*
X025052Y007604D01*
X025016Y007620D01*
X024982Y007640D01*
X024950Y007663D01*
X024921Y007689D01*
X024894Y007718D01*
X024870Y007749D01*
X024850Y007783D01*
X024833Y007818D01*
X024820Y007855D01*
X024810Y007893D01*
X024804Y007932D01*
X024802Y007971D01*
X030707Y007971D02*
X030709Y008010D01*
X030715Y008049D01*
X030725Y008087D01*
X030738Y008124D01*
X030755Y008159D01*
X030775Y008193D01*
X030799Y008224D01*
X030826Y008253D01*
X030855Y008279D01*
X030887Y008302D01*
X030921Y008322D01*
X030957Y008338D01*
X030994Y008350D01*
X031033Y008359D01*
X031072Y008364D01*
X031111Y008365D01*
X031150Y008362D01*
X031189Y008355D01*
X031226Y008344D01*
X031263Y008330D01*
X031298Y008312D01*
X031331Y008291D01*
X031362Y008266D01*
X031390Y008239D01*
X031415Y008209D01*
X031437Y008176D01*
X031456Y008142D01*
X031471Y008106D01*
X031483Y008068D01*
X031491Y008030D01*
X031495Y007991D01*
X031495Y007951D01*
X031491Y007912D01*
X031483Y007874D01*
X031471Y007836D01*
X031456Y007800D01*
X031437Y007766D01*
X031415Y007733D01*
X031390Y007703D01*
X031362Y007676D01*
X031331Y007651D01*
X031298Y007630D01*
X031263Y007612D01*
X031226Y007598D01*
X031189Y007587D01*
X031150Y007580D01*
X031111Y007577D01*
X031072Y007578D01*
X031033Y007583D01*
X030994Y007592D01*
X030957Y007604D01*
X030921Y007620D01*
X030887Y007640D01*
X030855Y007663D01*
X030826Y007689D01*
X030799Y007718D01*
X030775Y007749D01*
X030755Y007783D01*
X030738Y007818D01*
X030725Y007855D01*
X030715Y007893D01*
X030709Y007932D01*
X030707Y007971D01*
X038483Y009743D02*
X038485Y009782D01*
X038491Y009821D01*
X038501Y009859D01*
X038514Y009896D01*
X038531Y009931D01*
X038551Y009965D01*
X038575Y009996D01*
X038602Y010025D01*
X038631Y010051D01*
X038663Y010074D01*
X038697Y010094D01*
X038733Y010110D01*
X038770Y010122D01*
X038809Y010131D01*
X038848Y010136D01*
X038887Y010137D01*
X038926Y010134D01*
X038965Y010127D01*
X039002Y010116D01*
X039039Y010102D01*
X039074Y010084D01*
X039107Y010063D01*
X039138Y010038D01*
X039166Y010011D01*
X039191Y009981D01*
X039213Y009948D01*
X039232Y009914D01*
X039247Y009878D01*
X039259Y009840D01*
X039267Y009802D01*
X039271Y009763D01*
X039271Y009723D01*
X039267Y009684D01*
X039259Y009646D01*
X039247Y009608D01*
X039232Y009572D01*
X039213Y009538D01*
X039191Y009505D01*
X039166Y009475D01*
X039138Y009448D01*
X039107Y009423D01*
X039074Y009402D01*
X039039Y009384D01*
X039002Y009370D01*
X038965Y009359D01*
X038926Y009352D01*
X038887Y009349D01*
X038848Y009350D01*
X038809Y009355D01*
X038770Y009364D01*
X038733Y009376D01*
X038697Y009392D01*
X038663Y009412D01*
X038631Y009435D01*
X038602Y009461D01*
X038575Y009490D01*
X038551Y009521D01*
X038531Y009555D01*
X038514Y009590D01*
X038501Y009627D01*
X038491Y009665D01*
X038485Y009704D01*
X038483Y009743D01*
X045668Y009743D02*
X045670Y009782D01*
X045676Y009821D01*
X045686Y009859D01*
X045699Y009896D01*
X045716Y009931D01*
X045736Y009965D01*
X045760Y009996D01*
X045787Y010025D01*
X045816Y010051D01*
X045848Y010074D01*
X045882Y010094D01*
X045918Y010110D01*
X045955Y010122D01*
X045994Y010131D01*
X046033Y010136D01*
X046072Y010137D01*
X046111Y010134D01*
X046150Y010127D01*
X046187Y010116D01*
X046224Y010102D01*
X046259Y010084D01*
X046292Y010063D01*
X046323Y010038D01*
X046351Y010011D01*
X046376Y009981D01*
X046398Y009948D01*
X046417Y009914D01*
X046432Y009878D01*
X046444Y009840D01*
X046452Y009802D01*
X046456Y009763D01*
X046456Y009723D01*
X046452Y009684D01*
X046444Y009646D01*
X046432Y009608D01*
X046417Y009572D01*
X046398Y009538D01*
X046376Y009505D01*
X046351Y009475D01*
X046323Y009448D01*
X046292Y009423D01*
X046259Y009402D01*
X046224Y009384D01*
X046187Y009370D01*
X046150Y009359D01*
X046111Y009352D01*
X046072Y009349D01*
X046033Y009350D01*
X045994Y009355D01*
X045955Y009364D01*
X045918Y009376D01*
X045882Y009392D01*
X045848Y009412D01*
X045816Y009435D01*
X045787Y009461D01*
X045760Y009490D01*
X045736Y009521D01*
X045716Y009555D01*
X045699Y009590D01*
X045686Y009627D01*
X045676Y009665D01*
X045670Y009704D01*
X045668Y009743D01*
X042321Y013188D02*
X042323Y013227D01*
X042329Y013266D01*
X042339Y013304D01*
X042352Y013341D01*
X042369Y013376D01*
X042389Y013410D01*
X042413Y013441D01*
X042440Y013470D01*
X042469Y013496D01*
X042501Y013519D01*
X042535Y013539D01*
X042571Y013555D01*
X042608Y013567D01*
X042647Y013576D01*
X042686Y013581D01*
X042725Y013582D01*
X042764Y013579D01*
X042803Y013572D01*
X042840Y013561D01*
X042877Y013547D01*
X042912Y013529D01*
X042945Y013508D01*
X042976Y013483D01*
X043004Y013456D01*
X043029Y013426D01*
X043051Y013393D01*
X043070Y013359D01*
X043085Y013323D01*
X043097Y013285D01*
X043105Y013247D01*
X043109Y013208D01*
X043109Y013168D01*
X043105Y013129D01*
X043097Y013091D01*
X043085Y013053D01*
X043070Y013017D01*
X043051Y012983D01*
X043029Y012950D01*
X043004Y012920D01*
X042976Y012893D01*
X042945Y012868D01*
X042912Y012847D01*
X042877Y012829D01*
X042840Y012815D01*
X042803Y012804D01*
X042764Y012797D01*
X042725Y012794D01*
X042686Y012795D01*
X042647Y012800D01*
X042608Y012809D01*
X042571Y012821D01*
X042535Y012837D01*
X042501Y012857D01*
X042469Y012880D01*
X042440Y012906D01*
X042413Y012935D01*
X042389Y012966D01*
X042369Y013000D01*
X042352Y013035D01*
X042339Y013072D01*
X042329Y013110D01*
X042323Y013149D01*
X042321Y013188D01*
X042223Y006003D02*
X042225Y006042D01*
X042231Y006081D01*
X042241Y006119D01*
X042254Y006156D01*
X042271Y006191D01*
X042291Y006225D01*
X042315Y006256D01*
X042342Y006285D01*
X042371Y006311D01*
X042403Y006334D01*
X042437Y006354D01*
X042473Y006370D01*
X042510Y006382D01*
X042549Y006391D01*
X042588Y006396D01*
X042627Y006397D01*
X042666Y006394D01*
X042705Y006387D01*
X042742Y006376D01*
X042779Y006362D01*
X042814Y006344D01*
X042847Y006323D01*
X042878Y006298D01*
X042906Y006271D01*
X042931Y006241D01*
X042953Y006208D01*
X042972Y006174D01*
X042987Y006138D01*
X042999Y006100D01*
X043007Y006062D01*
X043011Y006023D01*
X043011Y005983D01*
X043007Y005944D01*
X042999Y005906D01*
X042987Y005868D01*
X042972Y005832D01*
X042953Y005798D01*
X042931Y005765D01*
X042906Y005735D01*
X042878Y005708D01*
X042847Y005683D01*
X042814Y005662D01*
X042779Y005644D01*
X042742Y005630D01*
X042705Y005619D01*
X042666Y005612D01*
X042627Y005609D01*
X042588Y005610D01*
X042549Y005615D01*
X042510Y005624D01*
X042473Y005636D01*
X042437Y005652D01*
X042403Y005672D01*
X042371Y005695D01*
X042342Y005721D01*
X042315Y005750D01*
X042291Y005781D01*
X042271Y005815D01*
X042254Y005850D01*
X042241Y005887D01*
X042231Y005925D01*
X042225Y005964D01*
X042223Y006003D01*
X009891Y013827D02*
X009893Y013866D01*
X009899Y013905D01*
X009909Y013943D01*
X009922Y013980D01*
X009939Y014015D01*
X009959Y014049D01*
X009983Y014080D01*
X010010Y014109D01*
X010039Y014135D01*
X010071Y014158D01*
X010105Y014178D01*
X010141Y014194D01*
X010178Y014206D01*
X010217Y014215D01*
X010256Y014220D01*
X010295Y014221D01*
X010334Y014218D01*
X010373Y014211D01*
X010410Y014200D01*
X010447Y014186D01*
X010482Y014168D01*
X010515Y014147D01*
X010546Y014122D01*
X010574Y014095D01*
X010599Y014065D01*
X010621Y014032D01*
X010640Y013998D01*
X010655Y013962D01*
X010667Y013924D01*
X010675Y013886D01*
X010679Y013847D01*
X010679Y013807D01*
X010675Y013768D01*
X010667Y013730D01*
X010655Y013692D01*
X010640Y013656D01*
X010621Y013622D01*
X010599Y013589D01*
X010574Y013559D01*
X010546Y013532D01*
X010515Y013507D01*
X010482Y013486D01*
X010447Y013468D01*
X010410Y013454D01*
X010373Y013443D01*
X010334Y013436D01*
X010295Y013433D01*
X010256Y013434D01*
X010217Y013439D01*
X010178Y013448D01*
X010141Y013460D01*
X010105Y013476D01*
X010071Y013496D01*
X010039Y013519D01*
X010010Y013545D01*
X009983Y013574D01*
X009959Y013605D01*
X009939Y013639D01*
X009922Y013674D01*
X009909Y013711D01*
X009899Y013749D01*
X009893Y013788D01*
X009891Y013827D01*
X004723Y009645D02*
X004725Y009684D01*
X004731Y009723D01*
X004741Y009761D01*
X004754Y009798D01*
X004771Y009833D01*
X004791Y009867D01*
X004815Y009898D01*
X004842Y009927D01*
X004871Y009953D01*
X004903Y009976D01*
X004937Y009996D01*
X004973Y010012D01*
X005010Y010024D01*
X005049Y010033D01*
X005088Y010038D01*
X005127Y010039D01*
X005166Y010036D01*
X005205Y010029D01*
X005242Y010018D01*
X005279Y010004D01*
X005314Y009986D01*
X005347Y009965D01*
X005378Y009940D01*
X005406Y009913D01*
X005431Y009883D01*
X005453Y009850D01*
X005472Y009816D01*
X005487Y009780D01*
X005499Y009742D01*
X005507Y009704D01*
X005511Y009665D01*
X005511Y009625D01*
X005507Y009586D01*
X005499Y009548D01*
X005487Y009510D01*
X005472Y009474D01*
X005453Y009440D01*
X005431Y009407D01*
X005406Y009377D01*
X005378Y009350D01*
X005347Y009325D01*
X005314Y009304D01*
X005279Y009286D01*
X005242Y009272D01*
X005205Y009261D01*
X005166Y009254D01*
X005127Y009251D01*
X005088Y009252D01*
X005049Y009257D01*
X005010Y009266D01*
X004973Y009278D01*
X004937Y009294D01*
X004903Y009314D01*
X004871Y009337D01*
X004842Y009363D01*
X004815Y009392D01*
X004791Y009423D01*
X004771Y009457D01*
X004754Y009492D01*
X004741Y009529D01*
X004731Y009567D01*
X004725Y009606D01*
X004723Y009645D01*
D15*
X030787Y018810D03*
X031613Y018810D03*
X031613Y019490D03*
X030787Y019490D03*
X030786Y020244D03*
X031613Y020244D03*
D16*
X021790Y019826D03*
X020668Y019826D03*
D17*
X054284Y014282D02*
X054286Y014321D01*
X054292Y014360D01*
X054302Y014398D01*
X054315Y014435D01*
X054332Y014470D01*
X054352Y014504D01*
X054376Y014535D01*
X054403Y014564D01*
X054432Y014590D01*
X054464Y014613D01*
X054498Y014633D01*
X054534Y014649D01*
X054571Y014661D01*
X054610Y014670D01*
X054649Y014675D01*
X054688Y014676D01*
X054727Y014673D01*
X054766Y014666D01*
X054803Y014655D01*
X054840Y014641D01*
X054875Y014623D01*
X054908Y014602D01*
X054939Y014577D01*
X054967Y014550D01*
X054992Y014520D01*
X055014Y014487D01*
X055033Y014453D01*
X055048Y014417D01*
X055060Y014379D01*
X055068Y014341D01*
X055072Y014302D01*
X055072Y014262D01*
X055068Y014223D01*
X055060Y014185D01*
X055048Y014147D01*
X055033Y014111D01*
X055014Y014077D01*
X054992Y014044D01*
X054967Y014014D01*
X054939Y013987D01*
X054908Y013962D01*
X054875Y013941D01*
X054840Y013923D01*
X054803Y013909D01*
X054766Y013898D01*
X054727Y013891D01*
X054688Y013888D01*
X054649Y013889D01*
X054610Y013894D01*
X054571Y013903D01*
X054534Y013915D01*
X054498Y013931D01*
X054464Y013951D01*
X054432Y013974D01*
X054403Y014000D01*
X054376Y014029D01*
X054352Y014060D01*
X054332Y014094D01*
X054315Y014129D01*
X054302Y014166D01*
X054292Y014204D01*
X054286Y014243D01*
X054284Y014282D01*
X054282Y005432D02*
X054284Y005471D01*
X054290Y005510D01*
X054300Y005548D01*
X054313Y005585D01*
X054330Y005620D01*
X054350Y005654D01*
X054374Y005685D01*
X054401Y005714D01*
X054430Y005740D01*
X054462Y005763D01*
X054496Y005783D01*
X054532Y005799D01*
X054569Y005811D01*
X054608Y005820D01*
X054647Y005825D01*
X054686Y005826D01*
X054725Y005823D01*
X054764Y005816D01*
X054801Y005805D01*
X054838Y005791D01*
X054873Y005773D01*
X054906Y005752D01*
X054937Y005727D01*
X054965Y005700D01*
X054990Y005670D01*
X055012Y005637D01*
X055031Y005603D01*
X055046Y005567D01*
X055058Y005529D01*
X055066Y005491D01*
X055070Y005452D01*
X055070Y005412D01*
X055066Y005373D01*
X055058Y005335D01*
X055046Y005297D01*
X055031Y005261D01*
X055012Y005227D01*
X054990Y005194D01*
X054965Y005164D01*
X054937Y005137D01*
X054906Y005112D01*
X054873Y005091D01*
X054838Y005073D01*
X054801Y005059D01*
X054764Y005048D01*
X054725Y005041D01*
X054686Y005038D01*
X054647Y005039D01*
X054608Y005044D01*
X054569Y005053D01*
X054532Y005065D01*
X054496Y005081D01*
X054462Y005101D01*
X054430Y005124D01*
X054401Y005150D01*
X054374Y005179D01*
X054350Y005210D01*
X054330Y005244D01*
X054313Y005279D01*
X054300Y005316D01*
X054290Y005354D01*
X054284Y005393D01*
X054282Y005432D01*
D18*
X053940Y001928D03*
X055440Y001928D03*
X055440Y009125D03*
X053940Y009125D03*
X053942Y010778D03*
X055442Y010778D03*
X055442Y017975D03*
X053942Y017975D03*
D19*
X026970Y018790D03*
X025190Y018790D03*
D20*
X024700Y017810D03*
X027460Y017810D03*
D21*
X030373Y019109D03*
X032027Y019109D03*
M02*
