%
M48
M72
T01C0.0100
T02C0.0120
T03C0.0160
T04C0.0180
T05C0.0197
T06C0.0200
T07C0.0276
T08C0.0315
T09C0.0400
T10C0.0590
T11C0.0827
T12C0.0850
T13C0.1102
%
T01
X28630Y11380
T02
X2630Y4430
X3130Y4430
X3130Y4930
X2630Y4930
X8280Y5530
X14365Y6615
X14778Y6620
X15360Y6620
X15360Y6270
X16380Y5930
X17150Y5930
X17530Y5930
X17800Y5660
X17980Y5330
X17980Y4960
X17010Y5330
X16810Y4960
X15830Y4880
X17980Y4430
X19580Y4960
X19700Y5330
X20980Y4400
X21630Y6130
X21990Y6120
X21630Y6830
X21980Y7110
X24080Y6580
X24080Y6280
X24840Y6190
X25740Y6190
X28630Y5530
X28930Y5330
X29230Y5130
X29550Y4930
X30030Y4700
X29480Y3380
X28980Y3380
X28980Y2880
X29480Y2880
X32530Y3560
X36680Y5050
X37280Y5330
X36980Y5630
X32530Y6080
X30030Y6580
X37280Y9280
X40680Y9580
X40680Y11880
X36730Y16530
X33200Y16630
X32570Y17360
X31830Y17380
X29380Y18280
X29080Y18030
X29380Y19880
X29780Y19880
X31580Y20130
X32780Y20230
X22880Y19730
X22880Y19430
X19630Y19430
X19630Y19730
X12080Y14230
X11600Y13080
X19660Y10330
X21060Y10360
X16780Y9830
X15430Y8080
X15980Y7740
X16130Y7280
X16480Y7280
X15780Y7280
X17230Y7980
X17580Y7980
X17480Y7630
X8280Y9530
X15680Y2430
X15930Y1880
X49430Y4430
X49930Y4430
X49930Y4930
X49430Y4930
T03
X32180Y15410
X36210Y16020
X36210Y16830
T04
X35380Y17230
T05
X32027Y19109
X30373Y19109
T06
X22330Y18880
X21180Y18830
X34230Y15780
T07
X21790Y19826
X20668Y19826
T08
X53942Y17975
X55442Y17975
X55442Y10778
X53942Y10778
X53940Y9125
X55440Y9125
X55440Y1928
X53940Y1928
T09
X26970Y18790
X25190Y18790
T10
X24700Y17810
X27460Y17810
T11
X15009Y14201
X5314Y4920
X37007Y3975
T12
X19680Y7230
T13
X28247Y7873
X31987Y12893
X25491Y14074
M30
