G75*
G70*
%OFA0B0*%
%FSLAX24Y24*%
%IPPOS*%
%LPD*%
%AMOC8*
5,1,8,0,0,1.08239X$1,22.5*
%
%ADD10C,0.0000*%
%ADD11C,0.0160*%
D10*
X004901Y004920D02*
X004903Y004960D01*
X004909Y005001D01*
X004919Y005040D01*
X004932Y005078D01*
X004950Y005115D01*
X004971Y005149D01*
X004995Y005182D01*
X005022Y005212D01*
X005052Y005239D01*
X005085Y005263D01*
X005119Y005284D01*
X005156Y005302D01*
X005194Y005315D01*
X005233Y005325D01*
X005274Y005331D01*
X005314Y005333D01*
X005354Y005331D01*
X005395Y005325D01*
X005434Y005315D01*
X005472Y005302D01*
X005509Y005284D01*
X005543Y005263D01*
X005576Y005239D01*
X005606Y005212D01*
X005633Y005182D01*
X005657Y005149D01*
X005678Y005115D01*
X005696Y005078D01*
X005709Y005040D01*
X005719Y005001D01*
X005725Y004960D01*
X005727Y004920D01*
X005725Y004880D01*
X005719Y004839D01*
X005709Y004800D01*
X005696Y004762D01*
X005678Y004725D01*
X005657Y004691D01*
X005633Y004658D01*
X005606Y004628D01*
X005576Y004601D01*
X005543Y004577D01*
X005509Y004556D01*
X005472Y004538D01*
X005434Y004525D01*
X005395Y004515D01*
X005354Y004509D01*
X005314Y004507D01*
X005274Y004509D01*
X005233Y004515D01*
X005194Y004525D01*
X005156Y004538D01*
X005119Y004556D01*
X005085Y004577D01*
X005052Y004601D01*
X005022Y004628D01*
X004995Y004658D01*
X004971Y004691D01*
X004950Y004725D01*
X004932Y004762D01*
X004919Y004800D01*
X004909Y004839D01*
X004903Y004880D01*
X004901Y004920D01*
X024940Y014074D02*
X024942Y014121D01*
X024948Y014167D01*
X024958Y014213D01*
X024971Y014258D01*
X024989Y014301D01*
X025010Y014343D01*
X025034Y014383D01*
X025062Y014420D01*
X025093Y014455D01*
X025127Y014488D01*
X025163Y014517D01*
X025202Y014543D01*
X025243Y014566D01*
X025286Y014585D01*
X025330Y014601D01*
X025375Y014613D01*
X025421Y014621D01*
X025468Y014625D01*
X025514Y014625D01*
X025561Y014621D01*
X025607Y014613D01*
X025652Y014601D01*
X025696Y014585D01*
X025739Y014566D01*
X025780Y014543D01*
X025819Y014517D01*
X025855Y014488D01*
X025889Y014455D01*
X025920Y014420D01*
X025948Y014383D01*
X025972Y014343D01*
X025993Y014301D01*
X026011Y014258D01*
X026024Y014213D01*
X026034Y014167D01*
X026040Y014121D01*
X026042Y014074D01*
X026040Y014027D01*
X026034Y013981D01*
X026024Y013935D01*
X026011Y013890D01*
X025993Y013847D01*
X025972Y013805D01*
X025948Y013765D01*
X025920Y013728D01*
X025889Y013693D01*
X025855Y013660D01*
X025819Y013631D01*
X025780Y013605D01*
X025739Y013582D01*
X025696Y013563D01*
X025652Y013547D01*
X025607Y013535D01*
X025561Y013527D01*
X025514Y013523D01*
X025468Y013523D01*
X025421Y013527D01*
X025375Y013535D01*
X025330Y013547D01*
X025286Y013563D01*
X025243Y013582D01*
X025202Y013605D01*
X025163Y013631D01*
X025127Y013660D01*
X025093Y013693D01*
X025062Y013728D01*
X025034Y013765D01*
X025010Y013805D01*
X024989Y013847D01*
X024971Y013890D01*
X024958Y013935D01*
X024948Y013981D01*
X024942Y014027D01*
X024940Y014074D01*
X031436Y012893D02*
X031438Y012940D01*
X031444Y012986D01*
X031454Y013032D01*
X031467Y013077D01*
X031485Y013120D01*
X031506Y013162D01*
X031530Y013202D01*
X031558Y013239D01*
X031589Y013274D01*
X031623Y013307D01*
X031659Y013336D01*
X031698Y013362D01*
X031739Y013385D01*
X031782Y013404D01*
X031826Y013420D01*
X031871Y013432D01*
X031917Y013440D01*
X031964Y013444D01*
X032010Y013444D01*
X032057Y013440D01*
X032103Y013432D01*
X032148Y013420D01*
X032192Y013404D01*
X032235Y013385D01*
X032276Y013362D01*
X032315Y013336D01*
X032351Y013307D01*
X032385Y013274D01*
X032416Y013239D01*
X032444Y013202D01*
X032468Y013162D01*
X032489Y013120D01*
X032507Y013077D01*
X032520Y013032D01*
X032530Y012986D01*
X032536Y012940D01*
X032538Y012893D01*
X032536Y012846D01*
X032530Y012800D01*
X032520Y012754D01*
X032507Y012709D01*
X032489Y012666D01*
X032468Y012624D01*
X032444Y012584D01*
X032416Y012547D01*
X032385Y012512D01*
X032351Y012479D01*
X032315Y012450D01*
X032276Y012424D01*
X032235Y012401D01*
X032192Y012382D01*
X032148Y012366D01*
X032103Y012354D01*
X032057Y012346D01*
X032010Y012342D01*
X031964Y012342D01*
X031917Y012346D01*
X031871Y012354D01*
X031826Y012366D01*
X031782Y012382D01*
X031739Y012401D01*
X031698Y012424D01*
X031659Y012450D01*
X031623Y012479D01*
X031589Y012512D01*
X031558Y012547D01*
X031530Y012584D01*
X031506Y012624D01*
X031485Y012666D01*
X031467Y012709D01*
X031454Y012754D01*
X031444Y012800D01*
X031438Y012846D01*
X031436Y012893D01*
X027696Y007873D02*
X027698Y007920D01*
X027704Y007966D01*
X027714Y008012D01*
X027727Y008057D01*
X027745Y008100D01*
X027766Y008142D01*
X027790Y008182D01*
X027818Y008219D01*
X027849Y008254D01*
X027883Y008287D01*
X027919Y008316D01*
X027958Y008342D01*
X027999Y008365D01*
X028042Y008384D01*
X028086Y008400D01*
X028131Y008412D01*
X028177Y008420D01*
X028224Y008424D01*
X028270Y008424D01*
X028317Y008420D01*
X028363Y008412D01*
X028408Y008400D01*
X028452Y008384D01*
X028495Y008365D01*
X028536Y008342D01*
X028575Y008316D01*
X028611Y008287D01*
X028645Y008254D01*
X028676Y008219D01*
X028704Y008182D01*
X028728Y008142D01*
X028749Y008100D01*
X028767Y008057D01*
X028780Y008012D01*
X028790Y007966D01*
X028796Y007920D01*
X028798Y007873D01*
X028796Y007826D01*
X028790Y007780D01*
X028780Y007734D01*
X028767Y007689D01*
X028749Y007646D01*
X028728Y007604D01*
X028704Y007564D01*
X028676Y007527D01*
X028645Y007492D01*
X028611Y007459D01*
X028575Y007430D01*
X028536Y007404D01*
X028495Y007381D01*
X028452Y007362D01*
X028408Y007346D01*
X028363Y007334D01*
X028317Y007326D01*
X028270Y007322D01*
X028224Y007322D01*
X028177Y007326D01*
X028131Y007334D01*
X028086Y007346D01*
X028042Y007362D01*
X027999Y007381D01*
X027958Y007404D01*
X027919Y007430D01*
X027883Y007459D01*
X027849Y007492D01*
X027818Y007527D01*
X027790Y007564D01*
X027766Y007604D01*
X027745Y007646D01*
X027727Y007689D01*
X027714Y007734D01*
X027704Y007780D01*
X027698Y007826D01*
X027696Y007873D01*
X036594Y003975D02*
X036596Y004015D01*
X036602Y004056D01*
X036612Y004095D01*
X036625Y004133D01*
X036643Y004170D01*
X036664Y004204D01*
X036688Y004237D01*
X036715Y004267D01*
X036745Y004294D01*
X036778Y004318D01*
X036812Y004339D01*
X036849Y004357D01*
X036887Y004370D01*
X036926Y004380D01*
X036967Y004386D01*
X037007Y004388D01*
X037047Y004386D01*
X037088Y004380D01*
X037127Y004370D01*
X037165Y004357D01*
X037202Y004339D01*
X037236Y004318D01*
X037269Y004294D01*
X037299Y004267D01*
X037326Y004237D01*
X037350Y004204D01*
X037371Y004170D01*
X037389Y004133D01*
X037402Y004095D01*
X037412Y004056D01*
X037418Y004015D01*
X037420Y003975D01*
X037418Y003935D01*
X037412Y003894D01*
X037402Y003855D01*
X037389Y003817D01*
X037371Y003780D01*
X037350Y003746D01*
X037326Y003713D01*
X037299Y003683D01*
X037269Y003656D01*
X037236Y003632D01*
X037202Y003611D01*
X037165Y003593D01*
X037127Y003580D01*
X037088Y003570D01*
X037047Y003564D01*
X037007Y003562D01*
X036967Y003564D01*
X036926Y003570D01*
X036887Y003580D01*
X036849Y003593D01*
X036812Y003611D01*
X036778Y003632D01*
X036745Y003656D01*
X036715Y003683D01*
X036688Y003713D01*
X036664Y003746D01*
X036643Y003780D01*
X036625Y003817D01*
X036612Y003855D01*
X036602Y003894D01*
X036596Y003935D01*
X036594Y003975D01*
X014596Y014201D02*
X014598Y014241D01*
X014604Y014282D01*
X014614Y014321D01*
X014627Y014359D01*
X014645Y014396D01*
X014666Y014430D01*
X014690Y014463D01*
X014717Y014493D01*
X014747Y014520D01*
X014780Y014544D01*
X014814Y014565D01*
X014851Y014583D01*
X014889Y014596D01*
X014928Y014606D01*
X014969Y014612D01*
X015009Y014614D01*
X015049Y014612D01*
X015090Y014606D01*
X015129Y014596D01*
X015167Y014583D01*
X015204Y014565D01*
X015238Y014544D01*
X015271Y014520D01*
X015301Y014493D01*
X015328Y014463D01*
X015352Y014430D01*
X015373Y014396D01*
X015391Y014359D01*
X015404Y014321D01*
X015414Y014282D01*
X015420Y014241D01*
X015422Y014201D01*
X015420Y014161D01*
X015414Y014120D01*
X015404Y014081D01*
X015391Y014043D01*
X015373Y014006D01*
X015352Y013972D01*
X015328Y013939D01*
X015301Y013909D01*
X015271Y013882D01*
X015238Y013858D01*
X015204Y013837D01*
X015167Y013819D01*
X015129Y013806D01*
X015090Y013796D01*
X015049Y013790D01*
X015009Y013788D01*
X014969Y013790D01*
X014928Y013796D01*
X014889Y013806D01*
X014851Y013819D01*
X014814Y013837D01*
X014780Y013858D01*
X014747Y013882D01*
X014717Y013909D01*
X014690Y013939D01*
X014666Y013972D01*
X014645Y014006D01*
X014627Y014043D01*
X014614Y014081D01*
X014604Y014120D01*
X014598Y014161D01*
X014596Y014201D01*
X020530Y019826D02*
X020532Y019849D01*
X020538Y019872D01*
X020548Y019893D01*
X020561Y019913D01*
X020577Y019930D01*
X020596Y019944D01*
X020617Y019954D01*
X020639Y019961D01*
X020662Y019964D01*
X020686Y019963D01*
X020708Y019958D01*
X020730Y019949D01*
X020750Y019937D01*
X020768Y019921D01*
X020782Y019903D01*
X020794Y019883D01*
X020802Y019861D01*
X020806Y019838D01*
X020806Y019814D01*
X020802Y019791D01*
X020794Y019769D01*
X020782Y019749D01*
X020768Y019731D01*
X020750Y019715D01*
X020730Y019703D01*
X020708Y019694D01*
X020686Y019689D01*
X020662Y019688D01*
X020639Y019691D01*
X020617Y019698D01*
X020596Y019708D01*
X020577Y019722D01*
X020561Y019739D01*
X020548Y019759D01*
X020538Y019780D01*
X020532Y019803D01*
X020530Y019826D01*
X021652Y019826D02*
X021654Y019849D01*
X021660Y019872D01*
X021670Y019893D01*
X021683Y019913D01*
X021699Y019930D01*
X021718Y019944D01*
X021739Y019954D01*
X021761Y019961D01*
X021784Y019964D01*
X021808Y019963D01*
X021830Y019958D01*
X021852Y019949D01*
X021872Y019937D01*
X021890Y019921D01*
X021904Y019903D01*
X021916Y019883D01*
X021924Y019861D01*
X021928Y019838D01*
X021928Y019814D01*
X021924Y019791D01*
X021916Y019769D01*
X021904Y019749D01*
X021890Y019731D01*
X021872Y019715D01*
X021852Y019703D01*
X021830Y019694D01*
X021808Y019689D01*
X021784Y019688D01*
X021761Y019691D01*
X021739Y019698D01*
X021718Y019708D01*
X021699Y019722D01*
X021683Y019739D01*
X021670Y019759D01*
X021660Y019780D01*
X021654Y019803D01*
X021652Y019826D01*
X030275Y019109D02*
X030277Y019128D01*
X030282Y019147D01*
X030292Y019163D01*
X030304Y019178D01*
X030319Y019190D01*
X030335Y019200D01*
X030354Y019205D01*
X030373Y019207D01*
X030392Y019205D01*
X030411Y019200D01*
X030427Y019190D01*
X030442Y019178D01*
X030454Y019163D01*
X030464Y019147D01*
X030469Y019128D01*
X030471Y019109D01*
X030469Y019090D01*
X030464Y019071D01*
X030454Y019055D01*
X030442Y019040D01*
X030427Y019028D01*
X030411Y019018D01*
X030392Y019013D01*
X030373Y019011D01*
X030354Y019013D01*
X030335Y019018D01*
X030319Y019028D01*
X030304Y019040D01*
X030292Y019055D01*
X030282Y019071D01*
X030277Y019090D01*
X030275Y019109D01*
X031929Y019109D02*
X031931Y019128D01*
X031936Y019147D01*
X031946Y019163D01*
X031958Y019178D01*
X031973Y019190D01*
X031989Y019200D01*
X032008Y019205D01*
X032027Y019207D01*
X032046Y019205D01*
X032065Y019200D01*
X032081Y019190D01*
X032096Y019178D01*
X032108Y019163D01*
X032118Y019147D01*
X032123Y019128D01*
X032125Y019109D01*
X032123Y019090D01*
X032118Y019071D01*
X032108Y019055D01*
X032096Y019040D01*
X032081Y019028D01*
X032065Y019018D01*
X032046Y019013D01*
X032027Y019011D01*
X032008Y019013D01*
X031989Y019018D01*
X031973Y019028D01*
X031958Y019040D01*
X031946Y019055D01*
X031936Y019071D01*
X031931Y019090D01*
X031929Y019109D01*
D11*
X003900Y001750D02*
X003710Y001840D01*
X003550Y001920D01*
X003350Y002040D01*
X003110Y002200D01*
X002880Y002380D01*
X002660Y002570D01*
X002550Y002680D01*
X002400Y002840D01*
X002280Y002980D01*
X002180Y003110D01*
X002060Y003270D01*
X001960Y003420D01*
X001830Y003650D01*
X001710Y003870D01*
X001640Y004030D01*
X001520Y004350D01*
X001430Y004660D01*
X001380Y004870D01*
X001350Y005040D01*
X001310Y005290D01*
X001280Y005800D01*
X002120Y005810D01*
X002210Y005810D01*
X002260Y005820D01*
X002350Y005840D01*
X002460Y005880D01*
X002560Y005930D01*
X002660Y006000D01*
X002750Y006100D01*
X002820Y006190D01*
X002870Y006280D01*
X002900Y006340D01*
X002940Y006470D01*
X002950Y006590D01*
X002950Y007100D01*
X002930Y007230D01*
X002920Y007270D01*
X002870Y007410D01*
X002720Y007620D01*
X002620Y007710D01*
X002490Y007790D01*
X002370Y007840D01*
X002190Y007870D01*
X001280Y007870D01*
X001280Y013880D01*
X002490Y014240D01*
X002570Y013850D01*
X002680Y013640D01*
X002830Y013500D01*
X002940Y013430D01*
X003110Y013370D01*
X003260Y013360D01*
X003480Y013400D01*
X003640Y013480D01*
X003760Y013570D01*
X003850Y013700D01*
X003920Y013830D01*
X003960Y014020D01*
X003950Y014160D01*
X003930Y014280D01*
X003840Y014550D01*
X003820Y014660D01*
X006460Y015470D01*
X006600Y015510D01*
X007560Y015790D01*
X012780Y017320D01*
X012980Y016640D01*
X013000Y016570D01*
X013020Y016490D01*
X013050Y016410D01*
X013140Y016230D01*
X013170Y016190D01*
X013220Y016120D01*
X013260Y016070D01*
X013340Y015990D01*
X013400Y015940D01*
X013450Y015900D01*
X013560Y015830D01*
X013610Y015800D01*
X013690Y015770D01*
X013790Y015730D01*
X013860Y015710D01*
X013910Y015700D01*
X013980Y015690D01*
X014020Y015690D01*
X014160Y015680D01*
X014320Y015700D01*
X014410Y015720D01*
X014490Y015740D01*
X014570Y015770D01*
X014720Y015850D01*
X014790Y015890D01*
X014840Y015930D01*
X014960Y016040D01*
X015050Y016150D01*
X015130Y016280D01*
X015180Y016370D01*
X015230Y016520D01*
X015260Y016650D01*
X015270Y016740D01*
X015270Y016950D01*
X015130Y017430D01*
X014960Y018010D01*
X015260Y018110D01*
X017860Y018110D01*
X018060Y018130D01*
X018190Y018170D01*
X018350Y018230D01*
X018510Y018330D01*
X018630Y018430D01*
X018720Y018530D01*
X018810Y018650D01*
X018900Y018820D01*
X018960Y019000D01*
X018990Y019110D01*
X019000Y019160D01*
X019000Y020376D01*
X023320Y020376D01*
X023340Y020282D01*
X023350Y020260D01*
X023400Y020130D01*
X023460Y020040D01*
X023550Y019940D01*
X023630Y019880D01*
X023750Y019820D01*
X023860Y019790D01*
X023940Y019780D01*
X028140Y019780D01*
X028270Y019800D01*
X028390Y019840D01*
X028490Y019890D01*
X028570Y019950D01*
X028670Y020050D01*
X028710Y020100D01*
X028770Y020210D01*
X028800Y020290D01*
X028820Y020350D01*
X028830Y020410D01*
X028840Y020770D01*
X033560Y020770D01*
X033560Y019200D01*
X033600Y018980D01*
X033650Y018850D01*
X033690Y018760D01*
X033750Y018660D01*
X033820Y018560D01*
X033930Y018440D01*
X034020Y018360D01*
X034160Y018270D01*
X034270Y018210D01*
X034370Y018170D01*
X034480Y018140D01*
X034580Y018120D01*
X034750Y018110D01*
X037310Y018110D01*
X037600Y018010D01*
X037290Y017190D01*
X037270Y017060D01*
X037260Y016910D01*
X037270Y016790D01*
X037300Y016630D01*
X037330Y016540D01*
X037340Y016490D01*
X037390Y016390D01*
X037490Y016220D01*
X037610Y016070D01*
X037690Y016000D01*
X037830Y015900D01*
X037980Y015810D01*
X038190Y015750D01*
X038330Y015720D01*
X038400Y015710D01*
X038520Y015710D01*
X038630Y015720D01*
X038750Y015740D01*
X038860Y015770D01*
X038940Y015800D01*
X039030Y015840D01*
X039130Y015900D01*
X039220Y015960D01*
X039300Y016030D01*
X039370Y016090D01*
X039430Y016160D01*
X039470Y016210D01*
X039570Y016370D01*
X039600Y016440D01*
X039880Y017130D01*
X045080Y015560D01*
X046090Y015270D01*
X048980Y014450D01*
X048890Y014030D01*
X048910Y013810D01*
X048980Y013640D01*
X049080Y013490D01*
X049200Y013390D01*
X049320Y013320D01*
X049490Y013270D01*
X049700Y013270D01*
X049920Y013330D01*
X050090Y013450D01*
X050170Y013540D01*
X050280Y013730D01*
X050360Y014050D01*
X051270Y013780D01*
X051270Y012040D01*
X051840Y012040D01*
X051840Y018508D01*
X057352Y018508D01*
X057352Y010240D01*
X051840Y010240D01*
X051840Y010520D01*
X051270Y010520D01*
X051270Y009370D01*
X051840Y009370D01*
X051840Y009648D01*
X057352Y009648D01*
X057352Y001380D01*
X051840Y001380D01*
X051840Y007870D01*
X050430Y007870D01*
X050340Y007860D01*
X050260Y007840D01*
X050170Y007810D01*
X050050Y007740D01*
X049960Y007670D01*
X049880Y007590D01*
X049800Y007460D01*
X049740Y007330D01*
X049710Y007210D01*
X049700Y006550D01*
X049720Y006410D01*
X049800Y006210D01*
X049870Y006100D01*
X050030Y005960D01*
X050120Y005900D01*
X050290Y005830D01*
X050370Y005810D01*
X051200Y005810D01*
X051200Y005080D01*
X051180Y004900D01*
X051140Y004730D01*
X051020Y004340D01*
X050940Y004130D01*
X050880Y003990D01*
X050770Y003770D01*
X050620Y003510D01*
X050470Y003280D01*
X050090Y002810D01*
X049970Y002690D01*
X049770Y002500D01*
X049620Y002370D01*
X049520Y002290D01*
X049340Y002160D01*
X049230Y002090D01*
X049100Y002010D01*
X048980Y001940D01*
X048770Y001830D01*
X048640Y001770D01*
X048460Y001690D01*
X048260Y001620D01*
X048070Y001560D01*
X047810Y001490D01*
X047600Y001450D01*
X047270Y001400D01*
X047120Y001390D01*
X046940Y001380D01*
X027460Y001380D01*
X027460Y002840D01*
X027420Y002990D01*
X027390Y003070D01*
X027340Y003170D01*
X027220Y003320D01*
X027110Y003410D01*
X027000Y003470D01*
X026880Y003510D01*
X026810Y003530D01*
X026740Y003540D01*
X025940Y003540D01*
X025820Y003530D01*
X025730Y003500D01*
X025630Y003460D01*
X025540Y003410D01*
X025460Y003350D01*
X025370Y003250D01*
X025290Y003140D01*
X025260Y003070D01*
X025240Y003020D01*
X025210Y002900D01*
X025190Y002810D01*
X025190Y001380D01*
X005470Y001380D01*
X005240Y001400D01*
X005000Y001430D01*
X004560Y001520D01*
X004320Y001590D01*
X004100Y001670D01*
X003900Y001750D01*
M02*
