G75*
G70*
%OFA0B0*%
%FSLAX24Y24*%
%IPPOS*%
%LPD*%
%AMOC8*
5,1,8,0,0,1.08239X$1,22.5*
%
%ADD10C,0.0000*%
%ADD11C,0.0160*%
%ADD12R,0.1181X0.1181*%
%ADD13C,0.1181*%
%ADD14R,0.0591X0.0591*%
%ADD15R,0.0472X0.0217*%
%ADD16R,0.0551X0.1000*%
%ADD17R,0.0236X0.0551*%
%ADD18OC8,0.0660*%
%ADD19OC8,0.0600*%
%ADD20C,0.0885*%
%ADD21R,0.2756X0.0394*%
%ADD22R,0.0157X0.1594*%
%ADD23R,0.4134X0.0591*%
%ADD24R,0.0118X0.2362*%
%ADD25R,0.0118X0.2953*%
%ADD26R,0.0098X0.0098*%
%ADD27R,0.0394X0.0512*%
%ADD28R,0.1713X0.1713*%
%ADD29R,0.0472X0.0080*%
%ADD30R,0.0080X0.0472*%
%ADD31R,0.0138X0.0512*%
%ADD32R,0.0433X0.0394*%
%ADD33R,0.0394X0.0433*%
%ADD34R,0.0551X0.0630*%
%ADD35R,0.0630X0.0709*%
%ADD36R,0.0433X0.0453*%
%ADD37R,0.0177X0.0984*%
%ADD38R,0.1378X0.0748*%
%ADD39C,0.0180*%
%ADD40C,0.1250*%
%ADD41C,0.0280*%
%ADD42C,0.0120*%
%ADD43C,0.0200*%
%ADD44C,0.0250*%
%ADD45C,0.0240*%
%ADD46C,0.0080*%
%ADD47C,0.0300*%
%ADD48C,0.0320*%
%ADD49C,0.0240*%
%ADD50C,0.0100*%
%ADD51C,0.0220*%
D10*
X004901Y004920D02*
X004903Y004960D01*
X004909Y005001D01*
X004919Y005040D01*
X004932Y005078D01*
X004950Y005115D01*
X004971Y005149D01*
X004995Y005182D01*
X005022Y005212D01*
X005052Y005239D01*
X005085Y005263D01*
X005119Y005284D01*
X005156Y005302D01*
X005194Y005315D01*
X005233Y005325D01*
X005274Y005331D01*
X005314Y005333D01*
X005354Y005331D01*
X005395Y005325D01*
X005434Y005315D01*
X005472Y005302D01*
X005509Y005284D01*
X005543Y005263D01*
X005576Y005239D01*
X005606Y005212D01*
X005633Y005182D01*
X005657Y005149D01*
X005678Y005115D01*
X005696Y005078D01*
X005709Y005040D01*
X005719Y005001D01*
X005725Y004960D01*
X005727Y004920D01*
X005725Y004880D01*
X005719Y004839D01*
X005709Y004800D01*
X005696Y004762D01*
X005678Y004725D01*
X005657Y004691D01*
X005633Y004658D01*
X005606Y004628D01*
X005576Y004601D01*
X005543Y004577D01*
X005509Y004556D01*
X005472Y004538D01*
X005434Y004525D01*
X005395Y004515D01*
X005354Y004509D01*
X005314Y004507D01*
X005274Y004509D01*
X005233Y004515D01*
X005194Y004525D01*
X005156Y004538D01*
X005119Y004556D01*
X005085Y004577D01*
X005052Y004601D01*
X005022Y004628D01*
X004995Y004658D01*
X004971Y004691D01*
X004950Y004725D01*
X004932Y004762D01*
X004919Y004800D01*
X004909Y004839D01*
X004903Y004880D01*
X004901Y004920D01*
X024940Y014074D02*
X024942Y014121D01*
X024948Y014167D01*
X024958Y014213D01*
X024971Y014258D01*
X024989Y014301D01*
X025010Y014343D01*
X025034Y014383D01*
X025062Y014420D01*
X025093Y014455D01*
X025127Y014488D01*
X025163Y014517D01*
X025202Y014543D01*
X025243Y014566D01*
X025286Y014585D01*
X025330Y014601D01*
X025375Y014613D01*
X025421Y014621D01*
X025468Y014625D01*
X025514Y014625D01*
X025561Y014621D01*
X025607Y014613D01*
X025652Y014601D01*
X025696Y014585D01*
X025739Y014566D01*
X025780Y014543D01*
X025819Y014517D01*
X025855Y014488D01*
X025889Y014455D01*
X025920Y014420D01*
X025948Y014383D01*
X025972Y014343D01*
X025993Y014301D01*
X026011Y014258D01*
X026024Y014213D01*
X026034Y014167D01*
X026040Y014121D01*
X026042Y014074D01*
X026040Y014027D01*
X026034Y013981D01*
X026024Y013935D01*
X026011Y013890D01*
X025993Y013847D01*
X025972Y013805D01*
X025948Y013765D01*
X025920Y013728D01*
X025889Y013693D01*
X025855Y013660D01*
X025819Y013631D01*
X025780Y013605D01*
X025739Y013582D01*
X025696Y013563D01*
X025652Y013547D01*
X025607Y013535D01*
X025561Y013527D01*
X025514Y013523D01*
X025468Y013523D01*
X025421Y013527D01*
X025375Y013535D01*
X025330Y013547D01*
X025286Y013563D01*
X025243Y013582D01*
X025202Y013605D01*
X025163Y013631D01*
X025127Y013660D01*
X025093Y013693D01*
X025062Y013728D01*
X025034Y013765D01*
X025010Y013805D01*
X024989Y013847D01*
X024971Y013890D01*
X024958Y013935D01*
X024948Y013981D01*
X024942Y014027D01*
X024940Y014074D01*
X031436Y012893D02*
X031438Y012940D01*
X031444Y012986D01*
X031454Y013032D01*
X031467Y013077D01*
X031485Y013120D01*
X031506Y013162D01*
X031530Y013202D01*
X031558Y013239D01*
X031589Y013274D01*
X031623Y013307D01*
X031659Y013336D01*
X031698Y013362D01*
X031739Y013385D01*
X031782Y013404D01*
X031826Y013420D01*
X031871Y013432D01*
X031917Y013440D01*
X031964Y013444D01*
X032010Y013444D01*
X032057Y013440D01*
X032103Y013432D01*
X032148Y013420D01*
X032192Y013404D01*
X032235Y013385D01*
X032276Y013362D01*
X032315Y013336D01*
X032351Y013307D01*
X032385Y013274D01*
X032416Y013239D01*
X032444Y013202D01*
X032468Y013162D01*
X032489Y013120D01*
X032507Y013077D01*
X032520Y013032D01*
X032530Y012986D01*
X032536Y012940D01*
X032538Y012893D01*
X032536Y012846D01*
X032530Y012800D01*
X032520Y012754D01*
X032507Y012709D01*
X032489Y012666D01*
X032468Y012624D01*
X032444Y012584D01*
X032416Y012547D01*
X032385Y012512D01*
X032351Y012479D01*
X032315Y012450D01*
X032276Y012424D01*
X032235Y012401D01*
X032192Y012382D01*
X032148Y012366D01*
X032103Y012354D01*
X032057Y012346D01*
X032010Y012342D01*
X031964Y012342D01*
X031917Y012346D01*
X031871Y012354D01*
X031826Y012366D01*
X031782Y012382D01*
X031739Y012401D01*
X031698Y012424D01*
X031659Y012450D01*
X031623Y012479D01*
X031589Y012512D01*
X031558Y012547D01*
X031530Y012584D01*
X031506Y012624D01*
X031485Y012666D01*
X031467Y012709D01*
X031454Y012754D01*
X031444Y012800D01*
X031438Y012846D01*
X031436Y012893D01*
X027696Y007873D02*
X027698Y007920D01*
X027704Y007966D01*
X027714Y008012D01*
X027727Y008057D01*
X027745Y008100D01*
X027766Y008142D01*
X027790Y008182D01*
X027818Y008219D01*
X027849Y008254D01*
X027883Y008287D01*
X027919Y008316D01*
X027958Y008342D01*
X027999Y008365D01*
X028042Y008384D01*
X028086Y008400D01*
X028131Y008412D01*
X028177Y008420D01*
X028224Y008424D01*
X028270Y008424D01*
X028317Y008420D01*
X028363Y008412D01*
X028408Y008400D01*
X028452Y008384D01*
X028495Y008365D01*
X028536Y008342D01*
X028575Y008316D01*
X028611Y008287D01*
X028645Y008254D01*
X028676Y008219D01*
X028704Y008182D01*
X028728Y008142D01*
X028749Y008100D01*
X028767Y008057D01*
X028780Y008012D01*
X028790Y007966D01*
X028796Y007920D01*
X028798Y007873D01*
X028796Y007826D01*
X028790Y007780D01*
X028780Y007734D01*
X028767Y007689D01*
X028749Y007646D01*
X028728Y007604D01*
X028704Y007564D01*
X028676Y007527D01*
X028645Y007492D01*
X028611Y007459D01*
X028575Y007430D01*
X028536Y007404D01*
X028495Y007381D01*
X028452Y007362D01*
X028408Y007346D01*
X028363Y007334D01*
X028317Y007326D01*
X028270Y007322D01*
X028224Y007322D01*
X028177Y007326D01*
X028131Y007334D01*
X028086Y007346D01*
X028042Y007362D01*
X027999Y007381D01*
X027958Y007404D01*
X027919Y007430D01*
X027883Y007459D01*
X027849Y007492D01*
X027818Y007527D01*
X027790Y007564D01*
X027766Y007604D01*
X027745Y007646D01*
X027727Y007689D01*
X027714Y007734D01*
X027704Y007780D01*
X027698Y007826D01*
X027696Y007873D01*
X036594Y003975D02*
X036596Y004015D01*
X036602Y004056D01*
X036612Y004095D01*
X036625Y004133D01*
X036643Y004170D01*
X036664Y004204D01*
X036688Y004237D01*
X036715Y004267D01*
X036745Y004294D01*
X036778Y004318D01*
X036812Y004339D01*
X036849Y004357D01*
X036887Y004370D01*
X036926Y004380D01*
X036967Y004386D01*
X037007Y004388D01*
X037047Y004386D01*
X037088Y004380D01*
X037127Y004370D01*
X037165Y004357D01*
X037202Y004339D01*
X037236Y004318D01*
X037269Y004294D01*
X037299Y004267D01*
X037326Y004237D01*
X037350Y004204D01*
X037371Y004170D01*
X037389Y004133D01*
X037402Y004095D01*
X037412Y004056D01*
X037418Y004015D01*
X037420Y003975D01*
X037418Y003935D01*
X037412Y003894D01*
X037402Y003855D01*
X037389Y003817D01*
X037371Y003780D01*
X037350Y003746D01*
X037326Y003713D01*
X037299Y003683D01*
X037269Y003656D01*
X037236Y003632D01*
X037202Y003611D01*
X037165Y003593D01*
X037127Y003580D01*
X037088Y003570D01*
X037047Y003564D01*
X037007Y003562D01*
X036967Y003564D01*
X036926Y003570D01*
X036887Y003580D01*
X036849Y003593D01*
X036812Y003611D01*
X036778Y003632D01*
X036745Y003656D01*
X036715Y003683D01*
X036688Y003713D01*
X036664Y003746D01*
X036643Y003780D01*
X036625Y003817D01*
X036612Y003855D01*
X036602Y003894D01*
X036596Y003935D01*
X036594Y003975D01*
X014596Y014201D02*
X014598Y014241D01*
X014604Y014282D01*
X014614Y014321D01*
X014627Y014359D01*
X014645Y014396D01*
X014666Y014430D01*
X014690Y014463D01*
X014717Y014493D01*
X014747Y014520D01*
X014780Y014544D01*
X014814Y014565D01*
X014851Y014583D01*
X014889Y014596D01*
X014928Y014606D01*
X014969Y014612D01*
X015009Y014614D01*
X015049Y014612D01*
X015090Y014606D01*
X015129Y014596D01*
X015167Y014583D01*
X015204Y014565D01*
X015238Y014544D01*
X015271Y014520D01*
X015301Y014493D01*
X015328Y014463D01*
X015352Y014430D01*
X015373Y014396D01*
X015391Y014359D01*
X015404Y014321D01*
X015414Y014282D01*
X015420Y014241D01*
X015422Y014201D01*
X015420Y014161D01*
X015414Y014120D01*
X015404Y014081D01*
X015391Y014043D01*
X015373Y014006D01*
X015352Y013972D01*
X015328Y013939D01*
X015301Y013909D01*
X015271Y013882D01*
X015238Y013858D01*
X015204Y013837D01*
X015167Y013819D01*
X015129Y013806D01*
X015090Y013796D01*
X015049Y013790D01*
X015009Y013788D01*
X014969Y013790D01*
X014928Y013796D01*
X014889Y013806D01*
X014851Y013819D01*
X014814Y013837D01*
X014780Y013858D01*
X014747Y013882D01*
X014717Y013909D01*
X014690Y013939D01*
X014666Y013972D01*
X014645Y014006D01*
X014627Y014043D01*
X014614Y014081D01*
X014604Y014120D01*
X014598Y014161D01*
X014596Y014201D01*
X020530Y019826D02*
X020532Y019849D01*
X020538Y019872D01*
X020548Y019893D01*
X020561Y019913D01*
X020577Y019930D01*
X020596Y019944D01*
X020617Y019954D01*
X020639Y019961D01*
X020662Y019964D01*
X020686Y019963D01*
X020708Y019958D01*
X020730Y019949D01*
X020750Y019937D01*
X020768Y019921D01*
X020782Y019903D01*
X020794Y019883D01*
X020802Y019861D01*
X020806Y019838D01*
X020806Y019814D01*
X020802Y019791D01*
X020794Y019769D01*
X020782Y019749D01*
X020768Y019731D01*
X020750Y019715D01*
X020730Y019703D01*
X020708Y019694D01*
X020686Y019689D01*
X020662Y019688D01*
X020639Y019691D01*
X020617Y019698D01*
X020596Y019708D01*
X020577Y019722D01*
X020561Y019739D01*
X020548Y019759D01*
X020538Y019780D01*
X020532Y019803D01*
X020530Y019826D01*
X021652Y019826D02*
X021654Y019849D01*
X021660Y019872D01*
X021670Y019893D01*
X021683Y019913D01*
X021699Y019930D01*
X021718Y019944D01*
X021739Y019954D01*
X021761Y019961D01*
X021784Y019964D01*
X021808Y019963D01*
X021830Y019958D01*
X021852Y019949D01*
X021872Y019937D01*
X021890Y019921D01*
X021904Y019903D01*
X021916Y019883D01*
X021924Y019861D01*
X021928Y019838D01*
X021928Y019814D01*
X021924Y019791D01*
X021916Y019769D01*
X021904Y019749D01*
X021890Y019731D01*
X021872Y019715D01*
X021852Y019703D01*
X021830Y019694D01*
X021808Y019689D01*
X021784Y019688D01*
X021761Y019691D01*
X021739Y019698D01*
X021718Y019708D01*
X021699Y019722D01*
X021683Y019739D01*
X021670Y019759D01*
X021660Y019780D01*
X021654Y019803D01*
X021652Y019826D01*
X030275Y019109D02*
X030277Y019128D01*
X030282Y019147D01*
X030292Y019163D01*
X030304Y019178D01*
X030319Y019190D01*
X030335Y019200D01*
X030354Y019205D01*
X030373Y019207D01*
X030392Y019205D01*
X030411Y019200D01*
X030427Y019190D01*
X030442Y019178D01*
X030454Y019163D01*
X030464Y019147D01*
X030469Y019128D01*
X030471Y019109D01*
X030469Y019090D01*
X030464Y019071D01*
X030454Y019055D01*
X030442Y019040D01*
X030427Y019028D01*
X030411Y019018D01*
X030392Y019013D01*
X030373Y019011D01*
X030354Y019013D01*
X030335Y019018D01*
X030319Y019028D01*
X030304Y019040D01*
X030292Y019055D01*
X030282Y019071D01*
X030277Y019090D01*
X030275Y019109D01*
X031929Y019109D02*
X031931Y019128D01*
X031936Y019147D01*
X031946Y019163D01*
X031958Y019178D01*
X031973Y019190D01*
X031989Y019200D01*
X032008Y019205D01*
X032027Y019207D01*
X032046Y019205D01*
X032065Y019200D01*
X032081Y019190D01*
X032096Y019178D01*
X032108Y019163D01*
X032118Y019147D01*
X032123Y019128D01*
X032125Y019109D01*
X032123Y019090D01*
X032118Y019071D01*
X032108Y019055D01*
X032096Y019040D01*
X032081Y019028D01*
X032065Y019018D01*
X032046Y019013D01*
X032027Y019011D01*
X032008Y019013D01*
X031989Y019018D01*
X031973Y019028D01*
X031958Y019040D01*
X031946Y019055D01*
X031936Y019071D01*
X031931Y019090D01*
X031929Y019109D01*
D11*
X003900Y001750D02*
X003710Y001840D01*
X003550Y001920D01*
X003350Y002040D01*
X003110Y002200D01*
X002880Y002380D01*
X002660Y002570D01*
X002550Y002680D01*
X002400Y002840D01*
X002280Y002980D01*
X002180Y003110D01*
X002060Y003270D01*
X001960Y003420D01*
X001830Y003650D01*
X001710Y003870D01*
X001640Y004030D01*
X001520Y004350D01*
X001430Y004660D01*
X001380Y004870D01*
X001350Y005040D01*
X001310Y005290D01*
X001280Y005800D01*
X002120Y005810D01*
X002210Y005810D01*
X002260Y005820D01*
X002350Y005840D01*
X002460Y005880D01*
X002560Y005930D01*
X002660Y006000D01*
X002750Y006100D01*
X002820Y006190D01*
X002870Y006280D01*
X002900Y006340D01*
X002940Y006470D01*
X002950Y006590D01*
X002950Y007100D01*
X002930Y007230D01*
X002920Y007270D01*
X002870Y007410D01*
X002720Y007620D01*
X002620Y007710D01*
X002490Y007790D01*
X002370Y007840D01*
X002190Y007870D01*
X001280Y007870D01*
X001280Y013880D01*
X002490Y014240D01*
X002570Y013850D01*
X002680Y013640D01*
X002830Y013500D01*
X002940Y013430D01*
X003110Y013370D01*
X003260Y013360D01*
X003480Y013400D01*
X003640Y013480D01*
X003760Y013570D01*
X003850Y013700D01*
X003920Y013830D01*
X003960Y014020D01*
X003950Y014160D01*
X003930Y014280D01*
X003840Y014550D01*
X003820Y014660D01*
X006460Y015470D01*
X006600Y015510D01*
X007560Y015790D01*
X012780Y017320D01*
X012980Y016640D01*
X013000Y016570D01*
X013020Y016490D01*
X013050Y016410D01*
X013140Y016230D01*
X013170Y016190D01*
X013220Y016120D01*
X013260Y016070D01*
X013340Y015990D01*
X013400Y015940D01*
X013450Y015900D01*
X013560Y015830D01*
X013610Y015800D01*
X013690Y015770D01*
X013790Y015730D01*
X013860Y015710D01*
X013910Y015700D01*
X013980Y015690D01*
X014020Y015690D01*
X014160Y015680D01*
X014320Y015700D01*
X014410Y015720D01*
X014490Y015740D01*
X014570Y015770D01*
X014720Y015850D01*
X014790Y015890D01*
X014840Y015930D01*
X014960Y016040D01*
X015050Y016150D01*
X015130Y016280D01*
X015180Y016370D01*
X015230Y016520D01*
X015260Y016650D01*
X015270Y016740D01*
X015270Y016950D01*
X015130Y017430D01*
X014960Y018010D01*
X015260Y018110D01*
X017860Y018110D01*
X018060Y018130D01*
X018190Y018170D01*
X018350Y018230D01*
X018510Y018330D01*
X018630Y018430D01*
X018720Y018530D01*
X018810Y018650D01*
X018900Y018820D01*
X018960Y019000D01*
X018990Y019110D01*
X019000Y019160D01*
X019000Y020376D01*
X023320Y020376D01*
X023340Y020282D01*
X023350Y020260D01*
X023400Y020130D01*
X023460Y020040D01*
X023550Y019940D01*
X023630Y019880D01*
X023750Y019820D01*
X023860Y019790D01*
X023940Y019780D01*
X028140Y019780D01*
X028270Y019800D01*
X028390Y019840D01*
X028490Y019890D01*
X028570Y019950D01*
X028670Y020050D01*
X028710Y020100D01*
X028770Y020210D01*
X028800Y020290D01*
X028820Y020350D01*
X028830Y020410D01*
X028840Y020770D01*
X033560Y020770D01*
X033560Y019200D01*
X033600Y018980D01*
X033650Y018850D01*
X033690Y018760D01*
X033750Y018660D01*
X033820Y018560D01*
X033930Y018440D01*
X034020Y018360D01*
X034160Y018270D01*
X034270Y018210D01*
X034370Y018170D01*
X034480Y018140D01*
X034580Y018120D01*
X034750Y018110D01*
X037310Y018110D01*
X037600Y018010D01*
X037290Y017190D01*
X037270Y017060D01*
X037260Y016910D01*
X037270Y016790D01*
X037300Y016630D01*
X037330Y016540D01*
X037340Y016490D01*
X037390Y016390D01*
X037490Y016220D01*
X037610Y016070D01*
X037690Y016000D01*
X037830Y015900D01*
X037980Y015810D01*
X038190Y015750D01*
X038330Y015720D01*
X038400Y015710D01*
X038520Y015710D01*
X038630Y015720D01*
X038750Y015740D01*
X038860Y015770D01*
X038940Y015800D01*
X039030Y015840D01*
X039130Y015900D01*
X039220Y015960D01*
X039300Y016030D01*
X039370Y016090D01*
X039430Y016160D01*
X039470Y016210D01*
X039570Y016370D01*
X039600Y016440D01*
X039880Y017130D01*
X045080Y015560D01*
X046090Y015270D01*
X048980Y014450D01*
X048890Y014030D01*
X048910Y013810D01*
X048980Y013640D01*
X049080Y013490D01*
X049200Y013390D01*
X049320Y013320D01*
X049490Y013270D01*
X049700Y013270D01*
X049920Y013330D01*
X050090Y013450D01*
X050170Y013540D01*
X050280Y013730D01*
X050360Y014050D01*
X051270Y013780D01*
X051270Y012040D01*
X051840Y012040D01*
X051840Y018508D01*
X057352Y018508D01*
X057352Y010240D01*
X051840Y010240D01*
X051840Y010520D01*
X051270Y010520D01*
X051270Y009370D01*
X051840Y009370D01*
X051840Y009648D01*
X057352Y009648D01*
X057352Y001380D01*
X051840Y001380D01*
X051840Y007870D01*
X050430Y007870D01*
X050340Y007860D01*
X050260Y007840D01*
X050170Y007810D01*
X050050Y007740D01*
X049960Y007670D01*
X049880Y007590D01*
X049800Y007460D01*
X049740Y007330D01*
X049710Y007210D01*
X049700Y006550D01*
X049720Y006410D01*
X049800Y006210D01*
X049870Y006100D01*
X050030Y005960D01*
X050120Y005900D01*
X050290Y005830D01*
X050370Y005810D01*
X051200Y005810D01*
X051200Y005080D01*
X051180Y004900D01*
X051140Y004730D01*
X051020Y004340D01*
X050940Y004130D01*
X050880Y003990D01*
X050770Y003770D01*
X050620Y003510D01*
X050470Y003280D01*
X050090Y002810D01*
X049970Y002690D01*
X049770Y002500D01*
X049620Y002370D01*
X049520Y002290D01*
X049340Y002160D01*
X049230Y002090D01*
X049100Y002010D01*
X048980Y001940D01*
X048770Y001830D01*
X048640Y001770D01*
X048460Y001690D01*
X048260Y001620D01*
X048070Y001560D01*
X047810Y001490D01*
X047600Y001450D01*
X047270Y001400D01*
X047120Y001390D01*
X046940Y001380D01*
X027460Y001380D01*
X027460Y002840D01*
X027420Y002990D01*
X027390Y003070D01*
X027340Y003170D01*
X027220Y003320D01*
X027110Y003410D01*
X027000Y003470D01*
X026880Y003510D01*
X026810Y003530D01*
X026740Y003540D01*
X025940Y003540D01*
X025820Y003530D01*
X025730Y003500D01*
X025630Y003460D01*
X025540Y003410D01*
X025460Y003350D01*
X025370Y003250D01*
X025290Y003140D01*
X025260Y003070D01*
X025240Y003020D01*
X025210Y002900D01*
X025190Y002810D01*
X025190Y001380D01*
X005470Y001380D01*
X005240Y001400D01*
X005000Y001430D01*
X004560Y001520D01*
X004320Y001590D01*
X004100Y001670D01*
X003900Y001750D01*
X004028Y002043D02*
X004214Y001969D01*
X004420Y001894D01*
X004637Y001831D01*
X005052Y001746D01*
X005274Y001718D01*
X005484Y001700D01*
X015615Y001700D01*
X015570Y001808D01*
X015570Y001830D01*
X015434Y001966D01*
X015390Y002072D01*
X015390Y002211D01*
X015375Y002226D01*
X015320Y002358D01*
X015320Y002502D01*
X015375Y002634D01*
X015476Y002735D01*
X015509Y002749D01*
X015390Y002749D01*
X015390Y003205D01*
X015390Y003660D01*
X015313Y003660D01*
X015313Y003858D01*
X015064Y003858D01*
X015064Y003858D01*
X015313Y003858D01*
X015313Y004138D01*
X015300Y004184D01*
X015280Y004220D01*
X016307Y004220D01*
X017019Y003509D01*
X017019Y003509D01*
X017109Y003419D01*
X017226Y003370D01*
X018148Y003370D01*
X018213Y003305D01*
X018301Y003269D01*
X018829Y003269D01*
X018917Y003305D01*
X018920Y003308D01*
X018923Y003305D01*
X019011Y003269D01*
X019539Y003269D01*
X019627Y003305D01*
X019695Y003373D01*
X019700Y003385D01*
X019705Y003373D01*
X019773Y003305D01*
X019861Y003269D01*
X020389Y003269D01*
X020477Y003305D01*
X020545Y003373D01*
X020550Y003385D01*
X020560Y003385D01*
X020565Y003373D01*
X020633Y003305D01*
X020721Y003269D01*
X021249Y003269D01*
X021337Y003305D01*
X021405Y003373D01*
X021442Y003461D01*
X021442Y003950D01*
X021405Y004038D01*
X021383Y004060D01*
X021405Y004082D01*
X021442Y004170D01*
X021442Y004659D01*
X021405Y004747D01*
X021337Y004815D01*
X021260Y004847D01*
X021260Y004864D01*
X022227Y005831D01*
X022239Y005860D01*
X022295Y005916D01*
X022350Y006048D01*
X022350Y006192D01*
X022334Y006230D01*
X022584Y006230D01*
X022600Y006214D01*
X022600Y006039D01*
X022501Y006039D01*
X022413Y006003D01*
X022345Y005935D01*
X022309Y005847D01*
X022309Y005043D01*
X022345Y004955D01*
X022413Y004887D01*
X022501Y004851D01*
X022979Y004851D01*
X022979Y004683D01*
X023337Y004683D01*
X023337Y004647D01*
X022979Y004647D01*
X022979Y004425D01*
X022991Y004379D01*
X023014Y004338D01*
X023048Y004304D01*
X023089Y004281D01*
X023135Y004268D01*
X023337Y004268D01*
X023337Y004647D01*
X023374Y004647D01*
X023374Y004268D01*
X023576Y004268D01*
X023622Y004281D01*
X023663Y004304D01*
X023668Y004309D01*
X023732Y004245D01*
X023820Y004208D01*
X024309Y004208D01*
X024397Y004245D01*
X024465Y004313D01*
X024501Y004401D01*
X024501Y004406D01*
X024550Y004426D01*
X024710Y004586D01*
X024794Y004670D01*
X024840Y004780D01*
X024840Y005830D01*
X024912Y005830D01*
X025044Y005885D01*
X025059Y005900D01*
X025521Y005900D01*
X025536Y005885D01*
X025668Y005830D01*
X025812Y005830D01*
X025944Y005885D01*
X026045Y005986D01*
X026100Y006118D01*
X026100Y006262D01*
X026045Y006394D01*
X025944Y006495D01*
X025812Y006550D01*
X025668Y006550D01*
X025536Y006495D01*
X025521Y006480D01*
X025059Y006480D01*
X025044Y006495D01*
X024912Y006550D01*
X024840Y006550D01*
X024840Y007950D01*
X024794Y008060D01*
X024639Y008216D01*
X024662Y008271D01*
X024662Y008760D01*
X024625Y008848D01*
X024561Y008912D01*
X024566Y008917D01*
X024589Y008958D01*
X024602Y009004D01*
X024602Y009206D01*
X024223Y009206D01*
X024223Y009243D01*
X024187Y009243D01*
X024187Y009601D01*
X023965Y009601D01*
X023919Y009589D01*
X023878Y009566D01*
X023844Y009532D01*
X023821Y009491D01*
X023815Y009469D01*
X023459Y009469D01*
X023459Y009505D01*
X023818Y009505D01*
X023818Y009767D01*
X023806Y009812D01*
X023782Y009853D01*
X023748Y009887D01*
X023711Y009908D01*
X023745Y009908D01*
X023791Y009921D01*
X023832Y009944D01*
X023866Y009978D01*
X023889Y010019D01*
X023901Y010065D01*
X023901Y010287D01*
X023543Y010287D01*
X023543Y010323D01*
X023901Y010323D01*
X023901Y010545D01*
X023889Y010591D01*
X023866Y010632D01*
X023832Y010666D01*
X023791Y010689D01*
X023745Y010702D01*
X023543Y010702D01*
X023543Y010323D01*
X023506Y010323D01*
X023506Y010702D01*
X023304Y010702D01*
X023258Y010689D01*
X023217Y010666D01*
X023212Y010661D01*
X023148Y010725D01*
X023060Y010762D01*
X022571Y010762D01*
X022483Y010725D01*
X022415Y010657D01*
X022379Y010569D01*
X022379Y010257D01*
X022341Y010166D01*
X022341Y009968D01*
X022288Y009946D01*
X022221Y009879D01*
X022184Y009791D01*
X022184Y009446D01*
X021843Y009105D01*
X021800Y009002D01*
X021800Y008596D01*
X021754Y008550D01*
X021000Y008550D01*
X021000Y008954D01*
X020963Y009042D01*
X020896Y009110D01*
X020808Y009146D01*
X020530Y009146D01*
X020530Y009898D01*
X020590Y009898D01*
X020678Y009935D01*
X020700Y009957D01*
X020722Y009935D01*
X020810Y009898D01*
X021299Y009898D01*
X021387Y009935D01*
X021455Y010003D01*
X021491Y010089D01*
X021939Y010089D01*
X022027Y010125D01*
X022095Y010193D01*
X022132Y010281D01*
X022132Y010770D01*
X022095Y010858D01*
X022031Y010922D01*
X022036Y010927D01*
X022059Y010968D01*
X022072Y011014D01*
X022072Y011216D01*
X021693Y011216D01*
X021693Y011253D01*
X021657Y011253D01*
X021657Y011611D01*
X021435Y011611D01*
X021389Y011599D01*
X021348Y011576D01*
X021334Y011562D01*
X021321Y011569D01*
X021275Y011582D01*
X021073Y011582D01*
X021073Y011203D01*
X021036Y011203D01*
X021036Y011582D01*
X020834Y011582D01*
X020788Y011569D01*
X020747Y011546D01*
X020742Y011541D01*
X020678Y011605D01*
X020590Y011642D01*
X020101Y011642D01*
X020013Y011605D01*
X019945Y011537D01*
X019926Y011493D01*
X019926Y011494D01*
X019844Y011576D01*
X019519Y011901D01*
X019425Y011940D01*
X019405Y011988D01*
X019383Y012010D01*
X019405Y012032D01*
X019412Y012049D01*
X027056Y012049D01*
X027154Y012090D01*
X027228Y012164D01*
X027269Y012262D01*
X027269Y016304D01*
X027228Y016401D01*
X027154Y016476D01*
X027056Y016516D01*
X017896Y016516D01*
X017798Y016476D01*
X017724Y016401D01*
X017684Y016304D01*
X017684Y012262D01*
X017724Y012164D01*
X017798Y012090D01*
X017896Y012049D01*
X018558Y012049D01*
X018565Y012032D01*
X018587Y012010D01*
X018565Y011988D01*
X018528Y011900D01*
X018528Y011411D01*
X018323Y011411D01*
X018323Y011053D01*
X018287Y011053D01*
X018287Y011411D01*
X018065Y011411D01*
X018019Y011399D01*
X017978Y011376D01*
X017944Y011342D01*
X017921Y011301D01*
X017908Y011255D01*
X017908Y011053D01*
X018287Y011053D01*
X018287Y011016D01*
X017908Y011016D01*
X017908Y010814D01*
X017921Y010768D01*
X017944Y010727D01*
X017949Y010722D01*
X017885Y010658D01*
X017848Y010570D01*
X017848Y010081D01*
X017874Y010020D01*
X017091Y010020D01*
X017085Y010034D01*
X016984Y010135D01*
X016852Y010190D01*
X016708Y010190D01*
X016678Y010178D01*
X016660Y010196D01*
X016660Y010586D01*
X016617Y010689D01*
X016510Y010796D01*
X016510Y011165D01*
X016467Y011268D01*
X016221Y011514D01*
X016221Y011819D01*
X016185Y011907D01*
X016117Y011975D01*
X016085Y011989D01*
X016085Y012160D01*
X016250Y012326D01*
X016334Y012410D01*
X016380Y012520D01*
X016380Y017106D01*
X016404Y017130D01*
X022090Y017130D01*
X022200Y017176D01*
X024154Y019130D01*
X024851Y019130D01*
X024710Y018989D01*
X024710Y018810D01*
X025170Y018810D01*
X025170Y018770D01*
X025210Y018770D01*
X025210Y018810D01*
X025670Y018810D01*
X025670Y018989D01*
X025529Y019130D01*
X026206Y019130D01*
X026430Y018906D01*
X026430Y018566D01*
X026746Y018250D01*
X027020Y018250D01*
X026985Y018216D01*
X026928Y018136D01*
X026883Y018049D01*
X026853Y017956D01*
X026840Y017878D01*
X027392Y017878D01*
X027392Y018430D01*
X027370Y018426D01*
X027444Y018500D01*
X027720Y018500D01*
X028250Y017970D01*
X028250Y016032D01*
X028294Y015926D01*
X028376Y015844D01*
X028460Y015760D01*
X028460Y011688D01*
X028432Y011677D01*
X028333Y011578D01*
X028280Y011450D01*
X028280Y011310D01*
X028333Y011182D01*
X028432Y011083D01*
X028560Y011030D01*
X028660Y011030D01*
X028660Y008558D01*
X028404Y008664D01*
X028090Y008664D01*
X027799Y008544D01*
X027576Y008321D01*
X027456Y008030D01*
X027456Y007716D01*
X027576Y007425D01*
X027799Y007202D01*
X028090Y007082D01*
X028404Y007082D01*
X028660Y007188D01*
X028660Y005970D01*
X028580Y005890D01*
X028558Y005890D01*
X028426Y005835D01*
X028325Y005734D01*
X028270Y005602D01*
X028270Y005458D01*
X028325Y005326D01*
X028426Y005225D01*
X028558Y005170D01*
X028607Y005170D01*
X028625Y005126D01*
X028726Y005025D01*
X028858Y004970D01*
X028907Y004970D01*
X028925Y004926D01*
X029026Y004825D01*
X029158Y004770D01*
X029227Y004770D01*
X029245Y004726D01*
X029346Y004625D01*
X029478Y004570D01*
X029622Y004570D01*
X029684Y004596D01*
X029725Y004496D01*
X029826Y004395D01*
X029958Y004340D01*
X030102Y004340D01*
X030234Y004395D01*
X030335Y004496D01*
X030376Y004594D01*
X030405Y004577D01*
X030451Y004565D01*
X030693Y004565D01*
X030693Y005002D01*
X030808Y005002D01*
X030808Y004565D01*
X031050Y004565D01*
X031095Y004577D01*
X031136Y004601D01*
X031170Y004635D01*
X031194Y004676D01*
X031199Y004697D01*
X031236Y004609D01*
X031303Y004542D01*
X031355Y004520D01*
X031355Y003979D01*
X031157Y003979D01*
X030851Y003853D01*
X030618Y003619D01*
X030491Y003314D01*
X030491Y002983D01*
X030618Y002678D01*
X030851Y002444D01*
X031157Y002318D01*
X031487Y002318D01*
X031792Y002444D01*
X032026Y002678D01*
X032118Y002900D01*
X033796Y002900D01*
X033917Y002950D01*
X034010Y003043D01*
X034467Y003500D01*
X034560Y003593D01*
X034610Y003714D01*
X034610Y015348D01*
X035080Y015348D01*
X035168Y015385D01*
X035232Y015449D01*
X035237Y015444D01*
X035278Y015421D01*
X035324Y015408D01*
X035526Y015408D01*
X035526Y015787D01*
X035563Y015787D01*
X035563Y015823D01*
X035921Y015823D01*
X035921Y016045D01*
X035909Y016091D01*
X035886Y016132D01*
X035884Y016134D01*
X036094Y016134D01*
X036162Y016162D01*
X036336Y016162D01*
X036373Y016125D01*
X036461Y016089D01*
X036989Y016089D01*
X037077Y016125D01*
X037138Y016185D01*
X037141Y016183D01*
X037194Y016092D01*
X037200Y016070D01*
X037226Y016038D01*
X037246Y016003D01*
X037265Y015989D01*
X037339Y015897D01*
X037351Y015871D01*
X037378Y015848D01*
X037400Y015820D01*
X037425Y015806D01*
X037444Y015790D01*
X037452Y015777D01*
X037491Y015749D01*
X037527Y015717D01*
X037543Y015712D01*
X037603Y015669D01*
X037611Y015658D01*
X037654Y015632D01*
X037696Y015603D01*
X037709Y015600D01*
X037797Y015546D01*
X037831Y015520D01*
X037852Y015514D01*
X037870Y015503D01*
X037912Y015497D01*
X038052Y015457D01*
X038061Y015450D01*
X038112Y015439D01*
X038163Y015425D01*
X038174Y015426D01*
X038212Y015418D01*
X038222Y015412D01*
X038274Y015405D01*
X038325Y015394D01*
X038327Y015394D01*
X038336Y015390D01*
X038377Y015390D01*
X038380Y015390D01*
X036434Y013444D01*
X036390Y013338D01*
X036390Y005269D01*
X036375Y005254D01*
X036320Y005122D01*
X036320Y004978D01*
X036375Y004846D01*
X036476Y004745D01*
X036608Y004690D01*
X036752Y004690D01*
X036884Y004745D01*
X036985Y004846D01*
X037040Y004978D01*
X037040Y005061D01*
X037076Y005025D01*
X037208Y004970D01*
X037352Y004970D01*
X037484Y005025D01*
X037585Y005126D01*
X037640Y005258D01*
X037640Y005402D01*
X037585Y005534D01*
X037570Y005549D01*
X037570Y009061D01*
X037585Y009076D01*
X037640Y009208D01*
X037640Y009352D01*
X037585Y009484D01*
X037484Y009585D01*
X037352Y009640D01*
X037270Y009640D01*
X040320Y009640D01*
X040320Y009652D02*
X040320Y009508D01*
X040375Y009376D01*
X040476Y009275D01*
X040608Y009220D01*
X040752Y009220D01*
X040884Y009275D01*
X040985Y009376D01*
X041040Y009508D01*
X041040Y009530D01*
X041326Y009816D01*
X041370Y009922D01*
X041370Y014296D01*
X041745Y014671D01*
X042078Y014576D01*
X042172Y014587D01*
X042256Y014633D01*
X042315Y014708D01*
X042505Y015367D01*
X042494Y015462D01*
X042447Y015546D01*
X042373Y015605D01*
X041713Y015794D01*
X041618Y015783D01*
X041535Y015737D01*
X041475Y015662D01*
X041310Y015084D01*
X040826Y014600D01*
X040780Y014490D01*
X040780Y014370D01*
X040790Y014346D01*
X040790Y012224D01*
X040752Y012240D01*
X040608Y012240D01*
X040476Y012185D01*
X040461Y012170D01*
X037322Y012170D01*
X037216Y012126D01*
X036970Y011880D01*
X036970Y013160D01*
X038800Y014990D01*
X040558Y014990D01*
X040589Y015003D01*
X040920Y014908D01*
X041014Y014919D01*
X041098Y014965D01*
X041157Y015040D01*
X041346Y015699D01*
X041336Y015794D01*
X041289Y015878D01*
X041215Y015937D01*
X040555Y016126D01*
X040460Y016115D01*
X040377Y016069D01*
X040317Y015994D01*
X040196Y015570D01*
X039210Y015570D01*
X039218Y015573D01*
X039232Y015588D01*
X039247Y015597D01*
X039255Y015598D01*
X039301Y015630D01*
X039349Y015658D01*
X039354Y015665D01*
X039362Y015670D01*
X039383Y015677D01*
X039415Y015705D01*
X039450Y015729D01*
X039462Y015747D01*
X039509Y015788D01*
X039549Y015822D01*
X039572Y015833D01*
X039597Y015863D01*
X039627Y015888D01*
X039637Y015909D01*
X039640Y015910D01*
X039676Y015956D01*
X039695Y015977D01*
X039708Y015986D01*
X039731Y016025D01*
X039760Y016060D01*
X039765Y016078D01*
X039821Y016168D01*
X039839Y016185D01*
X039854Y016221D01*
X039875Y016254D01*
X039879Y016276D01*
X039895Y016317D01*
X039919Y016372D01*
X039919Y016376D01*
X040067Y016739D01*
X044929Y015271D01*
X044931Y015270D01*
X044990Y015253D01*
X045048Y015235D01*
X045051Y015235D01*
X045941Y014980D01*
X045941Y014980D01*
X046002Y014962D01*
X046063Y014945D01*
X046063Y014945D01*
X048604Y014224D01*
X048580Y014111D01*
X048566Y014064D01*
X048567Y014049D01*
X048564Y014035D01*
X048573Y013987D01*
X048590Y013796D01*
X048590Y013747D01*
X048596Y013733D01*
X048597Y013718D01*
X048620Y013674D01*
X048672Y013547D01*
X048678Y013515D01*
X048696Y013489D01*
X048708Y013459D01*
X048731Y013436D01*
X048804Y013326D01*
X048826Y013285D01*
X048839Y013274D01*
X048849Y013260D01*
X048888Y013233D01*
X048967Y013167D01*
X048984Y013146D01*
X049016Y013127D01*
X049044Y013103D01*
X049070Y013095D01*
X049138Y013056D01*
X049169Y013031D01*
X049192Y013024D01*
X049214Y013012D01*
X049253Y013006D01*
X049383Y012968D01*
X049426Y012950D01*
X049444Y012950D01*
X049461Y012945D01*
X049507Y012950D01*
X049680Y012950D01*
X049723Y012945D01*
X049743Y012950D01*
X049764Y012950D01*
X049804Y012967D01*
X049997Y013019D01*
X050053Y013032D01*
X050059Y013036D01*
X050066Y013038D01*
X050110Y013073D01*
X050253Y013173D01*
X050287Y013190D01*
X050305Y013210D01*
X050327Y013225D01*
X050347Y013257D01*
X050389Y013305D01*
X050415Y013325D01*
X050431Y013352D01*
X050451Y013375D01*
X050462Y013406D01*
X050548Y013554D01*
X050575Y013591D01*
X050580Y013609D01*
X050589Y013625D01*
X050592Y013647D01*
X050680Y013621D01*
X050680Y008190D01*
X050475Y008190D01*
X050458Y008195D01*
X050412Y008190D01*
X050366Y008190D01*
X050350Y008183D01*
X050346Y008183D01*
X050324Y008186D01*
X050283Y008176D01*
X050241Y008171D01*
X050227Y008163D01*
X050219Y008164D01*
X050170Y008147D01*
X050121Y008135D01*
X050110Y008127D01*
X050097Y008123D01*
X050064Y008118D01*
X050037Y008103D01*
X050008Y008093D01*
X049983Y008071D01*
X049925Y008037D01*
X049904Y008032D01*
X049870Y008006D01*
X049834Y007984D01*
X049821Y007967D01*
X049798Y007949D01*
X049779Y007941D01*
X049748Y007910D01*
X049713Y007884D01*
X049703Y007866D01*
X049672Y007834D01*
X049641Y007812D01*
X049627Y007790D01*
X049609Y007771D01*
X049594Y007736D01*
X049551Y007665D01*
X049536Y007652D01*
X049517Y007611D01*
X049494Y007574D01*
X049491Y007554D01*
X049463Y007494D01*
X049445Y007469D01*
X049437Y007437D01*
X049423Y007406D01*
X049422Y007376D01*
X049406Y007313D01*
X049391Y007278D01*
X049391Y007252D01*
X049384Y007226D01*
X049390Y007189D01*
X049381Y006593D01*
X049374Y006568D01*
X049380Y006530D01*
X049379Y006491D01*
X049389Y006467D01*
X049400Y006389D01*
X049399Y006350D01*
X049409Y006327D01*
X049412Y006302D01*
X049432Y006268D01*
X049491Y006122D01*
X049496Y006092D01*
X049514Y006063D01*
X049527Y006032D01*
X049548Y006010D01*
X049591Y005943D01*
X049611Y005901D01*
X049625Y005889D01*
X049634Y005874D01*
X049672Y005848D01*
X049788Y005747D01*
X049800Y005729D01*
X049835Y005705D01*
X049867Y005677D01*
X049888Y005670D01*
X049916Y005651D01*
X049939Y005628D01*
X049969Y005616D01*
X049995Y005598D01*
X050027Y005592D01*
X050131Y005549D01*
X050151Y005535D01*
X050190Y005525D01*
X050227Y005510D01*
X050251Y005510D01*
X050269Y005505D01*
X050306Y005490D01*
X050331Y005490D01*
X050354Y005484D01*
X050394Y005490D01*
X050680Y005490D01*
X050680Y004346D01*
X050643Y004250D01*
X050590Y004125D01*
X050488Y003922D01*
X050347Y003677D01*
X050211Y003468D01*
X049852Y003024D01*
X049747Y002919D01*
X049555Y002737D01*
X049415Y002616D01*
X049326Y002545D01*
X049160Y002425D01*
X049060Y002361D01*
X048936Y002285D01*
X048825Y002220D01*
X048629Y002117D01*
X048508Y002062D01*
X048342Y001988D01*
X048159Y001924D01*
X047980Y001867D01*
X047738Y001802D01*
X047546Y001765D01*
X047235Y001718D01*
X047101Y001709D01*
X046931Y001700D01*
X027780Y001700D01*
X027780Y002819D01*
X027786Y002861D01*
X027780Y002882D01*
X027780Y002904D01*
X027764Y002943D01*
X027741Y003027D01*
X027742Y003043D01*
X027725Y003088D01*
X027713Y003134D01*
X027706Y003143D01*
X027705Y003156D01*
X027684Y003198D01*
X027667Y003242D01*
X027655Y003255D01*
X027639Y003287D01*
X027630Y003320D01*
X027611Y003343D01*
X027598Y003370D01*
X027572Y003393D01*
X027488Y003497D01*
X027472Y003527D01*
X027449Y003546D01*
X027430Y003570D01*
X027400Y003586D01*
X027338Y003637D01*
X027319Y003660D01*
X027289Y003677D01*
X027263Y003698D01*
X027234Y003707D01*
X027184Y003734D01*
X027162Y003753D01*
X027128Y003765D01*
X027097Y003781D01*
X027068Y003785D01*
X027035Y003796D01*
X027029Y003800D01*
X026975Y003816D01*
X026931Y003830D01*
X026918Y003838D01*
X026877Y003844D01*
X026837Y003855D01*
X026820Y003853D01*
X026804Y003860D01*
X026763Y003860D01*
X026722Y003866D01*
X026700Y003860D01*
X025990Y003860D01*
X025977Y003864D01*
X025927Y003860D01*
X025876Y003860D01*
X025864Y003855D01*
X025818Y003851D01*
X025779Y003854D01*
X025755Y003846D01*
X025730Y003844D01*
X025695Y003826D01*
X025680Y003821D01*
X025670Y003821D01*
X025620Y003801D01*
X025568Y003783D01*
X025561Y003777D01*
X025551Y003773D01*
X025530Y003771D01*
X025492Y003750D01*
X025452Y003733D01*
X025437Y003719D01*
X025421Y003710D01*
X025399Y003704D01*
X025365Y003679D01*
X025329Y003659D01*
X025315Y003641D01*
X025293Y003625D01*
X025265Y003611D01*
X025243Y003587D01*
X025217Y003568D01*
X025201Y003540D01*
X025163Y003499D01*
X025149Y003490D01*
X025121Y003452D01*
X025090Y003417D01*
X025084Y003401D01*
X025047Y003350D01*
X025021Y003325D01*
X025010Y003299D01*
X024994Y003277D01*
X024987Y003248D01*
X024987Y003248D01*
X024964Y003192D01*
X024957Y003176D01*
X024945Y003159D01*
X024935Y003119D01*
X024919Y003080D01*
X024920Y003057D01*
X024914Y003035D01*
X024911Y003032D01*
X024899Y002974D01*
X024884Y002916D01*
X024885Y002912D01*
X024884Y002907D01*
X024870Y002874D01*
X024870Y002845D01*
X024864Y002817D01*
X024870Y002782D01*
X024870Y001700D01*
X016245Y001700D01*
X016290Y001808D01*
X016290Y001952D01*
X016235Y002084D01*
X016134Y002185D01*
X016002Y002240D01*
X015991Y002240D01*
X016040Y002358D01*
X016040Y002502D01*
X015985Y002634D01*
X015884Y002735D01*
X015752Y002790D01*
X015624Y002790D01*
X015652Y002818D01*
X015676Y002859D01*
X015688Y002905D01*
X015688Y003205D01*
X015688Y003504D01*
X015676Y003550D01*
X015652Y003591D01*
X015619Y003624D01*
X015578Y003648D01*
X015532Y003660D01*
X015390Y003660D01*
X015390Y003205D01*
X015390Y003205D01*
X015390Y003205D01*
X014890Y003205D01*
X014890Y003205D01*
X014390Y003205D01*
X014390Y003205D01*
X014390Y003205D01*
X014188Y003205D01*
X013890Y003205D01*
X013890Y003660D01*
X013748Y003660D01*
X013702Y003648D01*
X013661Y003624D01*
X013628Y003591D01*
X013604Y003550D01*
X013592Y003504D01*
X013592Y003205D01*
X013890Y003205D01*
X013890Y003205D01*
X013890Y003660D01*
X014032Y003660D01*
X014047Y003656D01*
X014047Y003858D01*
X014296Y003858D01*
X014296Y003858D01*
X014296Y003858D01*
X014303Y003858D01*
X014552Y003858D01*
X014552Y003858D01*
X014552Y003858D01*
X014559Y003858D01*
X014808Y003858D01*
X014808Y003858D01*
X014552Y003858D01*
X014296Y003858D01*
X014047Y003858D01*
X014047Y004138D01*
X014060Y004184D01*
X014083Y004225D01*
X014117Y004258D01*
X014150Y004278D01*
X014069Y004359D01*
X013709Y004719D01*
X013619Y004809D01*
X013615Y004817D01*
X013568Y004864D01*
X013532Y004952D01*
X013532Y005599D01*
X013568Y005687D01*
X013636Y005754D01*
X013724Y005791D01*
X013738Y005791D01*
X013970Y006023D01*
X013970Y006107D01*
X012949Y007129D01*
X012859Y007219D01*
X012810Y007336D01*
X012810Y007339D01*
X012723Y007339D01*
X012723Y007697D01*
X012687Y007697D01*
X012687Y007339D01*
X012465Y007339D01*
X012419Y007351D01*
X012378Y007374D01*
X012344Y007408D01*
X012321Y007449D01*
X012308Y007495D01*
X012308Y007697D01*
X012687Y007697D01*
X012687Y007734D01*
X012308Y007734D01*
X012308Y007936D01*
X012321Y007982D01*
X012344Y008023D01*
X012349Y008028D01*
X012285Y008092D01*
X012248Y008180D01*
X012248Y008669D01*
X012285Y008757D01*
X012353Y008825D01*
X012441Y008861D01*
X012969Y008861D01*
X013057Y008825D01*
X013125Y008757D01*
X013130Y008745D01*
X013160Y008745D01*
X013165Y008757D01*
X013233Y008825D01*
X013321Y008861D01*
X013849Y008861D01*
X013925Y008830D01*
X014001Y008861D01*
X014529Y008861D01*
X014602Y008831D01*
X014676Y008861D01*
X014755Y008861D01*
X014755Y008990D01*
X014743Y008995D01*
X014675Y009063D01*
X014639Y009151D01*
X014639Y009679D01*
X014675Y009767D01*
X014713Y009805D01*
X014675Y009843D01*
X014639Y009931D01*
X014639Y010459D01*
X014670Y010535D01*
X014639Y010611D01*
X014639Y011139D01*
X014670Y011215D01*
X014639Y011291D01*
X014639Y011819D01*
X014675Y011907D01*
X014743Y011975D01*
X014750Y011978D01*
X014750Y012146D01*
X014800Y012267D01*
X014893Y012360D01*
X015450Y012917D01*
X015450Y013719D01*
X015379Y013648D01*
X015139Y013548D01*
X014879Y013548D01*
X014638Y013648D01*
X014455Y013831D01*
X014355Y014072D01*
X014355Y014331D01*
X014455Y014572D01*
X014638Y014755D01*
X014879Y014855D01*
X015139Y014855D01*
X015379Y014755D01*
X015450Y014684D01*
X015450Y016193D01*
X015444Y016185D01*
X015437Y016174D01*
X015436Y016166D01*
X015406Y016118D01*
X015379Y016069D01*
X015373Y016064D01*
X015344Y016018D01*
X015338Y015997D01*
X015311Y015964D01*
X015289Y015928D01*
X015271Y015915D01*
X015233Y015868D01*
X015223Y015847D01*
X015193Y015820D01*
X015167Y015788D01*
X015147Y015777D01*
X015095Y015730D01*
X015090Y015720D01*
X015048Y015687D01*
X015011Y015652D01*
X015004Y015644D01*
X014970Y015625D01*
X014940Y015600D01*
X014922Y015595D01*
X014875Y015570D01*
X014823Y015541D01*
X014819Y015540D01*
X014758Y015507D01*
X014742Y015493D01*
X014702Y015478D01*
X014664Y015458D01*
X014644Y015456D01*
X014629Y015445D01*
X014585Y015434D01*
X014543Y015418D01*
X014528Y015419D01*
X014484Y015409D01*
X014432Y015396D01*
X014423Y015390D01*
X014375Y015384D01*
X014327Y015374D01*
X014312Y015377D01*
X014231Y015366D01*
X014201Y015356D01*
X014169Y015359D01*
X014137Y015355D01*
X014106Y015363D01*
X014018Y015369D01*
X013998Y015364D01*
X013957Y015370D01*
X013916Y015370D01*
X013905Y015375D01*
X013856Y015384D01*
X013844Y015386D01*
X013833Y015385D01*
X013813Y015391D01*
X013802Y015392D01*
X013796Y015395D01*
X013785Y015399D01*
X013735Y015409D01*
X013734Y015409D01*
X013730Y015409D01*
X013686Y015427D01*
X013641Y015440D01*
X013628Y015450D01*
X013574Y015472D01*
X013529Y015488D01*
X013500Y015493D01*
X013470Y015511D01*
X013438Y015523D01*
X013419Y015540D01*
X013392Y015558D01*
X013341Y015588D01*
X013338Y015592D01*
X013317Y015605D01*
X013300Y015610D01*
X013264Y015639D01*
X013224Y015664D01*
X013215Y015677D01*
X013198Y015692D01*
X013170Y015714D01*
X013159Y015719D01*
X013124Y015753D01*
X013086Y015785D01*
X013079Y015798D01*
X013066Y015812D01*
X013050Y015820D01*
X013021Y015856D01*
X012989Y015889D01*
X012984Y015899D01*
X012965Y015927D01*
X012930Y015970D01*
X012928Y015978D01*
X012912Y016001D01*
X012905Y016011D01*
X012882Y016030D01*
X012867Y016061D01*
X012846Y016089D01*
X012838Y016117D01*
X012785Y016225D01*
X012773Y016238D01*
X012756Y016282D01*
X012735Y016324D01*
X012734Y016338D01*
X012725Y016351D01*
X012714Y016395D01*
X012698Y016437D01*
X012699Y016456D01*
X012691Y016487D01*
X012673Y016551D01*
X012563Y016923D01*
X007711Y015501D01*
X007711Y015501D01*
X007650Y015483D01*
X007589Y015465D01*
X007589Y015465D01*
X006750Y015220D01*
X006749Y015220D01*
X006689Y015203D01*
X006628Y015185D01*
X006628Y015185D01*
X006551Y015163D01*
X004212Y014446D01*
X004222Y014417D01*
X004235Y014395D01*
X004242Y014357D01*
X004254Y014321D01*
X004252Y014295D01*
X004258Y014260D01*
X004265Y014246D01*
X004268Y014198D01*
X004276Y014150D01*
X004273Y014135D01*
X004278Y014061D01*
X004286Y014016D01*
X004282Y013998D01*
X004284Y013979D01*
X004269Y013936D01*
X004237Y013781D01*
X004232Y013734D01*
X004224Y013719D01*
X004220Y013702D01*
X004194Y013663D01*
X004153Y013588D01*
X004149Y013570D01*
X004123Y013533D01*
X004102Y013492D01*
X004087Y013481D01*
X004030Y013397D01*
X004003Y013352D01*
X003994Y013345D01*
X003987Y013336D01*
X003943Y013307D01*
X003859Y013245D01*
X003840Y013222D01*
X003809Y013207D01*
X003781Y013186D01*
X003753Y013178D01*
X003639Y013122D01*
X003600Y013097D01*
X003582Y013093D01*
X003566Y013085D01*
X003520Y013082D01*
X003340Y013049D01*
X003302Y013036D01*
X003278Y013038D01*
X003255Y013034D01*
X003215Y013042D01*
X003108Y013049D01*
X003064Y013047D01*
X003045Y013054D01*
X003025Y013055D01*
X002985Y013075D01*
X002858Y013119D01*
X002822Y013126D01*
X002799Y013140D01*
X002773Y013149D01*
X002746Y013174D01*
X002686Y013212D01*
X002658Y013223D01*
X002633Y013246D01*
X002604Y013264D01*
X002587Y013289D01*
X002468Y013400D01*
X002426Y013435D01*
X002422Y013443D01*
X002415Y013449D01*
X002392Y013499D01*
X002295Y013686D01*
X002269Y013723D01*
X002266Y013741D01*
X002257Y013758D01*
X002253Y013803D01*
X002247Y013834D01*
X001600Y013641D01*
X001600Y008190D01*
X002153Y008190D01*
X002180Y008196D01*
X002216Y008190D01*
X002254Y008190D01*
X002279Y008180D01*
X002397Y008160D01*
X002434Y008160D01*
X002459Y008150D01*
X002485Y008145D01*
X002517Y008125D01*
X002578Y008100D01*
X002604Y008096D01*
X002636Y008076D01*
X002672Y008061D01*
X002690Y008043D01*
X002759Y008000D01*
X002787Y007990D01*
X002812Y007967D01*
X002842Y007949D01*
X002859Y007925D01*
X002913Y007877D01*
X002943Y007858D01*
X002960Y007834D01*
X002981Y007815D01*
X002997Y007783D01*
X003120Y007611D01*
X003150Y007578D01*
X003156Y007560D01*
X003167Y007544D01*
X003178Y007500D01*
X003205Y007422D01*
X003215Y007409D01*
X003227Y007363D01*
X003231Y007351D01*
X003237Y007342D01*
X003238Y007330D01*
X003243Y007318D01*
X003242Y007305D01*
X003244Y007293D01*
X003256Y007246D01*
X003254Y007231D01*
X003260Y007187D01*
X003270Y007164D01*
X003270Y007124D01*
X003276Y007086D01*
X003270Y007061D01*
X003270Y006640D01*
X003274Y006627D01*
X003270Y006577D01*
X003270Y006526D01*
X003265Y006514D01*
X003261Y006472D01*
X003265Y006437D01*
X003256Y006409D01*
X003254Y006380D01*
X003237Y006349D01*
X003217Y006281D01*
X003215Y006254D01*
X003198Y006221D01*
X003187Y006185D01*
X003176Y006171D01*
X003153Y006131D01*
X003128Y006080D01*
X003122Y006075D01*
X003118Y006068D01*
X003112Y006044D01*
X003088Y006013D01*
X003069Y005979D01*
X003049Y005963D01*
X003034Y005944D01*
X003030Y005933D01*
X002996Y005894D01*
X002964Y005853D01*
X002953Y005847D01*
X002916Y005806D01*
X002896Y005774D01*
X002873Y005759D01*
X002855Y005739D01*
X002822Y005723D01*
X002776Y005690D01*
X002760Y005672D01*
X002724Y005654D01*
X002691Y005631D01*
X002668Y005626D01*
X002643Y005614D01*
X002629Y005601D01*
X002587Y005586D01*
X002546Y005565D01*
X002527Y005564D01*
X002499Y005554D01*
X002482Y005541D01*
X002440Y005532D01*
X002400Y005518D01*
X002383Y005518D01*
X002326Y005507D01*
X002301Y005501D01*
X002274Y005490D01*
X002242Y005490D01*
X002210Y005484D01*
X002179Y005490D01*
X002122Y005490D01*
X001619Y005484D01*
X001629Y005325D01*
X001666Y005093D01*
X001693Y004935D01*
X001739Y004742D01*
X001824Y004451D01*
X001937Y004150D01*
X001998Y004011D01*
X002110Y003805D01*
X002233Y003588D01*
X002321Y003455D01*
X002435Y003304D01*
X002528Y003182D01*
X002638Y003054D01*
X002780Y002903D01*
X002878Y002805D01*
X003083Y002627D01*
X003298Y002460D01*
X003521Y002310D01*
X003704Y002201D01*
X003850Y002128D01*
X004028Y002043D01*
X004037Y002040D02*
X015403Y002040D01*
X015540Y001860D02*
X015540Y001700D01*
X015140Y001700D02*
X015140Y002806D01*
X015161Y002785D01*
X015202Y002761D01*
X015248Y002749D01*
X015390Y002749D01*
X015390Y003205D01*
X015688Y003205D01*
X015390Y003205D01*
X015390Y003205D01*
X015092Y003205D01*
X014890Y003205D01*
X014890Y003205D01*
X014592Y003205D01*
X014390Y003205D01*
X013890Y003205D01*
X013890Y003205D01*
X013890Y003205D01*
X013592Y003205D01*
X013592Y002905D01*
X013604Y002859D01*
X013628Y002818D01*
X013661Y002785D01*
X013702Y002761D01*
X013748Y002749D01*
X013890Y002749D01*
X014032Y002749D01*
X014078Y002761D01*
X014119Y002785D01*
X014140Y002806D01*
X014161Y002785D01*
X014202Y002761D01*
X014248Y002749D01*
X014390Y002749D01*
X014532Y002749D01*
X014578Y002761D01*
X014619Y002785D01*
X014640Y002806D01*
X014661Y002785D01*
X014702Y002761D01*
X014748Y002749D01*
X014890Y002749D01*
X015032Y002749D01*
X015078Y002761D01*
X015119Y002785D01*
X015140Y002806D01*
X015390Y002840D02*
X015390Y002840D01*
X015665Y002840D02*
X024869Y002840D01*
X024870Y002440D02*
X016040Y002440D01*
X015940Y002679D02*
X015940Y004220D01*
X015540Y004220D02*
X015540Y003658D01*
X015591Y003640D02*
X016887Y003640D01*
X016740Y003787D02*
X016740Y001700D01*
X017140Y001700D02*
X017140Y003406D01*
X017290Y003690D02*
X018550Y003690D01*
X018565Y003705D01*
X019275Y003705D01*
X020125Y003705D01*
X020560Y003705D01*
X020985Y003705D01*
X021442Y003640D02*
X025313Y003640D01*
X025140Y003478D02*
X025140Y005900D01*
X024840Y005640D02*
X028286Y005640D01*
X028340Y005749D02*
X028340Y007082D01*
X028660Y006840D02*
X024840Y006840D01*
X025540Y006497D02*
X025540Y012049D01*
X025140Y012049D02*
X025140Y006480D01*
X025540Y005883D02*
X025540Y003772D01*
X025940Y003861D02*
X025940Y005883D01*
X026068Y006040D02*
X028660Y006040D01*
X028660Y006440D02*
X025999Y006440D01*
X025940Y006497D02*
X025940Y012049D01*
X026340Y012049D02*
X026340Y003860D01*
X026740Y003863D02*
X026740Y012049D01*
X027140Y012084D02*
X027140Y003761D01*
X027336Y003640D02*
X028461Y003640D01*
X028461Y003763D02*
X028461Y003229D01*
X029151Y003229D01*
X029151Y003919D01*
X028617Y003919D01*
X028571Y003907D01*
X028530Y003883D01*
X028497Y003850D01*
X028473Y003809D01*
X028461Y003763D01*
X028740Y003919D02*
X028740Y005019D01*
X029011Y004840D02*
X024840Y004840D01*
X024740Y004616D02*
X024740Y001700D01*
X024340Y001700D02*
X024340Y004221D01*
X024564Y004440D02*
X029781Y004440D01*
X029940Y004348D02*
X029940Y003875D01*
X029932Y003883D02*
X029891Y003907D01*
X029845Y003919D01*
X029311Y003919D01*
X029311Y003229D01*
X029151Y003229D01*
X029151Y003069D01*
X028461Y003069D01*
X028461Y002534D01*
X028473Y002488D01*
X028497Y002447D01*
X028530Y002414D01*
X028571Y002390D01*
X028617Y002378D01*
X029151Y002378D01*
X029151Y003068D01*
X029311Y003068D01*
X029311Y002378D01*
X029845Y002378D01*
X029891Y002390D01*
X029932Y002414D01*
X029966Y002447D01*
X029989Y002488D01*
X030002Y002534D01*
X030002Y003069D01*
X029311Y003069D01*
X029311Y003229D01*
X030002Y003229D01*
X030002Y003763D01*
X029989Y003809D01*
X029966Y003850D01*
X029932Y003883D01*
X030002Y003640D02*
X030639Y003640D01*
X030740Y003741D02*
X030740Y005002D01*
X030740Y005118D02*
X030740Y005502D01*
X030734Y005508D02*
X030768Y005474D01*
X030808Y005451D01*
X030808Y005118D01*
X030693Y005118D01*
X030693Y005555D01*
X030451Y005555D01*
X030405Y005543D01*
X030364Y005519D01*
X030331Y005485D01*
X030320Y005467D01*
X030320Y006361D01*
X030335Y006376D01*
X030390Y006508D01*
X030390Y006652D01*
X030335Y006784D01*
X030234Y006885D01*
X030102Y006940D01*
X029958Y006940D01*
X029840Y006891D01*
X029840Y015780D01*
X029910Y015850D01*
X030318Y015850D01*
X030424Y015894D01*
X030724Y016194D01*
X031044Y016194D01*
X031132Y016230D01*
X031200Y016298D01*
X031237Y016386D01*
X031237Y016934D01*
X031213Y016990D01*
X031237Y017046D01*
X031237Y017384D01*
X031408Y017556D01*
X031408Y017090D01*
X031445Y017002D01*
X031467Y016980D01*
X031445Y016958D01*
X031408Y016870D01*
X031408Y016381D01*
X031445Y016293D01*
X031513Y016225D01*
X031601Y016189D01*
X032129Y016189D01*
X032205Y016220D01*
X032215Y016216D01*
X032215Y015912D01*
X032085Y015782D01*
X031965Y015732D01*
X031858Y015625D01*
X031800Y015486D01*
X031800Y015334D01*
X031858Y015195D01*
X031965Y015088D01*
X032104Y015030D01*
X032256Y015030D01*
X032395Y015088D01*
X032502Y015195D01*
X032552Y015315D01*
X032825Y015588D01*
X032875Y015709D01*
X032875Y016216D01*
X032885Y016220D01*
X032961Y016189D01*
X033489Y016189D01*
X033577Y016225D01*
X033615Y016263D01*
X033619Y016261D01*
X033665Y016249D01*
X033887Y016249D01*
X033887Y016607D01*
X033923Y016607D01*
X033923Y016249D01*
X034145Y016249D01*
X034191Y016261D01*
X034232Y016284D01*
X034266Y016318D01*
X034289Y016359D01*
X034302Y016405D01*
X034302Y016607D01*
X033923Y016607D01*
X033923Y016644D01*
X034302Y016644D01*
X034302Y016846D01*
X034289Y016892D01*
X034266Y016933D01*
X034261Y016938D01*
X034325Y017002D01*
X034333Y017022D01*
X034347Y016990D01*
X034414Y016922D01*
X034503Y016886D01*
X035070Y016886D01*
X035143Y016916D01*
X035159Y016899D01*
X035302Y016840D01*
X034302Y016840D01*
X034414Y016794D02*
X034347Y016726D01*
X034310Y016638D01*
X034310Y016326D01*
X034347Y016238D01*
X034414Y016170D01*
X034438Y016160D01*
X034435Y016157D01*
X034425Y016132D01*
X034310Y016180D01*
X034150Y016180D01*
X034003Y016119D01*
X033891Y016007D01*
X033830Y015860D01*
X033830Y015700D01*
X033891Y015553D01*
X033950Y015494D01*
X033950Y003917D01*
X033593Y003560D01*
X032890Y003560D01*
X032890Y003632D01*
X032835Y003764D01*
X032820Y003779D01*
X032820Y005861D01*
X032835Y005876D01*
X032890Y006008D01*
X032890Y006152D01*
X032835Y006284D01*
X032734Y006385D01*
X032602Y006440D01*
X032458Y006440D01*
X032326Y006385D01*
X032225Y006284D01*
X032185Y006188D01*
X032117Y006255D01*
X032029Y006292D01*
X031540Y006292D01*
X031452Y006255D01*
X031388Y006191D01*
X031383Y006196D01*
X031342Y006219D01*
X031296Y006232D01*
X031094Y006232D01*
X031094Y005853D01*
X031057Y005853D01*
X031057Y005817D01*
X030699Y005817D01*
X030699Y005595D01*
X030711Y005549D01*
X030734Y005508D01*
X030699Y005640D02*
X030320Y005640D01*
X030340Y005495D02*
X030340Y006388D01*
X030362Y006440D02*
X033950Y006440D01*
X033950Y006040D02*
X032890Y006040D01*
X032740Y006379D02*
X032740Y012643D01*
X032778Y012735D02*
X032658Y012444D01*
X032435Y012222D01*
X032144Y012101D01*
X031830Y012101D01*
X031539Y012222D01*
X031316Y012444D01*
X031196Y012735D01*
X031196Y013050D01*
X031316Y013341D01*
X031539Y013563D01*
X031830Y013684D01*
X032144Y013684D01*
X032435Y013563D01*
X032658Y013341D01*
X032778Y013050D01*
X032778Y012735D01*
X032778Y012840D02*
X033950Y012840D01*
X034610Y012840D02*
X036390Y012840D01*
X036970Y012840D02*
X040790Y012840D01*
X041370Y012840D02*
X050680Y012840D01*
X050680Y013240D02*
X050336Y013240D01*
X050340Y013247D02*
X050340Y008184D01*
X049940Y008046D02*
X049940Y013004D01*
X049540Y012950D02*
X049540Y007655D01*
X049531Y007640D02*
X037570Y007640D01*
X037570Y008040D02*
X049929Y008040D01*
X050680Y008440D02*
X037570Y008440D01*
X037570Y008840D02*
X050680Y008840D01*
X050680Y009240D02*
X040800Y009240D01*
X040740Y009220D02*
X040740Y001700D01*
X040340Y001700D02*
X040340Y009460D01*
X040320Y009652D02*
X040375Y009784D01*
X040476Y009885D01*
X040608Y009940D01*
X040630Y009940D01*
X040790Y010100D01*
X040790Y011536D01*
X040752Y011520D01*
X040608Y011520D01*
X040476Y011575D01*
X040461Y011590D01*
X037500Y011590D01*
X037270Y011360D01*
X037270Y009640D01*
X037540Y009529D02*
X037540Y011590D01*
X037940Y011590D02*
X037940Y001700D01*
X037540Y001700D02*
X037540Y003584D01*
X037561Y003605D02*
X037660Y003845D01*
X037660Y004105D01*
X037561Y004345D01*
X037377Y004529D01*
X037137Y004629D01*
X036877Y004629D01*
X036637Y004529D01*
X036453Y004345D01*
X036353Y004105D01*
X036353Y003845D01*
X036453Y003605D01*
X036637Y003421D01*
X036877Y003322D01*
X037137Y003322D01*
X037377Y003421D01*
X037561Y003605D01*
X037575Y003640D02*
X050323Y003640D01*
X050340Y003666D02*
X050340Y005488D01*
X050680Y005240D02*
X037632Y005240D01*
X037540Y005081D02*
X037540Y004366D01*
X037466Y004440D02*
X050680Y004440D01*
X050547Y004040D02*
X037660Y004040D01*
X037140Y004627D02*
X037140Y004998D01*
X036979Y004840D02*
X050680Y004840D01*
X049940Y005628D02*
X049940Y003133D01*
X050026Y003240D02*
X034207Y003240D01*
X034340Y003373D02*
X034340Y001700D01*
X033940Y001700D02*
X033940Y002973D01*
X033540Y002900D02*
X033540Y001700D01*
X033140Y001700D02*
X033140Y002900D01*
X032740Y002900D02*
X032740Y001700D01*
X032340Y001700D02*
X032340Y002900D01*
X032093Y002840D02*
X049663Y002840D01*
X049540Y002724D02*
X049540Y006018D01*
X049523Y006040D02*
X037570Y006040D01*
X037570Y006440D02*
X049392Y006440D01*
X049384Y006840D02*
X037570Y006840D01*
X037570Y007240D02*
X049388Y007240D01*
X049928Y005640D02*
X037570Y005640D01*
X036390Y005640D02*
X034610Y005640D01*
X033950Y005640D02*
X032820Y005640D01*
X032820Y005240D02*
X033950Y005240D01*
X034610Y005240D02*
X036369Y005240D01*
X036340Y005170D02*
X036340Y016158D01*
X036210Y016020D02*
X035995Y015805D01*
X035545Y015805D01*
X035540Y015787D02*
X035540Y001700D01*
X035140Y001700D02*
X035140Y015373D01*
X034740Y015348D02*
X034740Y001700D01*
X035940Y001700D02*
X035940Y016134D01*
X035921Y016040D02*
X037224Y016040D01*
X037140Y016183D02*
X037140Y014150D01*
X037030Y014040D02*
X034610Y014040D01*
X034610Y013640D02*
X036630Y013640D01*
X036740Y013750D02*
X036740Y016089D01*
X035921Y015787D02*
X035563Y015787D01*
X035563Y015408D01*
X035765Y015408D01*
X035811Y015421D01*
X035852Y015444D01*
X035886Y015478D01*
X035909Y015519D01*
X035921Y015565D01*
X035921Y015787D01*
X035921Y015640D02*
X037641Y015640D01*
X037540Y015713D02*
X037540Y014550D01*
X037430Y014440D02*
X034610Y014440D01*
X033950Y014440D02*
X029840Y014440D01*
X029840Y014040D02*
X033950Y014040D01*
X033950Y013640D02*
X032250Y013640D01*
X032340Y013603D02*
X032340Y015065D01*
X032521Y015240D02*
X033950Y015240D01*
X033940Y015504D02*
X033940Y003907D01*
X033950Y004040D02*
X032820Y004040D01*
X032820Y004440D02*
X033950Y004440D01*
X034610Y004440D02*
X036547Y004440D01*
X036740Y004572D02*
X036740Y004690D01*
X036381Y004840D02*
X034610Y004840D01*
X033950Y004840D02*
X032820Y004840D01*
X031355Y004440D02*
X030279Y004440D01*
X030340Y004508D02*
X030340Y001700D01*
X029940Y001700D02*
X029940Y002422D01*
X029958Y002440D02*
X030862Y002440D01*
X030740Y002556D02*
X030740Y001700D01*
X031140Y001700D02*
X031140Y002325D01*
X031540Y002340D02*
X031540Y001700D01*
X031940Y001700D02*
X031940Y002592D01*
X031782Y002440D02*
X049181Y002440D01*
X049140Y002412D02*
X049140Y013054D01*
X048878Y013240D02*
X041370Y013240D01*
X040790Y013240D02*
X037050Y013240D01*
X037140Y013330D02*
X037140Y012050D01*
X037130Y012040D02*
X036970Y012040D01*
X036390Y012040D02*
X034610Y012040D01*
X034610Y011640D02*
X036390Y011640D01*
X036390Y011240D02*
X034610Y011240D01*
X033950Y011240D02*
X029840Y011240D01*
X029840Y010840D02*
X033950Y010840D01*
X034610Y010840D02*
X036390Y010840D01*
X037270Y010840D02*
X040790Y010840D01*
X041370Y010840D02*
X050680Y010840D01*
X050680Y010440D02*
X041370Y010440D01*
X040790Y010440D02*
X037270Y010440D01*
X036390Y010440D02*
X034610Y010440D01*
X033950Y010440D02*
X029840Y010440D01*
X029840Y010040D02*
X033950Y010040D01*
X033950Y009640D02*
X029840Y009640D01*
X029840Y009240D02*
X033950Y009240D01*
X034610Y009240D02*
X036390Y009240D01*
X036390Y008840D02*
X034610Y008840D01*
X033950Y008840D02*
X029840Y008840D01*
X029840Y008440D02*
X033950Y008440D01*
X034610Y008440D02*
X036390Y008440D01*
X036390Y008040D02*
X034610Y008040D01*
X034610Y007640D02*
X036390Y007640D01*
X036390Y007240D02*
X034610Y007240D01*
X033950Y007240D02*
X029840Y007240D01*
X029940Y006932D02*
X029940Y015850D01*
X029840Y015640D02*
X031873Y015640D01*
X031940Y015707D02*
X031940Y016189D01*
X032215Y016040D02*
X030570Y016040D01*
X030740Y016194D02*
X030740Y006168D01*
X030734Y006162D02*
X030711Y006121D01*
X030699Y006075D01*
X030699Y005853D01*
X031057Y005853D01*
X031057Y006232D01*
X030855Y006232D01*
X030809Y006219D01*
X030768Y006196D01*
X030734Y006162D01*
X030699Y006040D02*
X030320Y006040D01*
X030740Y005853D02*
X030740Y005817D01*
X031057Y006040D02*
X031094Y006040D01*
X031140Y006232D02*
X031140Y016238D01*
X031237Y016440D02*
X031408Y016440D01*
X031540Y016214D02*
X031540Y013564D01*
X031724Y013640D02*
X029840Y013640D01*
X029840Y013240D02*
X031275Y013240D01*
X031196Y012840D02*
X029840Y012840D01*
X029840Y012440D02*
X031321Y012440D01*
X031540Y012221D02*
X031540Y006292D01*
X031940Y006292D02*
X031940Y012101D01*
X032340Y012182D02*
X032340Y006391D01*
X033950Y006840D02*
X030279Y006840D01*
X030340Y006772D02*
X030340Y015859D01*
X029840Y015240D02*
X031839Y015240D01*
X031940Y015113D02*
X031940Y013684D01*
X032700Y013240D02*
X033950Y013240D01*
X034610Y013240D02*
X036390Y013240D01*
X037450Y013640D02*
X040790Y013640D01*
X040790Y014040D02*
X037850Y014040D01*
X037940Y014130D02*
X037940Y012170D01*
X037540Y012170D02*
X037540Y013730D01*
X038250Y014440D02*
X040780Y014440D01*
X041066Y014840D02*
X038650Y014840D01*
X038740Y014930D02*
X038740Y012170D01*
X038340Y012170D02*
X038340Y014530D01*
X037940Y014950D02*
X037940Y015489D01*
X038230Y015240D02*
X034610Y015240D01*
X035526Y015640D02*
X035563Y015640D01*
X034835Y015805D02*
X034835Y016433D01*
X034786Y016482D01*
X034310Y016440D02*
X034302Y016440D01*
X034340Y016254D02*
X034340Y016167D01*
X033940Y016249D02*
X033940Y016056D01*
X033924Y016040D02*
X032875Y016040D01*
X033140Y016189D02*
X033140Y003560D01*
X032887Y003640D02*
X033673Y003640D01*
X033540Y003560D02*
X033540Y016210D01*
X033887Y016440D02*
X033923Y016440D01*
X033940Y016607D02*
X033940Y016644D01*
X034340Y016710D02*
X034340Y017006D01*
X034414Y016794D02*
X034503Y016830D01*
X035070Y016830D01*
X035159Y016794D01*
X035226Y016726D01*
X035263Y016638D01*
X035263Y016326D01*
X035226Y016238D01*
X035191Y016202D01*
X035232Y016161D01*
X035237Y016166D01*
X035278Y016189D01*
X035324Y016202D01*
X035407Y016202D01*
X035371Y016238D01*
X035334Y016326D01*
X035334Y016638D01*
X035371Y016726D01*
X035394Y016750D01*
X035394Y016840D01*
X035302Y016840D01*
X035140Y016802D02*
X035140Y016915D01*
X034740Y016886D02*
X034740Y016830D01*
X035263Y016440D02*
X035334Y016440D01*
X035810Y016482D02*
X036682Y016482D01*
X036725Y016525D01*
X036282Y016802D02*
X036226Y016802D01*
X036226Y016858D01*
X035810Y016858D01*
X035838Y016830D01*
X036210Y016830D01*
X036226Y016840D02*
X036297Y016840D01*
X036305Y016858D02*
X036282Y016802D01*
X036305Y016858D02*
X036327Y016880D01*
X036305Y016902D01*
X036268Y016990D01*
X036268Y017035D01*
X036250Y016990D01*
X036226Y016966D01*
X036226Y016858D01*
X035810Y016858D01*
X035810Y016858D01*
X035940Y016858D02*
X035940Y016858D01*
X036720Y017230D02*
X036725Y017235D01*
X034006Y017234D02*
X033905Y017335D01*
X033775Y018150D02*
X032447Y018150D01*
X032042Y018555D01*
X032042Y018770D01*
X032094Y018770D01*
X032218Y018822D01*
X032314Y018917D01*
X032365Y019042D01*
X032365Y019176D01*
X032314Y019301D01*
X032218Y019396D01*
X032094Y019447D01*
X032040Y019447D01*
X032040Y019511D01*
X032004Y019599D01*
X031936Y019667D01*
X031848Y019703D01*
X030808Y019703D01*
X030720Y019667D01*
X030696Y019643D01*
X030688Y019643D01*
X030653Y019643D01*
X030850Y019840D01*
X031361Y019840D01*
X031376Y019825D01*
X031508Y019770D01*
X031652Y019770D01*
X031784Y019825D01*
X031885Y019926D01*
X031886Y019928D01*
X031886Y019892D01*
X031898Y019847D01*
X031922Y019805D01*
X031956Y019772D01*
X031997Y019748D01*
X032042Y019736D01*
X032675Y019736D01*
X032675Y020210D01*
X031937Y020210D01*
X031885Y020334D01*
X031784Y020435D01*
X031748Y020450D01*
X031886Y020450D01*
X031886Y020370D01*
X032675Y020370D01*
X032675Y020210D01*
X032835Y020210D01*
X032835Y019736D01*
X033240Y019736D01*
X033240Y019234D01*
X033234Y019205D01*
X033240Y019171D01*
X033240Y019136D01*
X033251Y019109D01*
X033279Y018955D01*
X033278Y018925D01*
X033291Y018893D01*
X033297Y018860D01*
X033313Y018834D01*
X033332Y018787D01*
X033332Y018778D01*
X033354Y018727D01*
X033374Y018676D01*
X033380Y018670D01*
X033383Y018650D01*
X033406Y018612D01*
X033423Y018572D01*
X033438Y018558D01*
X033449Y018540D01*
X033451Y018529D01*
X033481Y018486D01*
X033508Y018441D01*
X033518Y018434D01*
X033534Y018411D01*
X033541Y018391D01*
X033570Y018359D01*
X033594Y018324D01*
X033613Y018313D01*
X033662Y018258D01*
X033670Y018243D01*
X033705Y018212D01*
X033737Y018177D01*
X033752Y018170D01*
X033775Y018150D01*
X033540Y018150D02*
X033540Y018394D01*
X033509Y018440D02*
X032157Y018440D01*
X032340Y018257D02*
X032340Y018981D01*
X032236Y018840D02*
X033310Y018840D01*
X033240Y019240D02*
X032339Y019240D01*
X032340Y019237D02*
X032340Y019736D01*
X031963Y019640D02*
X033240Y019640D01*
X033140Y019736D02*
X033140Y018150D01*
X032740Y018150D02*
X032740Y020210D01*
X032755Y020290D02*
X032670Y020290D01*
X032380Y020580D01*
X032340Y020370D02*
X032340Y020210D01*
X032675Y020040D02*
X032835Y020040D01*
X032835Y020210D02*
X032835Y020370D01*
X033240Y020370D01*
X033240Y020210D01*
X032835Y020210D01*
X033140Y020210D02*
X033140Y020370D01*
X031940Y020370D02*
X031940Y020210D01*
X031886Y020440D02*
X031772Y020440D01*
X031412Y020450D02*
X031376Y020435D01*
X031361Y020420D01*
X030672Y020420D01*
X030566Y020376D01*
X030400Y020210D01*
X029725Y020210D01*
X029725Y020370D01*
X030514Y020370D01*
X030514Y020450D01*
X031412Y020450D01*
X031388Y020440D02*
X030514Y020440D01*
X030340Y020370D02*
X030340Y020210D01*
X029940Y020210D02*
X029940Y020370D01*
X029935Y020580D02*
X029645Y020290D01*
X029605Y020330D01*
X029330Y020330D01*
X029230Y020230D01*
X029140Y020210D02*
X029140Y020298D01*
X029144Y020309D02*
X029143Y020325D01*
X029148Y020337D01*
X029149Y020370D01*
X029565Y020370D01*
X029565Y020210D01*
X029725Y020210D01*
X029725Y019736D01*
X029926Y019736D01*
X028615Y018425D01*
X028086Y018954D01*
X028004Y019036D01*
X027898Y019080D01*
X027444Y019080D01*
X027194Y019330D01*
X026854Y019330D01*
X026724Y019460D01*
X028101Y019460D01*
X028126Y019454D01*
X028164Y019460D01*
X028204Y019460D01*
X028227Y019470D01*
X028283Y019478D01*
X028311Y019476D01*
X028345Y019488D01*
X028382Y019493D01*
X028405Y019508D01*
X028453Y019524D01*
X028476Y019525D01*
X028513Y019544D01*
X028552Y019557D01*
X028569Y019572D01*
X028603Y019588D01*
X028631Y019596D01*
X028659Y019617D01*
X028690Y019632D01*
X028709Y019655D01*
X028730Y019670D01*
X028751Y019679D01*
X028780Y019708D01*
X028813Y019732D01*
X028825Y019752D01*
X028845Y019772D01*
X028886Y019748D01*
X028932Y019736D01*
X029565Y019736D01*
X029565Y020210D01*
X029112Y020210D01*
X029115Y020218D01*
X029125Y020235D01*
X029132Y020273D01*
X029144Y020309D01*
X029540Y020370D02*
X029540Y020210D01*
X029565Y020040D02*
X029725Y020040D01*
X029540Y019736D02*
X029540Y019350D01*
X029430Y019240D02*
X027284Y019240D01*
X027140Y019330D02*
X027140Y019460D01*
X027540Y019460D02*
X027540Y019080D01*
X027940Y019062D02*
X027940Y019460D01*
X028340Y019486D02*
X028340Y018700D01*
X028200Y018840D02*
X029030Y018840D01*
X029140Y018950D02*
X029140Y019736D01*
X028845Y019772D02*
X028845Y019772D01*
X028740Y019674D02*
X028740Y018550D01*
X028630Y018440D02*
X028600Y018440D01*
X029140Y018130D02*
X029140Y017786D01*
X029254Y017786D02*
X029020Y017786D01*
X029020Y018010D01*
X030040Y019030D01*
X030086Y018917D01*
X030182Y018822D01*
X030306Y018770D01*
X030420Y018770D01*
X030420Y018510D01*
X030046Y018510D01*
X029929Y018461D01*
X029254Y017786D01*
X029050Y018040D02*
X029507Y018040D01*
X029540Y018073D02*
X029540Y018530D01*
X029640Y018540D02*
X029380Y018280D01*
X029450Y018440D02*
X029907Y018440D01*
X029940Y018466D02*
X029940Y018930D01*
X029850Y018840D02*
X030164Y018840D01*
X030340Y018770D02*
X030340Y018510D01*
X030688Y018542D02*
X030690Y018540D01*
X029640Y018540D01*
X030110Y018190D02*
X029240Y017320D01*
X028250Y017240D02*
X027712Y017240D01*
X027699Y017233D02*
X027786Y017278D01*
X027866Y017335D01*
X027935Y017404D01*
X027992Y017484D01*
X028037Y017571D01*
X028067Y017664D01*
X028080Y017742D01*
X027528Y017742D01*
X027528Y017878D01*
X027392Y017878D01*
X027392Y017742D01*
X027528Y017742D01*
X027528Y017190D01*
X027606Y017203D01*
X027699Y017233D01*
X027540Y017192D02*
X027540Y008234D01*
X027460Y008040D02*
X024803Y008040D01*
X024740Y008114D02*
X024740Y012049D01*
X024340Y012049D02*
X024340Y009601D01*
X024445Y009601D02*
X024223Y009601D01*
X024223Y009243D01*
X024602Y009243D01*
X024602Y009445D01*
X024589Y009491D01*
X024566Y009532D01*
X024532Y009566D01*
X024491Y009589D01*
X024445Y009601D01*
X024340Y009243D02*
X024340Y009206D01*
X024223Y009240D02*
X028660Y009240D01*
X028660Y008840D02*
X024628Y008840D01*
X024662Y008440D02*
X027695Y008440D01*
X027940Y008602D02*
X027940Y017412D01*
X028059Y017640D02*
X028250Y017640D01*
X028080Y017878D02*
X028067Y017956D01*
X028037Y018049D01*
X027992Y018136D01*
X027935Y018216D01*
X027866Y018285D01*
X027786Y018342D01*
X027699Y018387D01*
X027606Y018417D01*
X027528Y018430D01*
X027528Y017878D01*
X028080Y017878D01*
X027940Y017878D02*
X027940Y017742D01*
X028040Y018040D02*
X028180Y018040D01*
X027940Y018208D02*
X027940Y018280D01*
X027780Y018440D02*
X027384Y018440D01*
X027540Y018428D02*
X027540Y018500D01*
X026740Y018256D02*
X026740Y016516D01*
X026340Y016516D02*
X026340Y018996D01*
X026430Y018840D02*
X025670Y018840D01*
X025670Y018770D02*
X025210Y018770D01*
X025210Y018310D01*
X025389Y018310D01*
X025670Y018591D01*
X025670Y018770D01*
X025540Y018770D02*
X025540Y018810D01*
X025540Y019119D02*
X025540Y019130D01*
X025940Y019130D02*
X025940Y016516D01*
X025540Y016516D02*
X025540Y018461D01*
X025519Y018440D02*
X026556Y018440D01*
X026880Y018040D02*
X025280Y018040D01*
X025277Y018049D02*
X025232Y018136D01*
X025175Y018216D01*
X025106Y018285D01*
X025071Y018310D01*
X025170Y018310D01*
X025170Y018770D01*
X024710Y018770D01*
X024710Y018591D01*
X024902Y018399D01*
X024846Y018417D01*
X024768Y018430D01*
X024768Y017878D01*
X025320Y017878D01*
X025307Y017956D01*
X025277Y018049D01*
X025140Y017878D02*
X025140Y017742D01*
X025320Y017742D02*
X024768Y017742D01*
X024768Y017878D01*
X024632Y017878D01*
X024632Y018430D01*
X024554Y018417D01*
X024461Y018387D01*
X024374Y018342D01*
X024294Y018285D01*
X024225Y018216D01*
X024168Y018136D01*
X024123Y018049D01*
X024093Y017956D01*
X024080Y017878D01*
X024632Y017878D01*
X024632Y017742D01*
X024768Y017742D01*
X024768Y017190D01*
X024846Y017203D01*
X024939Y017233D01*
X025026Y017278D01*
X025106Y017335D01*
X025175Y017404D01*
X025232Y017484D01*
X025277Y017571D01*
X025307Y017664D01*
X025320Y017742D01*
X025299Y017640D02*
X026861Y017640D01*
X026853Y017664D02*
X026883Y017571D01*
X026928Y017484D01*
X026985Y017404D01*
X027054Y017335D01*
X027134Y017278D01*
X027221Y017233D01*
X027314Y017203D01*
X027392Y017190D01*
X027392Y017742D01*
X026840Y017742D01*
X026853Y017664D01*
X027140Y017742D02*
X027140Y017878D01*
X027392Y018040D02*
X027528Y018040D01*
X027540Y017878D02*
X027540Y017742D01*
X027528Y017640D02*
X027392Y017640D01*
X027392Y017240D02*
X027528Y017240D01*
X027208Y017240D02*
X024952Y017240D01*
X024768Y017240D02*
X024632Y017240D01*
X024632Y017190D02*
X024632Y017742D01*
X024080Y017742D01*
X024093Y017664D01*
X024123Y017571D01*
X024168Y017484D01*
X024225Y017404D01*
X024294Y017335D01*
X024374Y017278D01*
X024461Y017233D01*
X024554Y017203D01*
X024632Y017190D01*
X024448Y017240D02*
X022264Y017240D01*
X022340Y017316D02*
X022340Y016516D01*
X021940Y016516D02*
X021940Y017130D01*
X021540Y017130D02*
X021540Y016516D01*
X021140Y016516D02*
X021140Y017130D01*
X020740Y017130D02*
X020740Y016516D01*
X020340Y016516D02*
X020340Y017130D01*
X019940Y017130D02*
X019940Y016516D01*
X019540Y016516D02*
X019540Y017130D01*
X019140Y017130D02*
X019140Y016516D01*
X018740Y016516D02*
X018740Y017130D01*
X018340Y017130D02*
X018340Y016516D01*
X017940Y016516D02*
X017940Y017130D01*
X017540Y017130D02*
X017540Y010020D01*
X017865Y010040D02*
X017079Y010040D01*
X017140Y010020D02*
X017140Y017130D01*
X016740Y017130D02*
X016740Y010190D01*
X016660Y010440D02*
X017848Y010440D01*
X017940Y010713D02*
X017940Y010735D01*
X017908Y010840D02*
X016510Y010840D01*
X016479Y011240D02*
X017908Y011240D01*
X017940Y011334D02*
X017940Y012049D01*
X018340Y012049D02*
X018340Y011411D01*
X018323Y011240D02*
X018287Y011240D01*
X017940Y011053D02*
X017940Y011016D01*
X018528Y011640D02*
X016221Y011640D01*
X016085Y012040D02*
X018562Y012040D01*
X019408Y012040D02*
X028460Y012040D01*
X028395Y011640D02*
X020594Y011640D01*
X020740Y011543D02*
X020740Y012049D01*
X021140Y012049D02*
X021140Y011582D01*
X021073Y011240D02*
X021036Y011240D01*
X021540Y011611D02*
X021540Y012049D01*
X021940Y012049D02*
X021940Y011605D01*
X021961Y011599D02*
X021915Y011611D01*
X021693Y011611D01*
X021693Y011253D01*
X022072Y011253D01*
X022072Y011455D01*
X022059Y011501D01*
X022036Y011542D01*
X022002Y011576D01*
X021961Y011599D01*
X021940Y011253D02*
X021940Y011216D01*
X021693Y011240D02*
X028309Y011240D01*
X028340Y011175D02*
X028340Y008664D01*
X029840Y008040D02*
X033950Y008040D01*
X033950Y007640D02*
X029840Y007640D01*
X027940Y007144D02*
X027940Y001700D01*
X028340Y001700D02*
X028340Y005311D01*
X028411Y005240D02*
X024840Y005240D01*
X023140Y004683D02*
X023140Y004647D01*
X022979Y004840D02*
X021277Y004840D01*
X021540Y005144D02*
X021540Y001700D01*
X021140Y001700D02*
X021140Y003269D01*
X020740Y003269D02*
X020740Y001700D01*
X020340Y001700D02*
X020340Y003269D01*
X019940Y003269D02*
X019940Y001700D01*
X019540Y001700D02*
X019540Y003269D01*
X019140Y003269D02*
X019140Y001700D01*
X018740Y001700D02*
X018740Y003269D01*
X018340Y003269D02*
X018340Y001700D01*
X017940Y001700D02*
X017940Y003370D01*
X017540Y003370D02*
X017540Y001700D01*
X016340Y001700D02*
X016340Y004187D01*
X016487Y004040D02*
X015313Y004040D01*
X015140Y003858D02*
X015140Y003858D01*
X015390Y003640D02*
X015390Y003640D01*
X014740Y003858D02*
X014740Y003858D01*
X014340Y003858D02*
X014340Y003858D01*
X014047Y004040D02*
X001985Y004040D01*
X001940Y004143D02*
X001940Y005488D01*
X001642Y005240D02*
X004739Y005240D01*
X004740Y005242D02*
X004740Y014608D01*
X005140Y014730D02*
X005140Y005555D01*
X005184Y005574D02*
X004944Y005474D01*
X004760Y005290D01*
X004660Y005050D01*
X004660Y004790D01*
X004760Y004550D01*
X004944Y004366D01*
X005184Y004267D01*
X005444Y004267D01*
X005684Y004366D01*
X005868Y004550D01*
X005967Y004790D01*
X005967Y005050D01*
X005868Y005290D01*
X005684Y005474D01*
X005444Y005574D01*
X005184Y005574D01*
X005540Y005534D02*
X005540Y014853D01*
X005498Y014840D02*
X010366Y014840D01*
X010340Y014920D02*
X010340Y001700D01*
X009940Y001700D02*
X009940Y016154D01*
X009551Y016040D02*
X011823Y016040D01*
X011940Y016078D02*
X011940Y016740D01*
X012280Y016840D02*
X012588Y016840D01*
X012340Y016858D02*
X012340Y016059D01*
X012357Y016040D02*
X012877Y016040D01*
X012740Y016314D02*
X012740Y008861D01*
X013021Y008840D02*
X013269Y008840D01*
X013140Y008745D02*
X013140Y015737D01*
X013263Y015640D02*
X012499Y015640D01*
X012588Y015365D02*
X012376Y016017D01*
X012314Y016090D01*
X012229Y016133D01*
X012134Y016141D01*
X011481Y015929D01*
X011409Y015867D01*
X011365Y015782D01*
X011358Y015687D01*
X011562Y015058D01*
X011426Y015194D01*
X011353Y015267D01*
X011230Y015645D01*
X011168Y015718D01*
X011083Y015761D01*
X010988Y015769D01*
X010335Y015557D01*
X010263Y015495D01*
X010219Y015410D01*
X010212Y015314D01*
X010424Y014662D01*
X010486Y014589D01*
X010571Y014546D01*
X010666Y014538D01*
X011115Y014684D01*
X011390Y014410D01*
X011390Y013379D01*
X011295Y013284D01*
X011240Y013152D01*
X011240Y013008D01*
X011295Y012876D01*
X011396Y012775D01*
X011528Y012720D01*
X011672Y012720D01*
X011804Y012775D01*
X011905Y012876D01*
X011960Y013008D01*
X011960Y013078D01*
X011970Y013102D01*
X011970Y013886D01*
X012008Y013870D01*
X012152Y013870D01*
X012284Y013925D01*
X012385Y014026D01*
X012440Y014158D01*
X012440Y014302D01*
X012385Y014434D01*
X012370Y014449D01*
X012370Y015092D01*
X012464Y015123D01*
X012537Y015185D01*
X012580Y015270D01*
X012588Y015365D01*
X012565Y015240D02*
X015450Y015240D01*
X015450Y015640D02*
X014997Y015640D01*
X015140Y015771D02*
X015140Y014854D01*
X015174Y014840D02*
X015450Y014840D01*
X014843Y014840D02*
X012370Y014840D01*
X011540Y015080D02*
X011540Y015126D01*
X011503Y015240D02*
X011380Y015240D01*
X011373Y015640D02*
X011232Y015640D01*
X011140Y015732D02*
X011140Y016506D01*
X010915Y016440D02*
X012698Y016440D01*
X011540Y016623D02*
X011540Y015948D01*
X010740Y015688D02*
X010740Y016389D01*
X010340Y016271D02*
X010340Y015558D01*
X010592Y015640D02*
X008186Y015640D01*
X008340Y015685D02*
X008340Y009890D01*
X008352Y009890D02*
X008208Y009890D01*
X008076Y009835D01*
X007975Y009734D01*
X007920Y009602D01*
X007920Y009458D01*
X007975Y009326D01*
X007990Y009311D01*
X007990Y005749D01*
X007975Y005734D01*
X007920Y005602D01*
X007920Y005458D01*
X007975Y005326D01*
X008076Y005225D01*
X008208Y005170D01*
X008352Y005170D01*
X008484Y005225D01*
X008585Y005326D01*
X008640Y005458D01*
X008640Y005602D01*
X008585Y005734D01*
X008570Y005749D01*
X008570Y009311D01*
X008585Y009326D01*
X008640Y009458D01*
X008640Y009602D01*
X008585Y009734D01*
X008484Y009835D01*
X008352Y009890D01*
X008624Y009640D02*
X014639Y009640D01*
X014639Y010040D02*
X001600Y010040D01*
X001600Y009640D02*
X007936Y009640D01*
X007940Y009650D02*
X007940Y015568D01*
X007540Y015451D02*
X007540Y001700D01*
X007940Y001700D02*
X007940Y005410D01*
X008061Y005240D02*
X005889Y005240D01*
X005940Y005116D02*
X005940Y014976D01*
X006340Y015098D02*
X006340Y001700D01*
X006740Y001700D02*
X006740Y015217D01*
X006817Y015240D02*
X010236Y015240D01*
X008740Y015802D02*
X008740Y001700D01*
X009140Y001700D02*
X009140Y015920D01*
X009540Y016037D02*
X009540Y001700D01*
X008340Y001700D02*
X008340Y005170D01*
X008499Y005240D02*
X013532Y005240D01*
X013540Y004933D02*
X013540Y001700D01*
X013140Y001700D02*
X013140Y006937D01*
X013237Y006840D02*
X008570Y006840D01*
X007990Y006840D02*
X003270Y006840D01*
X003264Y006440D02*
X007990Y006440D01*
X007990Y006040D02*
X003109Y006040D01*
X003140Y006104D02*
X003140Y002583D01*
X003327Y002440D02*
X015320Y002440D01*
X014890Y002749D02*
X014890Y003205D01*
X014890Y003205D01*
X014890Y002749D01*
X014890Y002840D02*
X014890Y002840D01*
X014740Y002751D02*
X014740Y001700D01*
X014340Y001700D02*
X014340Y002749D01*
X014390Y002749D02*
X014390Y003205D01*
X014390Y002749D01*
X014390Y002840D02*
X014390Y002840D01*
X013940Y002749D02*
X013940Y001700D01*
X012740Y001700D02*
X012740Y007339D01*
X012850Y007240D02*
X008570Y007240D01*
X007990Y007240D02*
X003255Y007240D01*
X003140Y007589D02*
X003140Y013047D01*
X003540Y013083D02*
X003540Y002299D01*
X003940Y002085D02*
X003940Y013305D01*
X003855Y013240D02*
X011277Y013240D01*
X011970Y013240D02*
X015450Y013240D01*
X015140Y013549D02*
X015140Y012607D01*
X014973Y012440D02*
X001600Y012440D01*
X001600Y012040D02*
X014750Y012040D01*
X014740Y011972D02*
X014740Y013606D01*
X014657Y013640D02*
X011970Y013640D01*
X012340Y013981D02*
X012340Y008812D01*
X012389Y008840D02*
X008570Y008840D01*
X007990Y008840D02*
X001600Y008840D01*
X001600Y008440D02*
X007990Y008440D01*
X008570Y008440D02*
X012248Y008440D01*
X012705Y008425D02*
X013130Y008425D01*
X013130Y007400D01*
X014290Y006240D01*
X014290Y005890D01*
X013890Y005490D01*
X013890Y005275D01*
X013890Y004990D01*
X014340Y004540D01*
X016440Y004540D01*
X017290Y003690D01*
X018450Y003820D02*
X018565Y003705D01*
X021403Y004040D02*
X031355Y004040D01*
X031140Y003972D02*
X031140Y004605D01*
X030808Y004840D02*
X030693Y004840D01*
X030693Y005240D02*
X030808Y005240D01*
X029540Y004570D02*
X029540Y003919D01*
X029311Y003640D02*
X029151Y003640D01*
X029231Y003380D02*
X029231Y003149D01*
X029140Y003069D02*
X029140Y003229D01*
X029151Y003240D02*
X029311Y003240D01*
X029231Y003380D02*
X029000Y003380D01*
X028740Y003229D02*
X028740Y003069D01*
X028461Y003240D02*
X027668Y003240D01*
X027540Y003432D02*
X027540Y007512D01*
X027487Y007640D02*
X024840Y007640D01*
X024840Y007240D02*
X027761Y007240D01*
X024083Y007240D02*
X024046Y007240D01*
X024046Y007332D02*
X024046Y006953D01*
X024083Y006953D01*
X024083Y007627D01*
X024046Y007627D01*
X024046Y007332D01*
X024046Y006917D02*
X024083Y006917D01*
X024083Y006538D01*
X024083Y006273D01*
X024046Y006273D01*
X024046Y006917D01*
X024046Y006840D02*
X024083Y006840D01*
X024083Y006440D02*
X024046Y006440D01*
X024046Y006237D02*
X024046Y006039D01*
X024083Y006039D01*
X024083Y006237D01*
X024046Y006237D01*
X024046Y006040D02*
X024083Y006040D01*
X022600Y006040D02*
X022347Y006040D01*
X022340Y006024D02*
X022340Y005922D01*
X022309Y005640D02*
X022036Y005640D01*
X021940Y005544D02*
X021940Y001700D01*
X022340Y001700D02*
X022340Y004968D01*
X022309Y005240D02*
X021636Y005240D01*
X022740Y004851D02*
X022740Y001700D01*
X023140Y001700D02*
X023140Y004268D01*
X022979Y004440D02*
X021442Y004440D01*
X023337Y004440D02*
X023374Y004440D01*
X023540Y004268D02*
X023540Y001700D01*
X023940Y001700D02*
X023940Y004208D01*
X024983Y003240D02*
X015688Y003240D01*
X015540Y003205D02*
X015540Y003205D01*
X015390Y003205D02*
X015390Y003205D01*
X015390Y003240D02*
X015390Y003240D01*
X015140Y003205D02*
X015140Y003205D01*
X014740Y003205D02*
X014740Y003205D01*
X014390Y003205D02*
X014390Y003205D01*
X014340Y003205D02*
X014340Y003205D01*
X013940Y003205D02*
X013940Y003205D01*
X013890Y003205D02*
X013890Y002749D01*
X013890Y003205D01*
X013890Y003205D01*
X013890Y003240D02*
X013890Y003240D01*
X013592Y003240D02*
X002484Y003240D01*
X002340Y003430D02*
X002340Y005510D01*
X002704Y005640D02*
X007936Y005640D01*
X007940Y005650D02*
X007940Y009410D01*
X007990Y009240D02*
X001600Y009240D01*
X001940Y008190D02*
X001940Y013743D01*
X001600Y013640D02*
X002319Y013640D01*
X002340Y013599D02*
X002340Y008169D01*
X002694Y008040D02*
X007990Y008040D01*
X007990Y007640D02*
X003099Y007640D01*
X002740Y008012D02*
X002740Y013178D01*
X002640Y013240D02*
X001600Y013240D01*
X001600Y012840D02*
X011331Y012840D01*
X011540Y012720D02*
X011540Y001700D01*
X011940Y001700D02*
X011940Y012960D01*
X011869Y012840D02*
X015373Y012840D01*
X016380Y012840D02*
X017684Y012840D01*
X017684Y012440D02*
X016347Y012440D01*
X016340Y012424D02*
X016340Y011396D01*
X015075Y011555D02*
X015075Y010875D01*
X015075Y010195D01*
X015075Y009415D01*
X015075Y008439D01*
X014940Y008425D01*
X014265Y008425D01*
X013585Y008425D01*
X013130Y008425D01*
X013540Y008861D02*
X013540Y015484D01*
X013940Y015370D02*
X013940Y008836D01*
X013949Y008840D02*
X013901Y008840D01*
X014340Y008861D02*
X014340Y015377D01*
X014740Y015492D02*
X014740Y014797D01*
X014400Y014440D02*
X012379Y014440D01*
X012391Y014040D02*
X014368Y014040D01*
X015360Y013640D02*
X015450Y013640D01*
X016380Y013640D02*
X017684Y013640D01*
X017684Y014040D02*
X016380Y014040D01*
X016380Y014440D02*
X017684Y014440D01*
X017684Y014840D02*
X016380Y014840D01*
X016380Y015240D02*
X017684Y015240D01*
X017684Y015640D02*
X016380Y015640D01*
X016380Y016040D02*
X017684Y016040D01*
X017762Y016440D02*
X016380Y016440D01*
X016380Y016840D02*
X028250Y016840D01*
X028250Y016440D02*
X027190Y016440D01*
X027140Y016482D02*
X027140Y017274D01*
X025140Y017370D02*
X025140Y016516D01*
X024740Y016516D02*
X024740Y017742D01*
X024768Y017640D02*
X024632Y017640D01*
X024740Y017878D02*
X024740Y018561D01*
X024861Y018440D02*
X023464Y018440D01*
X023540Y018516D02*
X023540Y016516D01*
X023140Y016516D02*
X023140Y018116D01*
X023064Y018040D02*
X024120Y018040D01*
X024340Y017878D02*
X024340Y017742D01*
X024101Y017640D02*
X022664Y017640D01*
X022740Y017716D02*
X022740Y016516D01*
X023940Y016516D02*
X023940Y018916D01*
X023864Y018840D02*
X024710Y018840D01*
X024740Y018810D02*
X024740Y018770D01*
X025140Y018770D02*
X025140Y018810D01*
X024740Y019019D02*
X024740Y019130D01*
X024340Y019130D02*
X024340Y018318D01*
X024632Y018040D02*
X024768Y018040D01*
X025140Y018250D02*
X025140Y018310D01*
X025170Y018440D02*
X025210Y018440D01*
X023277Y019206D02*
X023289Y019251D01*
X023289Y019717D01*
X022891Y019717D01*
X022891Y019095D01*
X023133Y019095D01*
X023179Y019107D01*
X023220Y019131D01*
X023253Y019165D01*
X023277Y019206D01*
X023286Y019240D02*
X023416Y019240D01*
X023540Y019364D02*
X023540Y019567D01*
X023517Y019578D02*
X023579Y019548D01*
X023604Y019528D01*
X023635Y019520D01*
X023664Y019505D01*
X023680Y019504D01*
X021906Y017730D01*
X021047Y017730D01*
X021184Y017867D01*
X021234Y017989D01*
X021234Y018430D01*
X021260Y018430D01*
X021407Y018491D01*
X021519Y018603D01*
X021580Y018750D01*
X021580Y018910D01*
X021519Y019057D01*
X021407Y019169D01*
X021263Y019229D01*
X021263Y019318D01*
X021226Y019406D01*
X021158Y019474D01*
X021070Y019511D01*
X020887Y019511D01*
X020988Y019612D01*
X021046Y019751D01*
X021046Y019901D01*
X020988Y020040D01*
X021470Y020040D01*
X021412Y019901D01*
X021412Y019751D01*
X021470Y019612D01*
X021576Y019505D01*
X021715Y019448D01*
X021805Y019448D01*
X021764Y019406D01*
X021727Y019318D01*
X021727Y018976D01*
X021725Y018971D01*
X021725Y018839D01*
X021727Y018834D01*
X021727Y018672D01*
X021764Y018583D01*
X021831Y018516D01*
X021920Y018479D01*
X022251Y018479D01*
X022253Y018480D01*
X022410Y018480D01*
X022557Y018541D01*
X022669Y018653D01*
X022730Y018800D01*
X022730Y018960D01*
X022674Y019095D01*
X022776Y019095D01*
X022776Y019717D01*
X022891Y019717D01*
X022891Y019833D01*
X022776Y019833D01*
X022776Y020056D01*
X022891Y020056D01*
X022891Y019833D01*
X023213Y019833D01*
X023229Y019810D01*
X023249Y019796D01*
X023291Y019750D01*
X023307Y019722D01*
X023333Y019703D01*
X023355Y019679D01*
X023383Y019665D01*
X023411Y019645D01*
X023430Y019622D01*
X023461Y019607D01*
X023489Y019586D01*
X023517Y019578D01*
X023415Y019640D02*
X023289Y019640D01*
X023140Y019717D02*
X023140Y019833D01*
X022891Y019640D02*
X022776Y019640D01*
X022776Y019717D02*
X022378Y019717D01*
X022378Y019436D01*
X022340Y019474D01*
X022340Y020056D01*
X022378Y020056D02*
X022094Y020056D01*
X022111Y020040D01*
X022168Y019901D01*
X022168Y019751D01*
X022111Y019612D01*
X022009Y019511D01*
X022251Y019511D01*
X022340Y019474D01*
X022378Y019640D02*
X022122Y019640D01*
X022378Y019833D02*
X022776Y019833D01*
X022776Y019717D01*
X022740Y019717D02*
X022740Y019833D01*
X022776Y020040D02*
X022891Y020040D01*
X022378Y020040D02*
X022110Y020040D01*
X022378Y020056D02*
X022378Y019833D01*
X021540Y019542D02*
X021540Y019006D01*
X021580Y018840D02*
X021725Y018840D01*
X021540Y018654D02*
X021540Y017730D01*
X021140Y017730D02*
X021140Y017823D01*
X021234Y018040D02*
X022216Y018040D01*
X022340Y018164D02*
X022340Y018480D01*
X022616Y018440D02*
X021284Y018440D01*
X020574Y018440D02*
X019058Y018440D01*
X019063Y018444D02*
X019081Y018478D01*
X019104Y018509D01*
X019111Y018534D01*
X019166Y018638D01*
X019183Y018658D01*
X019195Y018694D01*
X019213Y018727D01*
X019215Y018754D01*
X019246Y018847D01*
X019252Y018854D01*
X019266Y018907D01*
X019284Y018959D01*
X019283Y018968D01*
X019285Y018975D01*
X019291Y018985D01*
X019302Y019036D01*
X019314Y019082D01*
X019319Y019095D01*
X019528Y019095D01*
X019528Y019717D01*
X019643Y019717D01*
X019643Y019095D01*
X019877Y019095D01*
X019877Y018672D01*
X019914Y018583D01*
X019981Y018516D01*
X020069Y018479D01*
X020401Y018479D01*
X020489Y018516D01*
X020557Y018583D01*
X020570Y018615D01*
X020574Y018604D01*
X020574Y018191D01*
X020443Y018060D01*
X018686Y018060D01*
X018698Y018070D01*
X018734Y018092D01*
X018747Y018111D01*
X018804Y018158D01*
X018825Y018169D01*
X018852Y018199D01*
X018884Y018225D01*
X018895Y018246D01*
X018925Y018280D01*
X018938Y018287D01*
X018967Y018327D01*
X019000Y018363D01*
X019005Y018377D01*
X019043Y018428D01*
X019063Y018444D01*
X019140Y018589D02*
X019140Y018060D01*
X019540Y018060D02*
X019540Y019717D01*
X019528Y019640D02*
X019643Y019640D01*
X019643Y019717D02*
X019643Y019833D01*
X019528Y019833D01*
X019528Y020056D01*
X019643Y020056D01*
X019643Y019833D01*
X020041Y019833D01*
X020041Y020056D01*
X020365Y020056D01*
X020348Y020040D01*
X020041Y020040D01*
X019940Y019833D02*
X019940Y019717D01*
X020041Y019717D02*
X019643Y019717D01*
X019540Y019833D02*
X019540Y020056D01*
X019528Y020040D02*
X019643Y020040D01*
X020041Y019717D02*
X020041Y019499D01*
X020069Y019511D01*
X020401Y019511D01*
X020489Y019474D01*
X020557Y019406D01*
X020570Y019375D01*
X020583Y019406D01*
X020624Y019448D01*
X020593Y019448D01*
X020454Y019505D01*
X020348Y019612D01*
X020290Y019751D01*
X020290Y019901D01*
X020348Y020040D01*
X020340Y020056D02*
X020340Y020021D01*
X020972Y020056D02*
X021487Y020056D01*
X021470Y020040D01*
X021140Y020056D02*
X021140Y019482D01*
X021000Y019640D02*
X021458Y019640D01*
X021263Y019240D02*
X021727Y019240D01*
X022740Y019095D02*
X022740Y018564D01*
X022730Y018840D02*
X023016Y018840D01*
X023140Y018964D02*
X023140Y019097D01*
X022891Y019240D02*
X022776Y019240D01*
X020988Y020040D02*
X020972Y020056D01*
X020336Y019640D02*
X020041Y019640D01*
X020340Y019631D02*
X020340Y019511D01*
X019643Y019240D02*
X019528Y019240D01*
X019244Y018840D02*
X019877Y018840D01*
X019940Y018557D02*
X019940Y018060D01*
X020340Y018060D02*
X020340Y018479D01*
X021940Y018479D02*
X021940Y017764D01*
X024340Y017302D02*
X024340Y016516D01*
X027269Y016040D02*
X028250Y016040D01*
X028340Y015880D02*
X028340Y011585D01*
X029840Y011640D02*
X033950Y011640D01*
X033950Y012040D02*
X029840Y012040D01*
X028460Y012440D02*
X027269Y012440D01*
X027269Y012840D02*
X028460Y012840D01*
X028460Y013240D02*
X027269Y013240D01*
X027269Y013640D02*
X028460Y013640D01*
X028460Y014040D02*
X027269Y014040D01*
X027269Y014440D02*
X028460Y014440D01*
X028460Y014840D02*
X027269Y014840D01*
X027269Y015240D02*
X028460Y015240D01*
X028460Y015640D02*
X027269Y015640D01*
X029840Y014840D02*
X033950Y014840D01*
X034610Y014840D02*
X037830Y014840D01*
X038340Y015350D02*
X038340Y015390D01*
X039140Y014990D02*
X039140Y012170D01*
X039540Y012170D02*
X039540Y014990D01*
X039940Y014990D02*
X039940Y012170D01*
X040340Y012170D02*
X040340Y014990D01*
X040740Y014960D02*
X040740Y012240D01*
X040790Y012440D02*
X036970Y012440D01*
X036390Y012440D02*
X034610Y012440D01*
X033950Y012440D02*
X032653Y012440D01*
X032740Y013142D02*
X032740Y015503D01*
X032846Y015640D02*
X033855Y015640D01*
X031408Y016840D02*
X031237Y016840D01*
X031237Y017240D02*
X031408Y017240D01*
X030940Y017540D02*
X030740Y017330D01*
X030780Y017320D01*
X030940Y017540D02*
X031456Y018056D01*
X031456Y018971D01*
X031200Y018971D02*
X031200Y018200D01*
X030890Y017890D01*
X030290Y017890D01*
X029990Y017590D01*
X029990Y017340D01*
X030010Y017320D01*
X030110Y018190D02*
X030790Y018190D01*
X030944Y018344D01*
X030944Y018971D01*
X030688Y018971D02*
X030688Y018542D01*
X030688Y018971D02*
X030688Y019247D01*
X030688Y019635D02*
X030688Y019643D01*
X030688Y019635D01*
X030688Y019635D01*
X030688Y019640D02*
X030688Y019640D01*
X030740Y019675D02*
X030740Y019730D01*
X031140Y019703D02*
X031140Y019840D01*
X031540Y019770D02*
X031540Y019703D01*
X031940Y019663D02*
X031940Y019788D01*
X031140Y020420D02*
X031140Y020450D01*
X030740Y020450D02*
X030740Y020420D01*
X029830Y019640D02*
X028697Y019640D01*
X026740Y019460D02*
X026740Y019444D01*
X018740Y018101D02*
X018740Y018060D01*
X015450Y016040D02*
X015358Y016040D01*
X011360Y014440D02*
X004214Y014440D01*
X004340Y014485D02*
X004340Y001923D01*
X004740Y001810D02*
X004740Y004598D01*
X004870Y004440D02*
X001828Y004440D01*
X001716Y004840D02*
X004660Y004840D01*
X005140Y004285D02*
X005140Y001735D01*
X005540Y001700D02*
X005540Y004307D01*
X005758Y004440D02*
X013987Y004440D01*
X013940Y004487D02*
X013940Y003660D01*
X013890Y003640D02*
X013890Y003640D01*
X013689Y003640D02*
X002203Y003640D01*
X002740Y002945D02*
X002740Y005662D01*
X005967Y004840D02*
X013592Y004840D01*
X013540Y005618D02*
X013540Y006537D01*
X013637Y006440D02*
X008570Y006440D01*
X008570Y006040D02*
X013970Y006040D01*
X013940Y005993D02*
X013940Y006137D01*
X013549Y005640D02*
X008624Y005640D01*
X005940Y004724D02*
X005940Y001700D01*
X007140Y001700D02*
X007140Y015334D01*
X004282Y014040D02*
X011390Y014040D01*
X011390Y013640D02*
X004181Y013640D01*
X001600Y011640D02*
X014639Y011640D01*
X014660Y011240D02*
X001600Y011240D01*
X001600Y010840D02*
X014639Y010840D01*
X014639Y010440D02*
X001600Y010440D01*
X008570Y009240D02*
X014639Y009240D01*
X014740Y008998D02*
X014740Y008861D01*
X014624Y008840D02*
X014581Y008840D01*
X012340Y008037D02*
X012340Y008015D01*
X012337Y008040D02*
X008570Y008040D01*
X008570Y007640D02*
X012308Y007640D01*
X012340Y007697D02*
X012340Y007734D01*
X012340Y007416D02*
X012340Y001700D01*
X011140Y001700D02*
X011140Y014660D01*
X010740Y014562D02*
X010740Y001700D01*
X013615Y002840D02*
X002843Y002840D01*
X013890Y002840D02*
X013890Y002840D01*
X016253Y002040D02*
X024870Y002040D01*
X027780Y002040D02*
X048460Y002040D01*
X048340Y001987D02*
X048340Y014299D01*
X048565Y014040D02*
X041370Y014040D01*
X041370Y013640D02*
X048634Y013640D01*
X048740Y013423D02*
X048740Y002176D01*
X047940Y001856D02*
X047940Y014412D01*
X047843Y014440D02*
X041514Y014440D01*
X041540Y014466D02*
X041540Y001700D01*
X041940Y001700D02*
X041940Y014615D01*
X042340Y014794D02*
X042340Y001700D01*
X042740Y001700D02*
X042740Y015932D01*
X042383Y016040D02*
X040856Y016040D01*
X040740Y016073D02*
X040740Y016536D01*
X041058Y016440D02*
X039945Y016440D01*
X039940Y016427D02*
X039940Y015570D01*
X040216Y015640D02*
X039319Y015640D01*
X039540Y015570D02*
X039540Y015814D01*
X039744Y016040D02*
X040354Y016040D01*
X040340Y016023D02*
X040340Y016657D01*
X041140Y016415D02*
X041140Y015959D01*
X041540Y015740D02*
X041540Y016295D01*
X041940Y016174D02*
X041940Y015729D01*
X042251Y015640D02*
X043708Y015640D01*
X043540Y015691D02*
X043540Y001700D01*
X043140Y001700D02*
X043140Y015811D01*
X042340Y015614D02*
X042340Y016053D01*
X041469Y015640D02*
X041329Y015640D01*
X041354Y015240D02*
X041215Y015240D01*
X041140Y015018D02*
X041140Y014914D01*
X042353Y014840D02*
X046433Y014840D01*
X046340Y014866D02*
X046340Y001700D01*
X045940Y001700D02*
X045940Y014980D01*
X045540Y015095D02*
X045540Y001700D01*
X045140Y001700D02*
X045140Y015210D01*
X045033Y015240D02*
X042468Y015240D01*
X043940Y015570D02*
X043940Y001700D01*
X044340Y001700D02*
X044340Y015449D01*
X044740Y015328D02*
X044740Y001700D01*
X046740Y001700D02*
X046740Y014753D01*
X047140Y014639D02*
X047140Y001712D01*
X047540Y001765D02*
X047540Y014526D01*
X050591Y013640D02*
X050617Y013640D01*
X050680Y012440D02*
X041370Y012440D01*
X041370Y012040D02*
X050680Y012040D01*
X050680Y011640D02*
X041370Y011640D01*
X040740Y011520D02*
X040740Y010050D01*
X040730Y010040D02*
X037270Y010040D01*
X036390Y010040D02*
X034610Y010040D01*
X034610Y009640D02*
X036390Y009640D01*
X037640Y009240D02*
X040560Y009240D01*
X040340Y009700D02*
X040340Y011590D01*
X039940Y011590D02*
X039940Y001700D01*
X039540Y001700D02*
X039540Y011590D01*
X039140Y011590D02*
X039140Y001700D01*
X038740Y001700D02*
X038740Y011590D01*
X038340Y011590D02*
X038340Y001700D01*
X037140Y001700D02*
X037140Y003323D01*
X036740Y003379D02*
X036740Y001700D01*
X036340Y001700D02*
X036340Y004930D01*
X036353Y004040D02*
X034610Y004040D01*
X034579Y003640D02*
X036438Y003640D01*
X034467Y003500D02*
X034467Y003500D01*
X030551Y002840D02*
X030002Y002840D01*
X029940Y003069D02*
X029940Y003229D01*
X030002Y003240D02*
X030491Y003240D01*
X029540Y003229D02*
X029540Y003069D01*
X029311Y002840D02*
X029151Y002840D01*
X028461Y002840D02*
X027783Y002840D01*
X027780Y002440D02*
X028504Y002440D01*
X028740Y002378D02*
X028740Y001700D01*
X029140Y001700D02*
X029140Y002378D01*
X029151Y002440D02*
X029311Y002440D01*
X029540Y002378D02*
X029540Y001700D01*
X029140Y003919D02*
X029140Y004778D01*
X034610Y006040D02*
X036390Y006040D01*
X036390Y006440D02*
X034610Y006440D01*
X034610Y006840D02*
X036390Y006840D01*
X041140Y009630D02*
X041140Y001700D01*
X023004Y008547D02*
X023004Y008892D01*
X023041Y008980D01*
X023108Y009047D01*
X023163Y009070D01*
X023134Y009087D01*
X023100Y009121D01*
X023076Y009162D01*
X023064Y009207D01*
X023064Y009469D01*
X023423Y009469D01*
X023423Y009505D01*
X023064Y009505D01*
X023064Y009767D01*
X023076Y009812D01*
X023100Y009853D01*
X023120Y009873D01*
X023060Y009848D01*
X023034Y009848D01*
X023058Y009791D01*
X023058Y009183D01*
X023021Y009095D01*
X022954Y009028D01*
X022899Y009005D01*
X022928Y008988D01*
X022962Y008954D01*
X022986Y008913D01*
X022998Y008868D01*
X022998Y008606D01*
X022639Y008606D01*
X022639Y008570D01*
X022998Y008570D01*
X022998Y008541D01*
X023004Y008547D01*
X022740Y008570D02*
X022740Y008606D01*
X022998Y008840D02*
X023004Y008840D01*
X023140Y009061D02*
X023140Y009083D01*
X023064Y009240D02*
X023058Y009240D01*
X023140Y009469D02*
X023140Y009505D01*
X023064Y009640D02*
X023058Y009640D01*
X023540Y009505D02*
X023540Y009469D01*
X023818Y009640D02*
X028660Y009640D01*
X028660Y010040D02*
X023895Y010040D01*
X023901Y010440D02*
X028660Y010440D01*
X028660Y010840D02*
X022103Y010840D01*
X022740Y010762D02*
X022740Y012049D01*
X022340Y012049D02*
X022340Y009968D01*
X022341Y010040D02*
X021470Y010040D01*
X021540Y010089D02*
X021540Y008550D01*
X021800Y008840D02*
X021000Y008840D01*
X021140Y008550D02*
X021140Y009898D01*
X020740Y009927D02*
X020740Y009146D01*
X020530Y009240D02*
X021978Y009240D01*
X021940Y009202D02*
X021940Y010089D01*
X022132Y010440D02*
X022379Y010440D01*
X023140Y010728D02*
X023140Y012049D01*
X023540Y012049D02*
X023540Y010323D01*
X023543Y010440D02*
X023506Y010440D01*
X022184Y009640D02*
X020530Y009640D01*
X023940Y009595D02*
X023940Y012049D01*
X020340Y012049D02*
X020340Y011642D01*
X020097Y011640D02*
X019780Y011640D01*
X019940Y011525D02*
X019940Y012049D01*
X019540Y012049D02*
X019540Y011880D01*
X017684Y013240D02*
X016380Y013240D01*
X019602Y008000D02*
X019762Y008000D01*
X019762Y007312D01*
X019602Y007312D01*
X019602Y008000D01*
X019602Y007640D02*
X019762Y007640D01*
X019762Y007312D02*
X020450Y007312D01*
X020450Y007152D01*
X019762Y007152D01*
X019762Y007312D01*
X019762Y007240D02*
X020450Y007240D01*
X020340Y007312D02*
X020340Y007152D01*
X019940Y007152D02*
X019940Y007312D01*
X019762Y007152D02*
X019762Y006266D01*
X019602Y006266D01*
X019602Y007152D01*
X018716Y007152D01*
X018716Y007312D01*
X019602Y007312D01*
X019602Y007152D01*
X019762Y007152D01*
X019602Y007240D02*
X018716Y007240D01*
X018740Y007312D02*
X018740Y007152D01*
X019140Y007152D02*
X019140Y007312D01*
X019540Y007312D02*
X019540Y007152D01*
X019602Y006840D02*
X019762Y006840D01*
X019762Y006440D02*
X019602Y006440D01*
X022340Y006230D02*
X022340Y006216D01*
X016003Y007617D02*
X015967Y007602D01*
X015967Y007697D01*
X016003Y007697D01*
X016003Y007617D01*
X016003Y007640D02*
X015967Y007640D01*
X012723Y007640D02*
X012687Y007640D01*
X037270Y011240D02*
X040790Y011240D01*
X041370Y011240D02*
X050680Y011240D01*
X050680Y010040D02*
X041370Y010040D01*
X041150Y009640D02*
X050680Y009640D01*
D12*
X029231Y003149D03*
D13*
X031322Y003149D03*
D14*
G36*
X041693Y015549D02*
X042259Y015387D01*
X042097Y014821D01*
X041531Y014983D01*
X041693Y015549D01*
G37*
G36*
X040535Y015881D02*
X041101Y015719D01*
X040939Y015153D01*
X040373Y015315D01*
X040535Y015881D01*
G37*
G36*
X011602Y015715D02*
X012162Y015897D01*
X012344Y015337D01*
X011784Y015155D01*
X011602Y015715D01*
G37*
G36*
X010456Y015343D02*
X011016Y015525D01*
X011198Y014965D01*
X010638Y014783D01*
X010456Y015343D01*
G37*
D15*
X034786Y016482D03*
X035810Y016482D03*
X035810Y016858D03*
X035810Y017234D03*
X034786Y017234D03*
D16*
X022834Y019775D03*
X019586Y019775D03*
D17*
X020235Y018995D03*
X020904Y018995D03*
X022086Y018995D03*
X015390Y005275D03*
X014890Y005275D03*
X014390Y005275D03*
X013890Y005275D03*
X013890Y003205D03*
X014390Y003205D03*
X014890Y003205D03*
X015390Y003205D03*
D18*
X053940Y001928D03*
X055440Y001928D03*
X055440Y009125D03*
X053940Y009125D03*
X053942Y010778D03*
X055442Y010778D03*
X055442Y017975D03*
X053942Y017975D03*
D19*
X026970Y018790D03*
X025190Y018790D03*
D20*
X024700Y017810D03*
X027460Y017810D03*
D21*
X021071Y014511D03*
D22*
X022370Y015121D03*
D23*
X020382Y015633D03*
D24*
X018846Y014737D03*
D25*
X018374Y014442D03*
D26*
X018846Y013610D03*
X018374Y013019D03*
D27*
X022621Y009487D03*
X023441Y009487D03*
X023441Y008588D03*
X022621Y008588D03*
D28*
X019682Y007232D03*
D29*
X021120Y007310D03*
X021120Y007150D03*
X021120Y006990D03*
X021120Y006830D03*
X021120Y006670D03*
X021120Y006510D03*
X021120Y006350D03*
X021120Y006190D03*
X018240Y006190D03*
X018240Y006350D03*
X018240Y006510D03*
X018240Y006670D03*
X018240Y006830D03*
X018240Y006990D03*
X018240Y007150D03*
X018240Y007310D03*
X018240Y007470D03*
X018240Y007630D03*
X018240Y007790D03*
X018240Y007950D03*
X018240Y008110D03*
X018240Y008270D03*
X021120Y008270D03*
X021120Y008110D03*
X021120Y007950D03*
X021120Y007790D03*
X021120Y007630D03*
X021120Y007470D03*
D30*
X020720Y008670D03*
X020560Y008670D03*
X020400Y008670D03*
X020240Y008670D03*
X020080Y008670D03*
X019920Y008670D03*
X019760Y008670D03*
X019600Y008670D03*
X019440Y008670D03*
X019280Y008670D03*
X019120Y008670D03*
X018960Y008670D03*
X018800Y008670D03*
X018640Y008670D03*
X018640Y005790D03*
X018800Y005790D03*
X018960Y005790D03*
X019120Y005790D03*
X019280Y005790D03*
X019440Y005790D03*
X019600Y005790D03*
X019760Y005790D03*
X019920Y005790D03*
X020080Y005790D03*
X020240Y005790D03*
X020400Y005790D03*
X020560Y005790D03*
X020720Y005790D03*
D31*
X015064Y006002D03*
X014808Y006002D03*
X014552Y006002D03*
X014296Y006002D03*
X014296Y003858D03*
X014552Y003858D03*
X014808Y003858D03*
X015064Y003858D03*
D32*
X018565Y003705D03*
X019275Y003705D03*
X020125Y003705D03*
X020985Y003705D03*
X020985Y004415D03*
X020125Y004415D03*
X019275Y004415D03*
X018565Y004415D03*
X016755Y007715D03*
X015985Y007715D03*
X014940Y007715D03*
X014265Y007715D03*
X013585Y007715D03*
X012705Y007715D03*
X012705Y008425D03*
X013585Y008425D03*
X014265Y008425D03*
X014940Y008425D03*
X015985Y008425D03*
X016755Y008425D03*
X018305Y010325D03*
X018985Y010325D03*
X019665Y010325D03*
X019665Y011035D03*
X018985Y011035D03*
X018305Y011035D03*
X018985Y011655D03*
X018985Y012365D03*
X021675Y011235D03*
X021675Y010525D03*
X024205Y009225D03*
X024205Y008515D03*
X036725Y016525D03*
X036725Y017235D03*
X033905Y017335D03*
X033225Y017335D03*
X032545Y017335D03*
X031865Y017335D03*
X031865Y016625D03*
X032545Y016625D03*
X033225Y016625D03*
X033905Y016625D03*
D33*
X034835Y015805D03*
X035545Y015805D03*
X023525Y010305D03*
X022815Y010305D03*
X021055Y010355D03*
X020345Y010355D03*
X020345Y011185D03*
X021055Y011185D03*
X015785Y010875D03*
X015075Y010875D03*
X015075Y010195D03*
X015785Y010195D03*
X015785Y009415D03*
X015075Y009415D03*
X015075Y011555D03*
X015785Y011555D03*
X023355Y007645D03*
X024065Y007645D03*
X024065Y006935D03*
X023355Y006935D03*
X023355Y006255D03*
X024065Y006255D03*
X024065Y004665D03*
X023355Y004665D03*
X031075Y005835D03*
X031785Y005835D03*
D34*
X031715Y005060D03*
X030750Y005060D03*
D35*
X023946Y005445D03*
X022864Y005445D03*
D36*
X029240Y016660D03*
X030010Y016660D03*
X030780Y016660D03*
X030780Y017320D03*
X030010Y017320D03*
X029240Y017320D03*
D37*
X030688Y018971D03*
X030944Y018971D03*
X031200Y018971D03*
X031456Y018971D03*
X031712Y018971D03*
D38*
X032755Y020290D03*
X029645Y020290D03*
D39*
X029230Y020230D02*
X029230Y020030D01*
X029380Y019880D01*
X030688Y019738D02*
X030688Y019247D01*
X030688Y019738D02*
X030780Y019830D01*
X031080Y019830D01*
X031712Y018971D02*
X031712Y018418D01*
X032310Y017820D01*
X033190Y017820D01*
X033205Y017805D01*
X033205Y017355D01*
X033225Y017335D01*
X033905Y017335D02*
X033905Y017745D01*
X033830Y017820D01*
X034830Y017820D01*
X034786Y017796D01*
X034786Y017234D01*
X035380Y017230D02*
X035676Y017234D01*
X035810Y017234D01*
X036490Y017820D02*
X036730Y017580D01*
X036730Y017240D01*
X036725Y017235D01*
X036490Y017820D02*
X034830Y017820D01*
X033830Y017820D02*
X033190Y017820D01*
X032545Y016625D02*
X031865Y016625D01*
X032545Y016625D02*
X032545Y015775D01*
X032180Y015410D01*
X034230Y015780D02*
X034280Y015730D01*
X034280Y003780D01*
X033730Y003230D01*
X031403Y003230D01*
X015080Y011560D02*
X015075Y011555D01*
X015080Y011560D02*
X015080Y012080D01*
X015780Y012780D01*
X015780Y017430D01*
X016130Y017730D01*
X020580Y017730D01*
X020904Y018054D01*
X020904Y018956D01*
X021054Y018956D01*
X021180Y018830D01*
X020904Y018956D02*
X020904Y018995D01*
X022055Y018905D02*
X022086Y018936D01*
X022274Y018936D01*
X022330Y018880D01*
X022086Y018936D02*
X022086Y018995D01*
D40*
X019680Y007230D03*
D41*
X032180Y015410D03*
X036210Y016020D03*
X036210Y016830D03*
D42*
X035810Y016858D02*
X034358Y016858D01*
X034125Y016625D01*
X033905Y016625D01*
X033225Y016625D02*
X033135Y016575D01*
X033200Y016630D01*
X032545Y017335D02*
X032405Y017205D01*
X032570Y017360D01*
X036725Y016525D02*
X036730Y016530D01*
X036730Y016530D01*
X040530Y015480D02*
X040700Y015480D01*
X040737Y015517D01*
X040580Y015430D02*
X040530Y015480D01*
X041080Y014430D02*
X041835Y015185D01*
X041895Y015185D01*
X032780Y020230D02*
X032780Y020265D01*
X032755Y020290D01*
X026980Y018780D02*
X026970Y018790D01*
X026330Y019430D01*
X024030Y019430D01*
X022030Y017430D01*
X016280Y017430D01*
X016080Y017230D01*
X016080Y012580D01*
X015785Y012285D01*
X015785Y011555D01*
X018174Y011166D02*
X018305Y011035D01*
X018374Y011103D01*
X018374Y013019D01*
X018846Y012504D02*
X018846Y013610D01*
X018846Y012504D02*
X018985Y012365D01*
X012130Y015380D02*
X011984Y015526D01*
X011973Y015526D01*
X010840Y015141D02*
X010827Y015154D01*
X010840Y015141D02*
X010840Y014920D01*
X023390Y007840D02*
X023640Y008090D01*
X024340Y008090D01*
X024540Y007890D01*
X024540Y005440D01*
X024535Y005445D01*
X023946Y005445D01*
X024540Y005440D02*
X024540Y004840D01*
X024380Y004680D01*
X024080Y004680D01*
X021630Y005930D02*
X020980Y005280D01*
X020560Y005280D01*
X020560Y003705D01*
X020560Y005280D02*
X020560Y005480D01*
X021630Y005930D02*
X021630Y006130D01*
X021630Y006830D02*
X023250Y006830D01*
X023355Y006935D02*
X023355Y006255D01*
X023355Y007645D02*
X023390Y007680D01*
X023390Y007840D01*
X015064Y007591D02*
X015064Y006990D01*
X015064Y006002D01*
X015064Y005816D01*
X015390Y005490D01*
X015390Y005275D01*
X014890Y005275D02*
X014890Y005540D01*
X014808Y005622D01*
X014808Y006002D01*
X014808Y006590D01*
X014778Y006620D01*
X014808Y006622D01*
X014290Y007140D01*
X014290Y007690D01*
X014265Y007715D01*
X014280Y007680D01*
X013640Y007660D02*
X013585Y007715D01*
X013630Y007710D01*
X013640Y007660D02*
X013640Y007340D01*
X014365Y006615D01*
X014552Y006428D01*
X014552Y006002D01*
X014552Y005652D01*
X014390Y005490D01*
X014390Y005275D01*
X014290Y005890D02*
X014290Y005995D01*
X014296Y006002D01*
X015064Y007591D02*
X014940Y007715D01*
X015030Y007675D01*
X028980Y003380D02*
X029000Y003380D01*
D43*
X022100Y018980D02*
X022086Y018995D01*
X029645Y020290D02*
X029990Y020290D01*
X030230Y020530D01*
X030180Y020530D01*
D44*
X032515Y020530D02*
X032755Y020290D01*
X031785Y005130D02*
X031715Y005060D01*
D45*
X030030Y004700D03*
X029550Y004930D03*
X029230Y005130D03*
X028930Y005330D03*
X028630Y005530D03*
X030030Y006580D03*
X032530Y006080D03*
X036680Y005050D03*
X037280Y005330D03*
X036980Y005630D03*
X032530Y003560D03*
X029480Y003380D03*
X028980Y003380D03*
X028980Y002880D03*
X029480Y002880D03*
X025740Y006190D03*
X024840Y006190D03*
X024080Y006280D03*
X024080Y006580D03*
X021990Y006120D03*
X021630Y006130D03*
X021630Y006830D03*
X021980Y007110D03*
X019700Y005330D03*
X019580Y004960D03*
X020980Y004400D03*
X017980Y004430D03*
X017980Y004960D03*
X017980Y005330D03*
X017800Y005660D03*
X017530Y005930D03*
X017150Y005930D03*
X016380Y005930D03*
X015360Y006270D03*
X015360Y006620D03*
X014778Y006620D03*
X014365Y006615D03*
X015780Y007280D03*
X016130Y007280D03*
X016480Y007280D03*
X015980Y007740D03*
X015430Y008080D03*
X017230Y007980D03*
X017580Y007980D03*
X017480Y007630D03*
X016780Y009830D03*
X019660Y010330D03*
X021060Y010360D03*
X011600Y013080D03*
X012080Y014230D03*
X008280Y009530D03*
X008280Y005530D03*
X003130Y004930D03*
X002630Y004930D03*
X002630Y004430D03*
X003130Y004430D03*
X015830Y004880D03*
X016810Y004960D03*
X017010Y005330D03*
X015680Y002430D03*
X015930Y001880D03*
X037280Y009280D03*
X040680Y009580D03*
X040680Y011880D03*
X036730Y016530D03*
X033200Y016630D03*
X032570Y017360D03*
X031830Y017380D03*
X029380Y018280D03*
X029080Y018030D03*
X029380Y019880D03*
X029780Y019880D03*
X031580Y020130D03*
X032780Y020230D03*
X022880Y019730D03*
X022880Y019430D03*
X019630Y019430D03*
X019630Y019730D03*
X049430Y004930D03*
X049930Y004930D03*
X049930Y004430D03*
X049430Y004430D03*
D46*
X024205Y008515D02*
X024132Y008588D01*
X023441Y008588D01*
X022963Y008110D01*
X021120Y008110D01*
X021120Y008270D02*
X021870Y008270D01*
X022080Y008480D01*
X022080Y008946D01*
X022621Y009487D01*
X022621Y010111D01*
X022815Y010305D01*
X021675Y010525D02*
X021675Y010585D01*
X020345Y010355D02*
X020240Y010250D01*
X019665Y010325D02*
X019630Y010290D01*
X019640Y010310D02*
X019660Y010330D01*
X019640Y010310D02*
X019640Y009490D01*
X019920Y009210D01*
X019920Y008670D01*
X019760Y008670D02*
X019760Y009070D01*
X018990Y009840D01*
X018990Y010320D01*
X018985Y010325D01*
X018305Y010325D01*
X018980Y010320D02*
X018985Y010325D01*
X019130Y010680D02*
X018980Y010830D01*
X018980Y011030D01*
X018985Y011035D01*
X016630Y009830D02*
X016380Y010080D01*
X016380Y010530D01*
X016230Y010680D01*
X016230Y011110D01*
X015785Y011555D01*
X015785Y010875D02*
X016190Y010470D01*
X016190Y010040D01*
X016390Y009840D01*
X016390Y009590D01*
X016440Y009540D01*
X018740Y009540D01*
X019120Y009160D01*
X019120Y008670D01*
X019280Y008670D02*
X019280Y009250D01*
X018790Y009740D01*
X016820Y009740D01*
X016780Y009830D01*
X016630Y009830D01*
X016190Y009740D02*
X015940Y009990D01*
X015940Y010040D01*
X015785Y010195D01*
X015785Y010175D01*
X016190Y009740D02*
X016190Y009440D01*
X016290Y009340D01*
X018690Y009340D01*
X018960Y009070D01*
X018960Y008670D01*
X018800Y008670D02*
X018800Y008980D01*
X018640Y009140D01*
X016060Y009140D01*
X015785Y009415D01*
X015845Y009415D01*
X016380Y008730D02*
X016380Y008430D01*
X016375Y008425D01*
X015985Y008425D01*
X016380Y008430D02*
X016380Y007730D01*
X016590Y007730D01*
X016755Y007715D01*
X017180Y007530D02*
X017180Y007930D01*
X017230Y007980D01*
X017580Y007980D02*
X017930Y007630D01*
X018240Y007630D01*
X018240Y007470D02*
X017640Y007470D01*
X017480Y007630D01*
X017180Y007530D02*
X017400Y007310D01*
X018240Y007310D01*
X018240Y007150D02*
X016610Y007150D01*
X016480Y007280D01*
X016240Y007120D02*
X016160Y007210D01*
X016130Y007280D01*
X016240Y007120D02*
X016370Y006990D01*
X018240Y006990D01*
X018240Y006830D02*
X016180Y006830D01*
X015895Y007115D01*
X015795Y007205D01*
X015780Y007280D01*
X015420Y007260D02*
X015420Y008070D01*
X015430Y008080D01*
X016610Y008270D02*
X016755Y008425D01*
X016740Y008440D01*
X016740Y008640D01*
X016840Y008740D01*
X018390Y008740D01*
X018430Y008700D01*
X018430Y008330D01*
X018480Y008280D01*
X018250Y008280D01*
X018240Y008270D01*
X018480Y008280D02*
X020230Y008280D01*
X020240Y008290D01*
X020240Y008670D01*
X020180Y008730D01*
X020240Y008670D02*
X020080Y008670D01*
X020230Y008280D02*
X020630Y008280D01*
X020730Y008180D01*
X020730Y007980D01*
X020760Y007950D01*
X021120Y007950D01*
X023050Y007950D01*
X023355Y007645D01*
X023355Y006935D02*
X023250Y006830D01*
X023340Y006670D02*
X023355Y006255D01*
X022880Y006330D02*
X022880Y005461D01*
X022864Y005445D01*
X021990Y005990D02*
X020980Y004980D01*
X020980Y004420D01*
X020985Y004415D01*
X020980Y004420D02*
X021070Y004420D01*
X020240Y004580D02*
X020125Y004415D01*
X020240Y004580D02*
X020240Y005790D01*
X020080Y005790D02*
X020080Y006130D01*
X020130Y006180D01*
X020530Y006180D01*
X020560Y006150D01*
X020560Y005790D01*
X020560Y005480D01*
X019700Y005330D02*
X019600Y005430D01*
X019600Y005790D01*
X019440Y005790D02*
X019440Y005070D01*
X019580Y004960D01*
X019120Y005170D02*
X018580Y004630D01*
X018580Y004430D01*
X018565Y004415D01*
X017995Y004415D01*
X017980Y004430D01*
X018480Y004330D02*
X018565Y004415D01*
X019275Y004415D02*
X019280Y004420D01*
X019280Y005790D01*
X019120Y005790D02*
X019120Y005170D01*
X018640Y005790D02*
X018640Y005920D01*
X018580Y005980D01*
X017580Y005980D01*
X017530Y005930D01*
X017150Y005930D02*
X017150Y006160D01*
X017180Y006190D01*
X015420Y006190D01*
X015360Y006270D01*
X015360Y006620D02*
X015460Y006620D01*
X015730Y006350D01*
X018240Y006350D01*
X018240Y006190D02*
X017180Y006190D01*
X018240Y006510D02*
X015870Y006510D01*
X015390Y006990D01*
X015064Y006990D01*
X015420Y007260D02*
X016010Y006670D01*
X018240Y006670D01*
X019682Y007232D02*
X019833Y007080D01*
X019930Y007080D01*
X020660Y006350D01*
X021120Y006350D01*
X021120Y006510D02*
X022700Y006510D01*
X022880Y006330D01*
X021990Y006120D02*
X021990Y005990D01*
X021270Y006670D02*
X021430Y006830D01*
X021630Y006830D01*
X021430Y006830D02*
X021120Y006830D01*
X021120Y006670D02*
X021270Y006670D01*
X021120Y006990D02*
X020770Y006990D01*
X020730Y007030D01*
X020730Y007980D01*
X021120Y007470D02*
X021620Y007470D01*
X021980Y007110D01*
X024040Y006280D02*
X024065Y006255D01*
X018640Y008670D02*
X018640Y008840D01*
X018540Y008940D01*
X016590Y008940D01*
X016380Y008730D01*
X016730Y008450D02*
X016755Y008425D01*
X015835Y010875D02*
X015785Y010875D01*
D47*
X035380Y017230D03*
D48*
X034230Y015780D03*
X022330Y018880D03*
X021180Y018830D03*
D49*
X031785Y005835D02*
X031785Y005130D01*
X031715Y005060D02*
X031715Y003541D01*
X031322Y003149D01*
X031403Y003230D01*
D50*
X032530Y003560D02*
X032530Y006080D01*
X030030Y006580D02*
X030030Y004700D01*
X029550Y004930D02*
X029550Y015900D01*
X029790Y016140D01*
X030260Y016140D01*
X030780Y016660D01*
X030010Y016660D02*
X029350Y016000D01*
X029350Y005230D01*
X029230Y005130D01*
X028930Y005330D02*
X029150Y005530D01*
X029150Y016570D01*
X029240Y016660D01*
X028730Y016200D02*
X028730Y018130D01*
X030730Y020130D01*
X031580Y020130D01*
X028540Y018090D02*
X027840Y018790D01*
X026970Y018790D01*
X028540Y018090D02*
X028540Y016090D01*
X028750Y015880D01*
X028750Y011480D01*
X028630Y011380D01*
X021675Y010525D02*
X021420Y010780D01*
X020380Y010780D01*
X020280Y010680D01*
X020280Y010420D01*
X020345Y010355D01*
X020240Y010250D02*
X020240Y008990D01*
X020180Y008930D01*
X020180Y008730D01*
X023355Y007755D02*
X023355Y007645D01*
X024840Y006190D02*
X025740Y006190D01*
X028630Y005530D02*
X028950Y005850D01*
X028950Y015980D01*
X028730Y016200D01*
X031830Y017380D02*
X031855Y017355D01*
X031865Y017335D01*
X036680Y013280D02*
X038680Y015280D01*
X040500Y015280D01*
X040737Y015517D01*
X041080Y014430D02*
X041080Y009980D01*
X040680Y009580D01*
X037280Y009280D02*
X037280Y005330D01*
X036680Y005050D02*
X036680Y013280D01*
X037380Y011880D02*
X036980Y011480D01*
X036980Y005630D01*
X024080Y004680D02*
X024065Y004665D01*
X021070Y004420D02*
X021020Y004420D01*
X020980Y004400D01*
X019275Y004415D02*
X018920Y004060D01*
X017300Y004060D01*
X016530Y004830D01*
X015830Y004830D01*
X015830Y004880D01*
X016810Y004960D02*
X017980Y004960D01*
X017980Y005330D02*
X017010Y005330D01*
X016650Y005660D02*
X017800Y005660D01*
X016650Y005660D02*
X016380Y005930D01*
X008280Y005530D02*
X008280Y009530D01*
X011600Y013080D02*
X011680Y013160D01*
X011680Y014530D01*
X011180Y015030D01*
X010951Y015030D01*
X010827Y015154D01*
X011973Y015526D02*
X012080Y015419D01*
X012080Y014230D01*
X018985Y011655D02*
X019355Y011655D01*
X019680Y011330D01*
X019680Y011050D01*
X019665Y011035D01*
X019715Y011085D01*
X020245Y011085D01*
X020345Y011185D01*
X020280Y010680D02*
X019130Y010680D01*
X019605Y010325D02*
X019660Y010330D01*
X019665Y010325D02*
X019605Y010325D01*
X021010Y010360D02*
X021055Y010355D01*
X021060Y010360D02*
X021010Y010360D01*
X037380Y011880D02*
X040680Y011880D01*
X015680Y002430D02*
X015680Y002130D01*
X015930Y001880D01*
D51*
X028630Y011380D03*
M02*
